<svg xmlns="http://www.w3.org/2000/svg" width="31.297" height="26.885" viewBox="0 0 31.297 26.885">
  <g id="sustainability02" transform="translate(5398.649 723.077)">
    <path id="パス_13791" data-name="パス 13791" d="M404.158,35.064a2.532,2.532,0,1,0-2.532-2.532,2.532,2.532,0,0,0,2.532,2.532" transform="translate(-5798 -753.077)" fill="#005bac"/>
    <path id="パス_13792" data-name="パス 13792" d="M425.842,35.064a2.532,2.532,0,1,0-2.532-2.532,2.532,2.532,0,0,0,2.532,2.532" transform="translate(-5798 -753.077)" fill="#005bac"/>
    <path id="パス_13790" data-name="パス 13790" d="M428.087,36.263h-3.345a3.434,3.434,0,0,0-3.058,1.872l-2.048,5.988a.494.494,0,0,1-.776.138l-1.274-1.1a2.06,2.06,0,0,0-1.4-.549h-2.373a2.06,2.06,0,0,0-1.4.549l-1.274,1.1a.494.494,0,0,1-.776-.138l-2.048-5.988a3.434,3.434,0,0,0-3.058-1.872h-3.345a2.846,2.846,0,0,0-2.561,2.562v8.51a1.111,1.111,0,0,0,1.11,1.111h.775l.422,7.257a1.183,1.183,0,0,0,1.183,1.182h2.582a1.182,1.182,0,0,0,1.182-1.182l.422-7.257-.005-5.182a.177.177,0,0,1,.335-.081l1.625,4a1.374,1.374,0,0,0,2.155.384l1.554-1.145a.181.181,0,0,1,.192-.033.178.178,0,0,1,.107.162l.005,4.494.292,5.024a.819.819,0,0,0,.819.818h1.787a.819.819,0,0,0,.819-.818L417,51.043l.006-4.494a.177.177,0,0,1,.106-.162.181.181,0,0,1,.192.033l1.554,1.145a1.374,1.374,0,0,0,2.155-.384l1.625-4a.177.177,0,0,1,.335.081l-.005,5.182.422,7.257a1.182,1.182,0,0,0,1.182,1.182h2.582a1.183,1.183,0,0,0,1.183-1.182l.422-7.257h.775a1.11,1.11,0,0,0,1.11-1.111v-8.51a2.846,2.846,0,0,0-2.561-2.562" transform="translate(-5798 -753.077)" fill="#005bac"/>
  </g>
</svg>
