<svg xmlns="http://www.w3.org/2000/svg" xmlns:xlink="http://www.w3.org/1999/xlink" width="44" height="44" viewBox="0 0 44 44"><defs><clipPath id="a"><rect width="44" height="44" transform="translate(-214 634)" fill="#fff" opacity="0.55"/></clipPath></defs><g transform="translate(214 -634)" clip-path="url(#a)"><g transform="translate(-484.848 -0.29)"><rect width="5.512" height="5.513" transform="translate(275.044 640.535)" fill="#005bac"/><rect width="5.513" height="5.513" transform="translate(303.302 642.188) rotate(-45)" fill="#005bac"/><path d="M40.574,44.049H35.026a3.532,3.532,0,0,0-3.178,3.179V57.786a1.378,1.378,0,0,0,1.378,1.378h.962l.524,9a1.467,1.467,0,0,0,1.466,1.467h3.244a1.467,1.467,0,0,0,1.467-1.467l.523-9h.962a1.378,1.378,0,0,0,1.378-1.378V47.228a3.532,3.532,0,0,0-3.178-3.179" transform="translate(240 603.925)" fill="#005bac"/><path d="M52.5,42.561a3.142,3.142,0,1,0-3.142-3.141A3.141,3.141,0,0,0,52.5,42.561" transform="translate(240 603.925)" fill="#005bac"/><path d="M55.274,44.049H49.726a3.532,3.532,0,0,0-3.178,3.179V57.786a1.378,1.378,0,0,0,1.378,1.378h.962l.524,9a1.467,1.467,0,0,0,1.466,1.467h3.244a1.467,1.467,0,0,0,1.467-1.467l.523-9h.962a1.378,1.378,0,0,0,1.378-1.378V47.228a3.532,3.532,0,0,0-3.178-3.179" transform="translate(240 603.925)" fill="#005bac"/><path d="M69.974,44.049H64.426a3.532,3.532,0,0,0-3.178,3.179V57.786a1.378,1.378,0,0,0,1.378,1.378h.962l.524,9a1.467,1.467,0,0,0,1.466,1.467h3.244a1.467,1.467,0,0,0,1.467-1.467l.523-9h.962a1.378,1.378,0,0,0,1.378-1.378V47.228a3.532,3.532,0,0,0-3.178-3.179" transform="translate(240 603.925)" fill="#005bac"/></g></g></svg>