<svg id="レイヤー_1" data-name="レイヤー 1" xmlns="http://www.w3.org/2000/svg" viewBox="0 0 210 54"><defs><style>.cls-1{fill:#fff}</style></defs><path class="cls-1" d="M70.93 1h8.75l4.72 36.68H74.35l-1.24-9.9H59.33l-5.72 9.9h-4zm-9.77 23.6h11.59L70.73 8zM96.5 1h10l-8.57 36.68h-10zm6.23 35.94l.69-2.94a110 110 0 0 0 11.11.65c6.37 0 8.77-1 9.78-4.88.48-1.94 0-3.08-1.19-4.08S120 23.8 117 22.51c-3.23-1.39-5.77-2.88-7.18-4.77s-1.84-4.28-1-7.51c2.18-9.06 9.55-9.6 17.51-9.6a61.28 61.28 0 0 1 11.17 1l-.69 2.93a79.84 79.84 0 0 0-9.27-.56c-5.27 0-7.88.94-8.84 4.77-.48 1.89 0 3 1 3.83a28.75 28.75 0 0 0 5.63 3c3.48 1.49 6.17 2.88 7.63 4.72 1.65 1.94 2.08 4.23 1.25 7.51C132.08 37.13 123.55 38 115.8 38a81.26 81.26 0 0 1-13.07-1.06zM154.64 1h8.75l4.72 36.71h-10.05l-1.24-9.9H143l-5.72 9.9h-4zm-9.77 23.6h11.59L154.44 8zM181 12.86l-5.8 24.82h-3.78L180 1h6.12l14.69 23.48L206.27 1H210l-8.57 36.71h-5.52zM49.67 44h6.74v.55h-2.55v7.57h-1.63v-7.56h-2.56zm9.26 0h5.65v.55h-4v3.12h3.61v.55h-3.63v3.35h4.07v.55h-5.7zm8.24 4.08c0-3 1.53-4.14 4.09-4.14a10.25 10.25 0 0 1 2 .21v.5a10.76 10.76 0 0 0-1.57-.14c-2 0-2.81.82-2.81 3.55s.77 3.56 2.81 3.56a9.44 9.44 0 0 0 1.57-.14V52a10.16 10.16 0 0 1-2 .21c-2.55-.01-4.09-1.21-4.09-4.13zm14.05.15h-3.5v3.9h-1.63V44h1.63v3.67h3.5V44h1.63v8.12h-1.63zm5.43-2.09v6H86V44h1l4.75 5.75V44h.63v8.12h-.88zm8.64 1.93c0-2.63 1.35-4.16 3.79-4.16s3.81 1.53 3.81 4.16-1.35 4.16-3.81 4.16-3.79-1.53-3.79-4.16zm5.9 0c0-2.71-.6-3.6-2.11-3.6s-2.1.91-2.1 3.6.61 3.61 2.1 3.61 2.11-.93 2.11-3.62zm4.59-4.07h1.62v7.57h3.6v.55h-5.23zm7.48 4.07c0-2.63 1.35-4.16 3.8-4.16s3.8 1.53 3.8 4.16-1.35 4.16-3.8 4.16-3.8-1.53-3.8-4.16zm5.9 0c0-2.71-.6-3.6-2.1-3.6s-2.11.91-2.11 3.6.61 3.61 2.11 3.61 2.1-.93 2.1-3.62zm4.31 0c0-2.94 1.63-4.13 4.28-4.13a14.84 14.84 0 0 1 2.39.21v.5a17.23 17.23 0 0 0-2-.14c-2.4 0-3 .84-3 3.55s.67 3.55 2.77 3.55h.89v-3.38h-1.58v-.55h3.15V52a17.25 17.25 0 0 1-2.63.18c-2.65.03-4.27-1.04-4.27-4.11zm12.13 1.07L132.72 44h1.86l2.34 4.32 2.39-4.32h.69l-2.81 5.08v3h-1.59zm10.76-1.06c0-3 1.52-4.14 4.09-4.14a10.25 10.25 0 0 1 2 .21v.5a10.76 10.76 0 0 0-1.57-.14c-2 0-2.81.82-2.81 3.55s.77 3.56 2.81 3.56a9.44 9.44 0 0 0 1.57-.14V52a10.16 10.16 0 0 1-2 .21c-2.55-.01-4.09-1.21-4.09-4.13zm8.64-.01c0-2.63 1.35-4.16 3.79-4.16s3.81 1.53 3.81 4.16-1.35 4.16-3.81 4.16S155 50.7 155 48.07zm5.89 0c0-2.71-.59-3.6-2.1-3.6s-2.1.91-2.1 3.6.61 3.61 2.1 3.61 2.11-.93 2.11-3.62zm4.46 2.51h1.5v1.55h-1.5zm4.47 0h1.62L170 53.37h-.47zm4.44-6.58h1.62v7.57h3.61v.55h-5.23zm7.11 0h6.74v.55h-2.55v7.57h-1.63v-7.56h-2.56zm9.26 0h3.08c2.63 0 3.86 1.48 3.86 4.06s-1.23 4.06-3.86 4.06h-3.08zm2.85 7.57c1.65 0 2.38-.78 2.38-3.52s-.73-3.5-2.38-3.5h-1.25v7zm6.83-.99h1.49v1.55h-1.49zM19.82 20a1.92 1.92 0 0 1 1.42-2c1.67-.44 3.1.08 3.41-.24s-.09-.81-.09-.81L13.79 3.85a.7.7 0 0 1 .11-1 .69.69 0 0 1 1 .1.35.35 0 0 1 .08.13L26 16.53l.82-.62L20 7.71a1.13 1.13 0 1 1 1.7-1.45 1.2 1.2 0 0 1 .13.21l7.49 8.94.56-.39-4.59-6.23a.84.84 0 0 1 .19-1.18.85.85 0 0 1 1.18.19.51.51 0 0 1 .09.16l5 6.8.72-.3-.69-5.24A.28.28 0 0 1 32 8.9l.63-.09a.28.28 0 0 1 .32.25l.68 5.17.39-.07-.68-5.23a.28.28 0 0 1 .24-.32l.63-.08a.29.29 0 0 1 .32.24l.67 5.17.4-.08-.69-5.22a.28.28 0 0 1 .25-.32l.62-.08a.28.28 0 0 1 .32.24l.68 5.16 1.49-.45L46.2 10h.09a.46.46 0 0 1 .6.25.47.47 0 0 1-.26.6l-7.33 2.91.25.61 11.75-4.7.09-.05a.46.46 0 0 1 .59.26.45.45 0 0 1-.25.59L39.91 15.2l.26.6 15.57-6.21 5.17-9H0L12.32 22zm20.7-3.37l.26.61 12.56-5 .09-.05a.45.45 0 0 1 .59.26v.07l1-1.66z"/><path class="cls-1" d="M41.13 18.07l.26.61 8-3.21a.19.19 0 0 1 .09-.05.46.46 0 0 1 .33.85l-8.68 3.47c-1.7.68-1.82.75-1.82.75l.23.14.31.13L42.76 22a.29.29 0 0 1 .15.37l-.25.58a.27.27 0 0 1-.37.15L39.73 22l-.15.37 2.26 1a.29.29 0 0 1 .15.38l-.25.58a.29.29 0 0 1-.37.15l-2-.86-.16.36 1.71.74a.28.28 0 0 1 .15.37l-.25.58a.28.28 0 0 1-.37.15l-3.17-1.35c-.2-.15-.28-.47-.28-.47l-1.3-2.75c-.13-.27-.17-.32-.47-.25s-.95.2-1.38.31a.35.35 0 0 0-.28.48l2.16 5.07a.7.7 0 0 1-.37.91.69.69 0 0 1-.91-.38.33.33 0 0 1 0-.14l-2.69-6.33s-.27-.52-.54-.41-.09.64-.09.64L35 31.45a.69.69 0 0 1-.41.87.68.68 0 0 1-.87-.4.35.35 0 0 1 0-.14l-3.5-9.29s-.31-1-.61-.86 0 .71.05.95v.1l5.54 13.66a.62.62 0 0 1-.35.81.63.63 0 0 1-.81-.35.53.53 0 0 1 0-.12l-5.53-13.49a4.67 4.67 0 0 0-.94-1.47c-.51-.42-5.34 0-5.34 0a1.91 1.91 0 0 1-2-.65l-7.31 2 17.53 30.3L53.74 13z"/></svg>