<svg data-name="レイヤー 1" xmlns="http://www.w3.org/2000/svg" viewBox="0 0 150 176"><path d="M149.28 111.48a15.84 15.84 0 0 0-2.3-4.55 7.89 7.89 0 0 0-.49-.65 10.57 10.57 0 0 0-1.08-1.46l-2.41-2.15-11-9.74-6-5.24 11.35-10.09a4.15 4.15 0 0 0 .35-5.84 4.08 4.08 0 0 0-5.8-.36l-12.1 10.77-34.19 30.43a11.6 11.6 0 0 1-7.73 2.94 11.43 11.43 0 0 1-2.46-.26l-19.55-4.35-23.6-5.24L15.73 102l-2.37-.53a7.56 7.56 0 0 1-2-1 7.26 7.26 0 0 1-2.2-2.6 7.36 7.36 0 0 1-.8-3.33 7.41 7.41 0 0 1 1.41-4.31 7.33 7.33 0 0 1 5.88-3h.58l17.06 3.7 39.57 8.61a15.61 15.61 0 0 0 13.76-3.61l24.32-21.54 24.84-22a8 8 0 0 0 2.41-8 7.89 7.89 0 0 0-6-5.78l-3.1-.66-22.56-4.91L78 26.87a15.58 15.58 0 0 0-13.76 3.6L26.05 64.19 14.57 74.33l-10 8.83a9.74 9.74 0 0 0-1.08 1.45 7.37 7.37 0 0 0-.49.65 15.73 15.73 0 0 0 0 18.48 15.41 15.41 0 0 0 3.47 3.51 14.9 14.9 0 0 0 4.53 2.28l.17.06 17.42 3.84 3.36 3-.49.44L20 127l-10 8.82a12.2 12.2 0 0 0-1.08 1.46c-.17.22-.33.42-.49.65a15.73 15.73 0 0 0 0 18.48 15.16 15.16 0 0 0 3.47 3.5 14.93 14.93 0 0 0 4.52 2.29l.18.06 17.41 3.84 16.49 3.62L79.07 176a18.66 18.66 0 0 0 4.21.46 19.85 19.85 0 0 0 13.15-5l1-.86 34-30.28 11.33-10.08a4.05 4.05 0 0 0 1.09-1.58 14.72 14.72 0 0 0 3.15-3.26 15.73 15.73 0 0 0 3-9.21 16 16 0 0 0-.72-4.71zm-24.09 23.38L91 165.29a11.62 11.62 0 0 1-7.71 2.94 12.29 12.29 0 0 1-2.49-.23l-19.54-4.36-23.6-5.24-16.55-3.7-2.37-.54a7.69 7.69 0 0 1-2-1 7.42 7.42 0 0 1-3-5.93 7.17 7.17 0 0 1 1.41-4.31 7 7 0 0 1 2.58-2.21 7.05 7.05 0 0 1 3.29-.81h.59l17.06 3.71 39.56 8.6a15.59 15.59 0 0 0 13.77-3.6l10.57-9.36 23.49-5.18zm15.65-15.34a7.17 7.17 0 0 1-4.2 3.62l-21.21 4.73L74.58 137a12.11 12.11 0 0 1-2.47.25 11.63 11.63 0 0 1-7.72-2.93L45 117.06l28.64 6.3a19.29 19.29 0 0 0 4.2.45 19.82 19.82 0 0 0 13.17-5l1-.86 41.75-9.08h.57a7 7 0 0 1 2.15.34 5.53 5.53 0 0 1 1.16.47 7.19 7.19 0 0 1 3.66 4.32 7 7 0 0 1 .34 2.19 7.39 7.39 0 0 1-.8 3.33z" fill="#f0f5fa"/></svg>