<svg id="レイヤー_1" data-name="レイヤー 1" xmlns="http://www.w3.org/2000/svg" viewBox="0 0 150 176"><defs><style>.cls-1{fill:#f0f5fa}</style></defs><path class="cls-1" d="M99 67.28c0 7.72-14.69 14-32.81 14s-32.86-6.28-32.86-14 14.69-14 32.82-14S99 59.56 99 67.28zm-65.67 95.24c0 7.72 14.69 14 32.82 14s32.85-6.28 32.85-14v-3.46a3.18 3.18 0 0 0-4.43-2.93s-10.26 6.35-28.38 6.35-28.39-6.35-28.39-6.35a3.18 3.18 0 0 0-4.43 2.93v3.46zm0-23.74c0 7.72 14.69 14 32.82 14S99 146.5 99 138.78v-3.47a3.17 3.17 0 0 0-4.43-2.92s-10.26 6.34-28.38 6.34-28.39-6.34-28.39-6.34a3.17 3.17 0 0 0-4.43 2.92v3.47zm0-23.78c0 7.72 14.69 14 32.82 14S99 122.76 99 115v-3.48a3.18 3.18 0 0 0-4.43-2.92s-10.3 6.4-28.42 6.4-28.39-6.35-28.39-6.35a3.18 3.18 0 0 0-4.43 2.92V115zm0-23.71c0 7.72 14.69 14 32.82 14S99 99 99 91.29v-3.47a3.18 3.18 0 0 0-4.43-2.92s-10.26 6.34-28.38 6.34-28.43-6.34-28.43-6.34a3.18 3.18 0 0 0-4.43 2.92v3.47zM150 39.15c0 7.71-14.69 14-32.81 14s-32.82-6.25-32.82-14 14.7-14 32.82-14 32.81 6.27 32.81 14zm0 91.76v3.47c0 7.72-14.69 14-32.78 14a73.25 73.25 0 0 1-12-1v-14a70.82 70.82 0 0 0 12 1c18.09 0 28.37-6.35 28.37-6.35a3.13 3.13 0 0 1 4.41 2.9zm0-23.73v3.48c0 7.71-14.69 14-32.78 14a72.17 72.17 0 0 1-12-1v-14.07a70.82 70.82 0 0 0 12 1c18.09 0 28.37-6.35 28.37-6.35a3.21 3.21 0 0 1 3 .28 3.17 3.17 0 0 1 1.41 2.66zm0-23.75v3.47c0 7.72-14.69 14-32.78 14a72.1 72.1 0 0 1-12-1V85.83a70.82 70.82 0 0 0 12 1c18.09 0 28.37-6.35 28.37-6.35a3.18 3.18 0 0 1 4.41 2.95zm0-23.75v3.46c0 7.72-14.69 14-32.78 14a73.25 73.25 0 0 1-12-1v-8.87a12.46 12.46 0 0 0-1.22-5.38 69.81 69.81 0 0 0 13.19 1.22c15.43 0 25.18-4.62 27.71-6 .44-.24.66-.38.66-.38a3.23 3.23 0 0 1 3 .26 3 3 0 0 1 1 1.06 3.15 3.15 0 0 1 .44 1.63zm-84.37-37.2c0 7.71-14.7 14-32.82 14S0 30.19 0 22.48s14.69-14 32.81-14 32.82 6.27 32.82 14zm-38.56 94.96v14C11.7 130.32 0 124.6 0 117.72v-3.47a3.23 3.23 0 0 1 1.41-2.66 3.24 3.24 0 0 1 3-.28s8.13 5 22.66 6.13zm0-23.72v14C11.7 106.56 0 100.85 0 94v-3.5a3.2 3.2 0 0 1 1.41-2.66 3.17 3.17 0 0 1 3-.25s8.13 5 22.66 6.13zm0-23.72v14C11.7 82.83 0 77.11 0 70.24v-3.47a3.18 3.18 0 0 1 4.41-2.94s8.13 5 22.66 6.17zm38.54-27v3.47a3.44 3.44 0 0 1 0 .56c-15.5.14-31.07 4.66-36.47 13.32C12.73 59.58 0 53.67 0 46.48V43a3.2 3.2 0 0 1 1.41-2.65 3.09 3.09 0 0 1 3-.25s10.28 6.34 28.41 6.34 28.38-6.33 28.38-6.33a3.16 3.16 0 0 1 1.72-.25 3.43 3.43 0 0 1 1.29.5 3.13 3.13 0 0 1 1.34 2.15 1.43 1.43 0 0 1 .06.49z"/><path class="cls-1" d="M99 67.28c0 7.72-14.69 14-32.81 14s-32.86-6.28-32.86-14 14.69-14 32.82-14S99 59.56 99 67.28z"/></svg>