<svg xmlns="http://www.w3.org/2000/svg" width="619.693" height="200.587" viewBox="0 0 619.693 200.587"><g transform="translate(-16778 11620)"><g transform="translate(0 -15.774)"><path d="M583.17,115.39,584,115a.472.472,0,0,1,.32.16,44.454,44.454,0,0,1,3.95,5.51,11.94,11.94,0,0,1,1.27,5.72,2.975,2.975,0,0,1-1.47,3,1.81,1.81,0,0,0-.63.82c-.52,1-.75,2.33-2.29,2.38-.77.81-1.55,1.61-2.3,2.44a5.55,5.55,0,0,1-1.57,1.14A40.7,40.7,0,0,1,576,138.7c-.5.18-1,.33-1.51.5-2.1.68-4.19,1.37-6.3,2a11.14,11.14,0,0,0-2.81,1.9c-.72.52-1.42,1.06-2.25,1.68a5.659,5.659,0,0,0,1,.83,32.293,32.293,0,0,1,6.64,5.17,76.448,76.448,0,0,1,10.09,11.41,38.247,38.247,0,0,1,2.22,3.93l1.78.06,8.26.3a7.541,7.541,0,0,1,1.24.17,10.67,10.67,0,0,0,4.4.24c2.45-.46,4.62.56,6.56,1.92a65.52,65.52,0,0,1,5.5,4.34c2,1.77,4,3.66,5.89,5.54a25.754,25.754,0,0,1,2.24,2.54,3.81,3.81,0,0,1-1,5.46c-.56.34-1.09.72-1.66,1a6,6,0,0,1-5.05.08,8.67,8.67,0,0,0-2.8-.44,10.909,10.909,0,0,1-2.66-.4c-3-.79-6-1.56-9-2.5-2.74-.86-5.42-1.9-8.1-2.92a5,5,0,0,0-2.73-.17,9.385,9.385,0,0,0-.24,1.77A23,23,0,0,1,585,189c-.15.69-.11,1.42-.26,2.11-.5,2.21-1,4.42-1.6,6.62-.45,1.73-.94,3.45-1.51,5.14a12.32,12.32,0,0,1-2.88,4.65c-.94,1-1.73,2.06-2.59,3.1-1.41,1.72-3.37,2.82-5,4.31a1.67,1.67,0,0,1-.91.47c-2.26.19-4.51.34-6.77.51a6.507,6.507,0,0,0-1,.21c-1.48.39-1.48.4-2.67-.73a3.06,3.06,0,0,1-2.74-.82c-2.08-.45-3.21-2.16-4.61-3.51-.64-.62-1.31-1.21-2-1.82a22.641,22.641,0,0,1-1.79-1.74c-1.82-2.08-3.6-4.18-5.38-6.28-.31-.36-.61-.74-.89-1.13l-5.72-8a26.551,26.551,0,0,0-2.25-3,5.15,5.15,0,0,1-1.16-2.35,14.677,14.677,0,0,0-.59-1.88,14.009,14.009,0,0,0-1.09-1.67l1.49-.76-.39-1c.22-.46,1.06,0,1.17-.83,0-.38.82-.92,1.3-1a9,9,0,0,0,3.3-1.23,39.33,39.33,0,0,1,4-1.51c4.94-1.82,9.85-3.72,14.83-5.42a50.935,50.935,0,0,1,6.28-1.4,41.469,41.469,0,0,0,5.79-1.15,3.138,3.138,0,0,0,0-.78c-.56-3.3-1-6.64-3.06-9.46-1.71-2.31-3.31-4.7-5.05-7a20.418,20.418,0,0,0-2.31-2.24,13.7,13.7,0,0,1-3-4.19,2.84,2.84,0,0,1,.89-3.19,3.18,3.18,0,0,1,1.33-.33,8.784,8.784,0,0,0,1.24.11,3.79,3.79,0,0,0,2.74-1.42c1.45-1.91,3.07-3.69,4.6-5.53,1.09-1.31,1.42-2.95,2.24-4.8a31.235,31.235,0,0,0-3.82,1.38A6.706,6.706,0,0,1,564,132a14.941,14.941,0,0,0-2.72.76c-1.67.87-3.53.55-5.25,1a15.39,15.39,0,0,0-2,.52,4,4,0,0,1-2.46,0,18,18,0,0,1-6.82-3.34,63.683,63.683,0,0,1-6.55-5.84,22.67,22.67,0,0,1-4-6.55,2.261,2.261,0,0,1,0-.66c2.71.15,5.42-.42,7.95,1a3.78,3.78,0,0,0,1.93.33,19,19,0,0,0,6.62-1.43c2.09-.88,4.27-1.53,6.42-2.28a119.135,119.135,0,0,1,12.43-3.44,16.86,16.86,0,0,1,10,1,9,9,0,0,1,1.67,1C581.92,114.52,582.55,115,583.17,115.39Zm-13.83,65.2a6,6,0,0,0-.88,0,40.769,40.769,0,0,1-6.87,1,2.34,2.34,0,0,0-.53.08,16,16,0,0,1-4.76.73,5.978,5.978,0,0,0-.84.24c-.88.15-1.76.29-2.64.38-2,.2-3.91.35-5.86.53h-.18c-1.39.3-2.78.63-4.18.9a2.2,2.2,0,0,0-1.59.77l2.48,3.34a45,45,0,0,0,7.73,8.18c1,.86,2.09,1.62,3.56,1.11.2-.07.46.06.69.11,2.4.48,4.79.93,7.18,1.45a1.62,1.62,0,0,0,1.78-.49,15,15,0,0,0,1.6-2.35,35.509,35.509,0,0,0,3.31-11.12,13.07,13.07,0,0,0,0-4.86Z" transform="translate(16778 -11619.997)"/><path d="M550.38,102.19a3.56,3.56,0,0,1-2.92.29c-.68-.12-1.3-.64-2.08-.29-.18.09-.55-.15-.79-.32a14.5,14.5,0,0,1-4.91-5.38,46.412,46.412,0,0,1-3.82-10.61c-.45-2.16-.55-4.39-.8-6.59-.09-.7-.18-1.4-.28-2.22a8.11,8.11,0,0,1,3.3.74,5.82,5.82,0,0,0,2.94.3c5.92-.66,11.5-2.67,17.17-4.32a12,12,0,0,0,1.85-.67,12.12,12.12,0,0,1,4.6-1.34c1.29-.07,2.53-.75,3.82-.93,2.42-.34,4.87-.55,7.31-.76a26.739,26.739,0,0,1,3.58-.06,4.09,4.09,0,0,1,1.84.54,22.64,22.64,0,0,1,5.67,4.35,11.62,11.62,0,0,1,2.64,5.54,2.7,2.7,0,0,1-.41,1.69,9.3,9.3,0,0,1-3,3.49,2.94,2.94,0,0,0-1.25,2.48c-.31.16-.72.23-.93.47-1.66,1.94-4,3-6,4.45a27.441,27.441,0,0,1-2.63,1.51,3.38,3.38,0,0,0,1.65,1.6,32,32,0,0,1,6,4.52,11,11,0,0,1,1.73,2.21,3.371,3.371,0,0,1,.27,1.21c-.91.92-1.71,1.69-2.47,2.51a1.88,1.88,0,0,1-1.65.5,13.91,13.91,0,0,1-5.27-1.56,16.8,16.8,0,0,1-2.69-1.42c-1.72-1.29-3.66-1.17-5.61-1.13h-1.59a5.38,5.38,0,0,0-1.43-.08,15.23,15.23,0,0,1-4.62.06,47.39,47.39,0,0,0-5.7.27,4.27,4.27,0,0,1-3.52-1.05Zm1.84-4c1.36-.41,2.62-.75,3.86-1.17,2.76-1,5.55-1.87,7.76-4,.69-.65,1.49-1.19,2.21-1.82a49,49,0,0,0,7-7.17,5.45,5.45,0,0,0,.48-1.07,14,14,0,0,1-5.34,2.36c-.68.16-1.31.55-2,.72-1.32.32-2.45,1.19-3.88,1.29a28.409,28.409,0,0,0-3.88.59,11.15,11.15,0,0,1-5,.4c-1.14-.27-2.38-.19-3.45-.86-.33-.21-.89,0-1.33,0-.08,1.89.82,4.61,3.57,10.71Z" transform="translate(16778 -11619.997)"/><path d="M531.57,47.89l1-.21v-.83a7.12,7.12,0,0,0,3.29-.28,10.49,10.49,0,0,1,4.25-.16,28.9,28.9,0,0,0,8.41-.22,14.449,14.449,0,0,1,2-.19,2.73,2.73,0,0,0,2.56-1.33c1.25-1.9,2.73-3.67,3.26-6a16.541,16.541,0,0,0,.48-5.24c-2-1.49-4.38-2.58-5.62-4.87-1-1.83-1.73-3.8-2.55-5.72a1.461,1.461,0,0,1,0-.71c1.24-1.09,2.46-.56,3.72-.28a28.61,28.61,0,0,0,8,1.1,6,6,0,0,1,4.18,1.34,78.372,78.372,0,0,1,7.22,6.17A14.721,14.721,0,0,1,574.83,35l-.69,1.14c-.22.35-.61.68-.65,1-.1,1.25-1,1.7-2,2-.57.19-1.14.34-1.81.54-.2.34-.41.76-.66,1.16s-.32.57-.56.67c-1.5.62-2.27,2-3.4,3.24a14.27,14.27,0,0,0,4.16-.42c1.48-.19,2.92-.63,4.39-.89,1.11-.19,2.24-.25,3.37-.38a5.33,5.33,0,0,0,2-1c2-1.19,3.85-2.66,6.33-2.58a3.5,3.5,0,0,0,2.32-.95c-.05.37-.1.73-.17,1.21a3.9,3.9,0,0,1,2.87,1.52L594,44.78a6.94,6.94,0,0,1,1.75,5,3.53,3.53,0,0,0-1.72,2c-.29.77-1.29,1.34-2.09,1.82A20.332,20.332,0,0,1,589,54.89a6.849,6.849,0,0,1-1.55.43q-6.81,1.07-13.64,2.08c-2.11.32-4.24.51-6.35.85-1.64.27-3.25.69-4.88,1-.81.15-1.66.16-2.45.36-2,.52-4,1.08-6,1.71-.47.15-.79.7-1.24,1a7.679,7.679,0,0,1-1.34.53l-2.71-.65a2.179,2.179,0,0,1-.5-.2c-2.09-1.15-4.22-2.22-6.24-3.47s-4-2.68-5.95-4a15.279,15.279,0,0,1-4.11-4.93,8.4,8.4,0,0,1-.47-1.71Z" transform="translate(16778 -11619.997)"/><path d="M495.81,122.58a4.48,4.48,0,0,0-.94,3.3,3.13,3.13,0,0,0-1.85,1.75,3.6,3.6,0,0,1-.8.9c-1,.94-2,1.86-3,2.78-1.3,1.16-2.6,2.31-4.57,1.49a1.33,1.33,0,0,0-1.67.68,17.39,17.39,0,0,0-2.9,6.09,31.109,31.109,0,0,1-2,5.9,31.759,31.759,0,0,0-2.14,8.28c-.15,1.06-.22,2.14-.45,3.19a18.471,18.471,0,0,0-.25,6.07c.21,1.84.33,3.69.6,5.52a14.313,14.313,0,0,0,.87,3.28,23.769,23.769,0,0,0,3.53,5.8,10.247,10.247,0,0,0,1,1l1.16-2.13c1.35-2.53,2.62-5.11,4.07-7.59,1.68-2.89,3.51-5.7,5.29-8.55a10.06,10.06,0,0,1,.95-1.3,17.249,17.249,0,0,0,2.91-5.08c.45-1.17.87-2.35,1.33-3.51a6.392,6.392,0,0,1,.58-.91,1.49,1.49,0,0,1,.26,1.47c-.15,1-.27,2-.4,3a10.838,10.838,0,0,1-.41,2.77c-.33.79-.43,1.64-.84,2.41a4.64,4.64,0,0,0-.37,3.77,7.249,7.249,0,0,1-.23,3.14,8.7,8.7,0,0,0,0,2.28,14.578,14.578,0,0,1-.25,4.27,18.906,18.906,0,0,0-.15,4.44c0,1.36.05,2.73,0,4.09a3.289,3.289,0,0,1-.4,1.36,12.51,12.51,0,0,0-1.45,6.18,5.32,5.32,0,0,1-.22,1.22,6.53,6.53,0,0,0-2.22,2.55,1.75,1.75,0,0,1-1.73,1.06,12.19,12.19,0,0,1-6.25-1.29,10.73,10.73,0,0,0-2.63-.89,20.24,20.24,0,0,1-4.38-1.56,3.84,3.84,0,0,1-1.78-1.69c-.93-2.05-2-4.1-1.61-6.51a4.329,4.329,0,0,0-.06-1.24c-.24-2.14-.6-4.27-.71-6.42-.08-1.6.17-3.22.25-4.84.06-1.43.15-2.87.12-4.3a57.332,57.332,0,0,1,1.06-11.25c.35-2,.54-4,.88-6,.63-3.78,1.33-7.55,2-11.32a30.331,30.331,0,0,0,.45-7.85,28,28,0,0,1,.1-7.7,10.34,10.34,0,0,0-1.5-7.76,24.649,24.649,0,0,1-3.29-7.79,7.53,7.53,0,0,1,4.14.52,5.62,5.62,0,0,0,3.15.27,4.46,4.46,0,0,1,2.45.27,13.59,13.59,0,0,1,3.56,2c1.52,1.34,2.8,2.94,4.19,4.42l.75.77C492.56,116,494.2,119.25,495.81,122.58Z" transform="translate(16778 -11619.997)"/><path d="M478.74,59.88l.55-.41-.27-.79c.12,0,.23-.15.32-.13.88.13,1.76.28,2.64.44a16.7,16.7,0,0,1,5.79,2.34c1.12.68,2.26,1.32,3.43,1.91a14.51,14.51,0,0,1,4,3.56,39.49,39.49,0,0,1,5.44,7.12c.9,1.6,1.59,3.33,2.33,5a3.13,3.13,0,0,1-.3,3.07c-.1.15-.31.27-.33.42a1.85,1.85,0,0,1-2.47,1.74l-.44.91c-.18,0-.37.11-.51,0-1.21-.51-2.42-1-3.59-1.57s-2.43-1.26-3.63-1.9a1.91,1.91,0,0,1-.47-.26c-2.57-2.74-5.59-5.06-7.28-8.58a62,62,0,0,0-3.41-5.69,6.67,6.67,0,0,1-1-3.21,31.482,31.482,0,0,0-.8-3.97Z" transform="translate(16778 -11619.997)"/></g><path d="M41.93,111a3.41,3.41,0,0,0-1.09-.26c-2.31.27-4.25-.83-6.28-1.63a19.54,19.54,0,0,1-6.4-4.2,5.23,5.23,0,0,0-1.33-.91,21.169,21.169,0,0,1-4.18-3.1,7.72,7.72,0,0,1-2-3.37,7.28,7.28,0,0,0-1.88-3.2c-.39-.33-.76-.82-.31-1.41a18.319,18.319,0,0,1,2.8-.45,7.42,7.42,0,0,1,3.17.41,10.05,10.05,0,0,0,6.67.54c6.08-1.29,12.17-2.57,18.07-5.27a42.67,42.67,0,0,0,.42-5.55c-.1-4.07-.21-8.14-.24-12.22a33.42,33.42,0,0,0-.57-6.61,35.61,35.61,0,0,1-.49-4.63,14.22,14.22,0,0,1,0-2.69,6,6,0,0,0-2-5.3,13.63,13.63,0,0,1-3.48-6.82l1.52-1c1.83,1.62,4.31,1.51,6.12,2.62a2,2,0,0,0,.52,0c2.22-1.21,4.11-.33,5.73,1.12a57.13,57.13,0,0,1,4.05,4.32c.77.84,1.52,1.69,2.26,2.54s1.76,1.94,2.56,3c1.21,1.57,1.14,3.48,1.05,5.3-.11,2.38-.44,4.75-.73,7.11-.5,4.09-.67,8.19-.78,12.31,0,.39-.08.77-.15,1.39.94-.47,1.78-.88,2.61-1.31,2.5-1.28,5-2.6,7.51-3.83a34.084,34.084,0,0,1,3.66-1.47,4.84,4.84,0,0,1,3,0c.63.17,1.23.46,1.87.61a4.82,4.82,0,0,0,1.37.07,9.74,9.74,0,0,0,1.21-.14l1.35-.27a13.259,13.259,0,0,1,1.07.92,5.22,5.22,0,0,0,2.6,1.51A7.1,7.1,0,0,1,95,81.46a87,87,0,0,1,8.29,11.72,12.55,12.55,0,0,1,1.07,3.2,1.4,1.4,0,0,1-.07.88c-1.09,2.41-1,5.15-2.06,7.55-.91,2.11-1,4.4-1.68,6.54a11.2,11.2,0,0,0-.4,3.92,17.9,17.9,0,0,1-1.31,6.61c-.75,2.2-1.72,4.33-2.47,6.53a24.372,24.372,0,0,0-.57,3.33q-.62,3.34-1.28,6.67a17.1,17.1,0,0,1-.43,1.71c-.93,3-1.81,6-2.81,9-.71,2.09-1.54,4.14-2.38,6.18-.5,1.19-1.18,2.3-1.68,3.5-.64,1.53-1.19,3.1-1.76,4.67A33.179,33.179,0,0,1,83,169a28.839,28.839,0,0,0-2,5.33c-.56,1.61-1.24,3.18-1.87,4.78-1,.56-.9,1.88-1.74,2.61s-1.46,1.58-2.22,2.34a2.64,2.64,0,0,1-.9.46c-.15.06-.41,0-.5.07-1.35,1.4-3.15,1.32-4.81,1.23a32,32,0,0,0-4,.11,5.43,5.43,0,0,1-4-1.31c-.84-.7-1.66-1.6-2.76-1.32-2.37-2.15-4.61-4.19-6.87-6.21a4.21,4.21,0,0,1-1.13-1.76,20.169,20.169,0,0,0-1.93-3.53c-.59-.9-1.4-1.64-2-2.51a3.42,3.42,0,0,1-.81-2.11,3.33,3.33,0,0,0-.9-2.05,4.49,4.49,0,0,1-1.24-2.78,2,2,0,0,0-.53-1.09c-.56-.53-.58-1.12-.51-2.12l1,1.74c.11-1.6-1.09-2.64-.71-4.11.67.43,1.29,1,2.16.51,0-.13.16-.35.1-.45A14.09,14.09,0,0,1,43.62,153a20.66,20.66,0,0,0-1-2.63,7,7,0,0,1,.78.67c1,1.39,2.07,2.79,3.11,4.17a9.38,9.38,0,0,0,2.58,2.64A13.18,13.18,0,0,1,52.17,161a3.71,3.71,0,0,0,3.43,1.51,20.491,20.491,0,0,1,3.23,0,5.93,5.93,0,0,0,3.23-.86A3.34,3.34,0,0,0,63.64,160a146.61,146.61,0,0,0,6-14.59c1.12-3.4,2.27-6.79,3.27-10.23.73-2.52,1.27-5.09,1.83-7.66.21-1,.17-2,.34-3,1.15-6.89,2.71-13.71,4.32-20.51.33-1.38.49-2.8.75-4.32-.41,0-.74-.09-.83,0-1,1.26-2.6,1.4-3.91,2-1.12.56-2.31,1-3.43,1.52A13.74,13.74,0,0,1,67.15,105a2,2,0,0,0-.85.26,14.75,14.75,0,0,1-5,1.77,10.43,10.43,0,0,0-6.35,4,5.07,5.07,0,0,0-1.1,2.21c-.25,1.61-1.31,2.8-1.91,4.21-.28.65-.52,1.31-.8,2-.17.38-.36.76-.55,1.12s-.35.38-.39.6c-.42,2.5-1.73,4.63-2.72,6.91a35,35,0,0,1-2.83,5.34,17.39,17.39,0,0,0-1.32,3.13,21.5,21.5,0,0,1-4.21,6.57,44.142,44.142,0,0,0-3,4c-.35.47-.57,1-1.24,1.21a1.9,1.9,0,0,0-.7.55c-1.33,1.32-2.64,2.67-4,4A30.181,30.181,0,0,0,26,157.21a3.85,3.85,0,0,1-.75.76,36.07,36.07,0,0,0-4.61,4.72,6.341,6.341,0,0,1-1.22,1c-1,.7-2.05,1.36-3.07,2.05-.15.09-.27.3-.42.31-1.8.16-2.84,1.62-4.23,2.46s-2.73,1.91-4.09,2.86A27.766,27.766,0,0,1,5.19,173c-1.07.66-2.17,1.25-3.25,1.89A1.65,1.65,0,0,1,0,175c1-.95,2.27-1.7,2.81-3,1.27-.28,1.46-1.68,2.42-2.36a13.189,13.189,0,0,0,2.19-2.82c.73-.95,1.48-1.88,2.25-2.81,1.29-1.56,2.63-3.1,3.9-4.69,1.07-1.35,2.06-2.78,3.1-4.16,3.23-4.31,6.51-8.58,9.67-12.94,1.33-1.84,2.42-3.84,3.61-5.78,1.7-2.75,3.44-5.48,5.06-8.28,1.26-2.17,2.38-4.42,3.52-6.65a27,27,0,0,0,1.65-3.59c.67-2,1.18-4,1.74-6A4,4,0,0,0,41.93,111Z" transform="translate(16778 -11619.997)"/><path d="M272.6,172.67,274,172a61.426,61.426,0,0,0-.5-9,23.657,23.657,0,0,1-.25-3c-.1-6.23.38-12.45.75-18.67.24-3.94.41-7.89.6-11.84a2.3,2.3,0,0,0-.15-.59c-1.35-.16-2.7.37-4-.05s-2.63-.67-4.05-1a12.39,12.39,0,0,0-.57,2.19,20.84,20.84,0,0,1-1.79,6.33c-1.05,2.64-1.93,5.33-2.75,8.06-.61,2-1,4.17-2.2,6-.56.86-.51,2.12-1.06,3a12.71,12.71,0,0,0-1.09,2.67,51.068,51.068,0,0,1-4.1,9.11c-.59,1-1.27,2-1.89,3.05a9.362,9.362,0,0,0-.65,1.26,7.68,7.68,0,0,1-2.37,3.23,12,12,0,0,0-2.31,2.87,6.39,6.39,0,0,1-2.87,2.6,6.448,6.448,0,0,0-.93.51c-.91.58-.93.58-1.92-.41a7.62,7.62,0,0,1,1-2.52,32.619,32.619,0,0,0,1.93-4.64c.5-1.27.95-2.57,1.42-3.85,1.14-3.09,2.31-6.16,3.4-9.26s2.24-6.44,3.31-9.68c1.3-3.94,1.76-8.06,2.46-12.13q.66-3.81,1.27-7.62c.46-2.89,1-5.77,1.34-8.67a163.254,163.254,0,0,0,1.17-19.15c0-2.92.34-5.85.48-8.79.08-1.49.11-3,.05-4.48a5.05,5.05,0,0,0-.54-1.69,13.365,13.365,0,0,1-.79-1.61,8.93,8.93,0,0,0-3.3-5,3.37,3.37,0,0,1-1.33-2.11c3.26-.48,6.42-.82,9.42.82a2.46,2.46,0,0,0,2.09.13c1.17-.42,2.42-.68,3.55-1.19a33.219,33.219,0,0,1,8.78-2.48,4,4,0,0,0,1.05-.19,4.14,4.14,0,0,1,3.63.24c.87.39,1.72.84,2.55,1.31a2.92,2.92,0,0,1,1.14.85c1.13,1.89,3,3.06,4.44,4.67a11.33,11.33,0,0,1,2.48,4.2c-.7,1.8-1.41,3.68-2.17,5.55-.23.54-.72,1-.89,1.53-.36,1.13-.46,2.35-.88,3.45-.78,2-.55,4.22-.94,6.31a1.49,1.49,0,0,0,.07.69,25.2,25.2,0,0,1,.75,7.64c0,2.14-.11,4.28-.19,6.43a17.127,17.127,0,0,1-.15,2.15,37.223,37.223,0,0,0-.62,6.41,3.24,3.24,0,0,1-.09,1.25c-1.42,3.59-1,7.25-.53,10.93.3,2.19.46,4.39.71,6.59.37,3.26.76,6.53,1.14,9.79a18.159,18.159,0,0,1,.2,2.32,38.5,38.5,0,0,0,.5,6.61,10.558,10.558,0,0,1,.05,2.45A32,32,0,0,0,288,172a33.9,33.9,0,0,1,.09,3.77,37.817,37.817,0,0,0,.86,5.09,8.48,8.48,0,0,1-.88,5.53,1.77,1.77,0,0,1-.45.56,4.62,4.62,0,0,0-1.77,2.38,1.48,1.48,0,0,1-1.07.84c-1,.05-2.11.74-3.1-.14a.66.66,0,0,0-.5-.16c-1.47.23-2.44-.71-3.58-1.35a25.291,25.291,0,0,0-4.28-1.83,4.88,4.88,0,0,1-2.4-1.7,13.91,13.91,0,0,1-2.46-5.09c-.48-1.73-.95-3.47-1.58-5.14-.48-1.28-1.21-2.46-1.81-3.69a21.377,21.377,0,0,1-1-2.3c-.24-.71.09-1.14.87-1.19a6.17,6.17,0,0,1,4,1.43,10.21,10.21,0,0,1,3.66,3.66Zm4.64-74,.59-5c.21-1.78.47-3.56.61-5.35s.86-3.33.76-5.07c-1.18,0-1.16,0-1.72.39-1.49,1-2.72,2.33-4.56,2.71a20.465,20.465,0,0,0-2,.62,1.78,1.78,0,0,0-.8.35c-.4.49-.94.44-1.46.52a7.169,7.169,0,0,0-.91.24c.57.87,1.07,1.61,1.56,2.35a3.19,3.19,0,0,1,.71,2.17c-.22,1.82.33,3.6.14,5.36ZM275.44,119c.35-3.53.93-6.81,1.07-10.1-1.46-.06-2.75-.07-4-.17s-2.67-.3-4.12-.47c-.9,4-.27,7.9-1.05,11.73a36.005,36.005,0,0,1,4-1,35.588,35.588,0,0,1,4.1.01Z" transform="translate(16778 -11619.997)"/><path d="M350.08,106.14c2.3,1.89,4.35,3.64,6.46,5.31s4.2,3.18,6.27,4.8a43.579,43.579,0,0,0,7.52,4.54c1.55.77,3.05,1.65,4.63,2.36a14.29,14.29,0,0,0,5.16,1.4,16.219,16.219,0,0,1,5.11,1.58c1.78.71,3.59,1.33,5.36,2.05a22.331,22.331,0,0,1,3.92,1.76,69.932,69.932,0,0,0,8.51,4.19,37,37,0,0,1,4.23,2.34c1.2.77,1.15,1.43.13,2.43A3.53,3.53,0,0,1,405,140a11.54,11.54,0,0,0-1.9.42c-.23.06-.45.19-.68.23a14,14,0,0,0-5.13,1.84,5.73,5.73,0,0,1-2.88.78,1.578,1.578,0,0,0-1.75,1c-.86-.34-1.7-.91-2.7-.4-.2.1-.56-.09-.85-.14-.52-.08-1.05-.15-1.56-.25s-.9-.21-1.35-.34c-.16-.05-.32-.26-.46-.24-1.48.21-2.62-.72-3.88-1.17a35.056,35.056,0,0,1-3.7-1.8A106.413,106.413,0,0,1,368,134.14a30.239,30.239,0,0,1-2.77-2c-3.66-3-7.3-6-10.21-9.82-2.26-3-4.54-5.88-6.91-8.72-1.92-2.3-4-4.45-6.09-6.77-1.82.53-3.65,1-5.46,1.59-1.2.36-2.38.71-3.61,1a12.32,12.32,0,0,0-7.75,4.73,34.8,34.8,0,0,1-4,4.09c-1.24,1.21-2.53,2.37-3.76,3.59-.89.89-1.73,1.83-2.54,2.78-.64.76-1.12,1.67-1.8,2.38-1.94,2-4,4-5.92,6a15.509,15.509,0,0,1-2.32,1.88,33.077,33.077,0,0,0-2.7,2.3c-1.23,1-2.48,2-3.73,3-1.43,0-1.88,1.28-2.68,2.12a2.27,2.27,0,0,1-2.25.8c-.29-.08-.4-.19-.7,0a3.31,3.31,0,0,1-1.22.16c-.37,1.18-1.24,1.53-2.49,1.11a1.05,1.05,0,0,1,.32-1.64,13.4,13.4,0,0,0,3.27-3.71,33.442,33.442,0,0,1,3.63-4.45c2.71-3,5.49-6,8.18-9.07,1.22-1.39,2.3-2.91,3.44-4.37a22.727,22.727,0,0,0,1.41-1.86c.57-.88,1.08-1.8,1.68-2.81-4.32-1.78-7.66-4.3-7.63-9.57,1.28.69,2.49,1.3,3.66,2a2,2,0,0,0,1.71.24c.69-.21,1.39-.37,2.07-.6,2.5-.82,5-1.69,7.49-2.48a3,3,0,0,0,1.88-1.51,14.541,14.541,0,0,0,2-5.31,19.78,19.78,0,0,1-5.86-3,29.508,29.508,0,0,1-4.71-5c1.44.08,2.62.08,3.78.24a12,12,0,0,0,4.46,0,27.47,27.47,0,0,1,3.14-.36c-.54-.49-.81-.91-1.19-1.06-3.61-1.4-5.9-4.19-7.79-7.37a8.14,8.14,0,0,1-.9-2.69c-.47-2.76-.84-5.53-1.28-8.47,2.05.3,4.15.13,6,1.48a50.651,50.651,0,0,1,7,6.13,26,26,0,0,1,1.81,2.52c.91-4.9,1.82-9.65,2.68-14.4a28.848,28.848,0,0,0,.33-3.21,5,5,0,0,0-.87-3.23,6,6,0,0,1-1-2.84c-.11-1-.36-1.87-.56-2.87.42-.3.89-.1,1.4.14,3.94,1.83,6.94,4.82,9.8,8a2.78,2.78,0,0,1,.84,2.46,13.68,13.68,0,0,0-.15,1.42c0,.48-.25,1-.09,1.42.6,1.47,0,3,.2,4.43a4,4,0,0,1-.11,1.23c-.26,1.45-.54,2.9-.83,4.47,1.64-1.47,8.41-10.51,9.09-12.13l-3.54-5.28a20.22,20.22,0,0,1,7.45.77,5.38,5.38,0,0,1,1.77,1.18c1.57,1.38,3.09,2.81,4.62,4.23a6.11,6.11,0,0,1,1.07,1.21,2.54,2.54,0,0,1,.28,2.86,2.6,2.6,0,0,0-.37,1.19c-.12,2.15-1.4,3.41-3.19,4.36-.93.51-1.79,1.16-2.68,1.75a23,23,0,0,0-3.22,2.48,6.48,6.48,0,0,1-3.18,1.86,6.93,6.93,0,0,0-1.54.7c1.41.74,2.74,1.4,4,2.12,1,.56,1.95,1.18,2.9,1.79A3.38,3.38,0,0,1,353,92.5a2.26,2.26,0,0,1-1.11.82c-1,.37-2,.66-3.06,1-1.78.5-3.54,1.07-5.35,1.45a10.8,10.8,0,0,0-4.23,1.67c1.19,1.25,2.32,2.3,4.29,1.64a41.649,41.649,0,0,1,4.19-.93,1.71,1.71,0,0,0,.8-.34c.91-1,2.17-1.19,3.29-1.74a5.2,5.2,0,0,1,5.1.3c2.42,1.29,4.94,2.42,6.91,4.45a1.76,1.76,0,0,1,.37,2.52,5.29,5.29,0,0,0-.39,1,2.43,2.43,0,0,1-2.77,1.42,18.46,18.46,0,0,0-7.08-.6,9.27,9.27,0,0,0-3.88.98Zm-17.45-4.43,4.93-1.18-2.05-2.69A4.56,4.56,0,0,0,332.63,101.71ZM342.14,85a3.6,3.6,0,0,0-3.05.53A2.7,2.7,0,0,0,337.83,87,6.83,6.83,0,0,0,342.14,85Z" transform="translate(16778 -11619.997)"/><path d="M194.27,91.44a5.54,5.54,0,0,0-4.09-.18c-.41.18-1,0-1.43.11a42.817,42.817,0,0,0-4.38.83,27.17,27.17,0,0,0-5.73,2.43c-1.45.8-2.85,1.66-4.28,2.48a16,16,0,0,1-2.84,1c-.72.25-1.45.51-2.18.73a13.9,13.9,0,0,1-2.57.67,5,5,0,0,0-1.86.53,29.889,29.889,0,0,1-3.09,1.39,1.84,1.84,0,0,1-.87.14,28.67,28.67,0,0,1-12-3.41c-1.88-1-3.7-2.21-5.56-3.29-.77-.44-1.59-.79-2.63-1.31l1.69-.25L142,91.82c2.4-1,4.8-.53,7.2,0a5.488,5.488,0,0,1,.69.21,5.42,5.42,0,0,0,4.15-.32c2.41-1,5-1.73,7.44-2.6s4.72-1.71,7.08-2.57c3.6-1.29,7.2-2.59,10.81-3.87a34.53,34.53,0,0,1,6.53-1.87c1.19-.17,2.36-.4,3.54-.59,1.41-.22,2.83-.42,4.24-.66a2.32,2.32,0,0,0,1-.33,3.18,3.18,0,0,1,3.57,0,36.728,36.728,0,0,1,4,2.47c1.36,1,2.64,2.07,3.94,3.12,1.49,1.18,3,2.3,3.4,4.38.29,1.5,1.55,2.47,2.38,3.68.51.74,1,1.49,1.57,2.18a5,5,0,0,1,.87,5.12,8,8,0,0,0-1,.61,10,10,0,0,0-3.31,4.76,83.9,83.9,0,0,1-3.34,8.26c-1,2.27-1.8,4.62-2.61,7-.86,2.51-1.54,5.1-2.46,7.6-.71,1.93-1.66,3.77-2.52,5.64a2.2,2.2,0,0,1-.54.71,7.1,7.1,0,0,0-1.49,2.61c-.94,2-2,3.92-3.06,5.84-.89,1.63-2.23,2.87-3.24,4.37a24,24,0,0,1-2.55,2.76c5,.43,8.59,3.32,12.17,6.25.69.57,1.37,1.16,2.05,1.74a24,24,0,0,1,5.58,6.69c.43.78,1,1.48,1.54,2.32a6.8,6.8,0,0,1-.55,1.24c-.49.67-1.12,1.24-1.58,1.93-1.43,2.1-3.47,2-5.6,1.65-1-.16-2-.36-3-.52a9.451,9.451,0,0,1-1.07-.1c-3.53-.9-7.06-1.8-10.58-2.74a23.32,23.32,0,0,1-6.51-2.92,27.461,27.461,0,0,0-6.41-2.76c-3.12-1-6.35-1.68-9.53-2.51a32.16,32.16,0,0,1-3.26-1,6.86,6.86,0,0,1-3-1.95,4.42,4.42,0,0,1-.84-1.55.87.87,0,0,1,.71-1.22,2.7,2.7,0,0,0,1.9-1.21,11.17,11.17,0,0,1,6.52-4.17,14.77,14.77,0,0,1,3.75-.24c2.48.2,4.32-.6,5.46-2.87.32-.64.75-1.23,1.06-1.87,1.81-3.78,3.49-7.63,5.43-11.33a54.21,54.21,0,0,0,4.21-11.44c1.88-7.11,3.69-14.24,5.58-21.35.61-2.31,1.36-4.59,2.07-6.87C194.65,92.8,195,92.13,194.27,91.44Z" transform="translate(16778 -11619.997)"/><path d="M344.36,25.34a1.66,1.66,0,0,0,1.94,0,4.51,4.51,0,0,1,4.44.33,24.47,24.47,0,0,1,5.61,3.81A4.08,4.08,0,0,1,357.49,34c-.22.61-.38,1.24-.58,1.9a3.84,3.84,0,0,1-.93.51,3,3,0,0,0-1.56,1.12A11.351,11.351,0,0,1,353,38.76l.36.49c-.06.09-.1.23-.18.26A18.78,18.78,0,0,1,346.93,41a1.91,1.91,0,0,0-.52.14q-5.43,1.5-10.87,3c-1,.26-2,.34-3.05.52a35.191,35.191,0,0,1-5.16,6.5c-.6.56-1.15,1.19-1.71,1.8-2.14,2.34-4.82,4.07-7.06,6.3-1.4,1.39-3.05,2.44-4.53,3.72a12.5,12.5,0,0,0-1.23,1.29,97,97,0,0,1-7.88,8.33,24.539,24.539,0,0,1-2.54,2,5,5,0,0,1-3.36.83c3.53-2.4,5.61-6.05,8.34-9.11.52-.58,1.13-1.07,1.6-1.67.74-.94,1.38-1.94,2.08-2.91a90.879,90.879,0,0,0,7.21-11.37,22.942,22.942,0,0,1,1.43-2.16c-4.44.63-8.75,1.22-13,1.85s-8.7,1.3-13.09,2c-.82,1.82-2.12,3.44-2.44,5.51,0,.17-.21.34-.19.49.22,2.54-1,4.93-.68,7.49a4.34,4.34,0,0,1-.69,3,3.42,3.42,0,0,0-2.48,2.23l-4-.81a14.08,14.08,0,0,1-4.48-8.84c-.22-1.84-.31-3.7-.47-5.55-.06-.82-.15-1.65-.24-2.67a3.44,3.44,0,0,1-3.43-.55c-2.45-1.49-4.91-3-7.35-4.5A8.739,8.739,0,0,1,265,46.21a34.32,34.32,0,0,0-5-4.29l-2.8-2.28a1.31,1.31,0,0,1,1.48-.61c.71.08,1.42.22,2.13.28a10.55,10.55,0,0,0,2.5.13,7.26,7.26,0,0,1,4.68.83,5.22,5.22,0,0,0,3.46.51c1.07-.15,2.15-.15,3.23-.23,1.3-.09,2.61-.2,4-.32a13.362,13.362,0,0,0,.23-1.68c0-3.77.06-7.55.08-11.33a2.83,2.83,0,0,0-.58-1.83A27.279,27.279,0,0,1,277,22.94c-.48-.82-.95-1.66-1.46-2.47a1.59,1.59,0,0,1-.33-1.55,13.17,13.17,0,0,0,1.51-.17c2.11-.46,4.18,0,6.25.26a3.66,3.66,0,0,1,1.62.73c1.39,1,2.72,2.16,4.07,3.25.88.71,1.74,1.44,2.64,2.13,1.37,1.05,2.69,2.15,4,3.26a9.72,9.72,0,0,1,2.3,2.93,1.84,1.84,0,0,1-.37,2.44c-1.19,1.07-1.6,2.57-2.3,4.17,1.28-.11,2.33-.18,3.37-.3A110.429,110.429,0,0,0,316.17,34c2.69-.77,5.36-1.58,8.05-2.34a8.869,8.869,0,0,1,2.08-.44A1.64,1.64,0,0,0,327.86,30a23.991,23.991,0,0,0,.82-2.57c1.24-5,2.45-10,3.67-15,.08-.35.19-.69.24-1,.38-2.49.38-2.49-1.26-4.51a7.58,7.58,0,0,1-1.56-3.39c-.15-.76-.26-1.53-.4-2.41l.81-.16L329.9.13c.12-.06.23-.15.31-.13,1,.22,2,.42,3,.68a4.85,4.85,0,0,0,3,0,2.74,2.74,0,0,1,2.43.33A18,18,0,0,1,341.17,3c1.9,1.9,3.75,3.87,5.57,5.85A26.4,26.4,0,0,1,349.36,12a16.6,16.6,0,0,1,1.42,3,1.29,1.29,0,0,1-.08,1,13.521,13.521,0,0,1-1.95,2.24,2.28,2.28,0,0,0-.84,1.08,9.69,9.69,0,0,1-2.83,4.87,4.28,4.28,0,0,0-.72,1.15Z" transform="translate(16778 -11619.997)"/><path d="M122.5,82.69a4.27,4.27,0,0,1,1,.09,7,7,0,0,1,1.31.59c4.15,2.47,8.62,4.44,12.2,7.81.91.86,2,1.55,2.89,2.41a29.368,29.368,0,0,1,3.42,3.64,10.8,10.8,0,0,1,2.27,5.93,36.181,36.181,0,0,0,.85,4.56q.7,3.78,1.37,7.57c.09.57,0,1.16.07,1.74a18.76,18.76,0,0,0,.88,4,11.1,11.1,0,0,1,.18,2.46v1.07a13.67,13.67,0,0,1-.38,5.13,5.09,5.09,0,0,0-.08,1.56c.19,2.68.42,5.36.63,8a1.088,1.088,0,0,1,0,.18,24.93,24.93,0,0,0,1,9.56,30.13,30.13,0,0,0,1.75,5.24c.68,1.4,1.28,2.83,1.94,4.24a12.627,12.627,0,0,0,.76,1.4q1.91,3,3.83,6c-.17.79-1.3,1-1.11,2,0,.12-.17.32-.31.42-1.29.93-2.52,2-4.21,2.15a3.1,3.1,0,0,1-1.9-.28c-1-.76-2.13-.71-3.15-1.16a27.131,27.131,0,0,1-2.76-1.21c-1.45-.83-2.81-1.81-4.25-2.65a2.51,2.51,0,0,1-1.31-2.56,5,5,0,0,0-.55-2.59,52,52,0,0,1-4.11-12.4c-1.1-5.82-2.14-11.65-3.19-17.48a19.581,19.581,0,0,1-.32-2.85,85.15,85.15,0,0,0-1.91-14.21c-.9-4.33-1.5-8.72-2.23-13.09a32.25,32.25,0,0,0-2.87-9A5.73,5.73,0,0,1,123.5,88a8.64,8.64,0,0,0-.67-4A8.4,8.4,0,0,1,122.5,82.69Z" transform="translate(16778 -11619.997)"/><path d="M322.12,183.42l.64-.87c-.1-.28-.2-.55-.31-.82.11,0,.25-.12.32-.08,1.17.66,2.53.93,3.58,1.92.39.37,1.35.15,2.16.21.23-2.4.71-4.62.41-6.9-.23-1.72-.45-3.45-.67-5.17a81.336,81.336,0,0,1-.12-12.39,122.257,122.257,0,0,0-.47-17.95,59.776,59.776,0,0,1,0-11c.08-1.31.16-2.63.22-3.94a7.41,7.41,0,0,0-.79-4,14.5,14.5,0,0,1-.86-3.28c-.16-.62-.34-1.24-.53-1.93a7,7,0,0,1,3.21.63,7.63,7.63,0,0,0,1.7.54,5.89,5.89,0,0,1,3.74,2c1.63,1.67,3.26,3.34,4.86,5a11,11,0,0,1,2.86,5c-.25.82-.43,1.56-.7,2.26-.7,1.82-.69,3.9-2,5.49a1.3,1.3,0,0,0-.22.66c-.33,3.27-.76,6.53-.94,9.81-.12,2.37.12,4.75.17,7.13.05,2.81,0,5.63.11,8.43s.45,5.71.54,8.57c.14,5,1.18,9.84,1.25,14.82a62.133,62.133,0,0,1-.36,8.19,3.76,3.76,0,0,1-2.1,3.09c-.83.47-1.62,1-2.46,1.44a2.09,2.09,0,0,1-1.33.29c-2-.47-3.89-1.07-5.13-2.89-.71-1-1.49-2-2.27-3-.66-.83-1.35-1.64-2.05-2.42a3.8,3.8,0,0,1-1.08-2.4,1.36,1.36,0,0,0-.07-.35,14,14,0,0,1-1-2.49,17.62,17.62,0,0,1,0-2.62,3.92,3.92,0,0,0-.31-.98Z" transform="translate(16778 -11619.997)"/><path d="M311,180.67c-.05.05-.24.19-.41.35-1.65,1.52-2.86,1.72-4.79.54s-3.58-2.39-5.3-3.68c-1.13-.84-1.35-1.59-.51-3a6.5,6.5,0,0,0,.64-4,9.41,9.41,0,0,1,2.24-6.61c2-2.42,4.09-4.88,4.66-8.16.07-.41.18-.81.26-1.22a2.72,2.72,0,0,0-1-2.87c-1.25-1-2.37-2.19-3.58-3.26a4.2,4.2,0,0,1-1.58-3.48c.08-.07.18-.22.24-.21.78.16,1.11-1,2.07-.6a5.59,5.59,0,0,0,2.13.07c4.17-.07,4.21-.43,8.59,2.77,1.88,1.37,3.69,2.85,5.54,4.27a10.72,10.72,0,0,1,3.34,4.34c.38.89.27,1.16-.6,1.7a2.6,2.6,0,0,0-1.14,1.05c-.67,1.75-2.06,2.91-3.26,4.23a20.77,20.77,0,0,0-4.3,6.32c-.79,2.05-1.43,4.16-2.12,6.25-.25.79-.51,1.58-.69,2.39S311.15,179.64,311,180.67Zm-5.58-13.24c.42.94.72,1.63,1.06,2.41,1.5-.5,2.48-1.6,3.63-2.41s2.27-1.74,3.42-2.59,2.32-1.69,3.47-2.54a25.58,25.58,0,0,0,3.63-2.56,6.39,6.39,0,0,1-3.39-.63,17.12,17.12,0,0,0-2.28-1,1.62,1.62,0,0,0-2.33.53c-.46.54-.79,1.21-1.29,1.7-1.52,1.48-3.2,2.79-4.29,4.68a26.291,26.291,0,0,1-1.64,2.41Z" transform="translate(16778 -11619.997)"/><path d="M349.88,162.17a14.75,14.75,0,0,1,7.12,1.88,4.43,4.43,0,0,0,2.54.62,7.52,7.52,0,0,1,2.29.3,22.74,22.74,0,0,1,9.88,5.6,60.267,60.267,0,0,1,6.12,6.05,6,6,0,0,1,1.63,3.48c.06.85.83,1.64.27,2.57l-1.53,1.47a3.52,3.52,0,0,1-3.6,1,36.369,36.369,0,0,1-8.64-3.79,29.87,29.87,0,0,1-6.21-4.23c-1.57-1.47-3.21-2.89-3.89-5.06a6.569,6.569,0,0,0-.9-1.32c-1.46-2.26-2.92-4.52-4.35-6.8A14.776,14.776,0,0,1,349.88,162.17Z" transform="translate(16778 -11619.997)"/><path d="M344.61,147.56c2.19-.68,3.1-2.27,4.26-3.59q2.91-3.32,5.87-6.57c.45-.5.66-1,.26-1.58a6,6,0,0,1,3.32-1.06,4.14,4.14,0,0,1,3.53,1.37c.91,1,1.71,2,2.56,3s1.67,2,2.53,3a4.24,4.24,0,0,1,1.22,4.25,12.69,12.69,0,0,1-7.5,1.85,42,42,0,0,1-5-.27c-1.11-.16-2.34,0-3.52-.12a11.63,11.63,0,0,0-3.93.22,3.25,3.25,0,0,1-1.24.07C346.32,148,345.67,147.83,344.61,147.56Z" transform="translate(16778 -11619.997)"/></g></svg>