<svg width="148" height="131" viewBox="0 0 148 131" fill="none" xmlns="http://www.w3.org/2000/svg">
<g filter="url(#filter0_d_721_3718)">
<path d="M95.3129 40.1L95.8689 41.455L122.61 30.775L122.8 30.667C123.036 30.5706 123.301 30.572 123.536 30.6708C123.772 30.7696 123.958 30.9578 124.055 31.194L124.06 31.209C124.065 31.2722 124.065 31.3358 124.06 31.399L126.12 27.834L95.3129 40.1ZM51.2229 47.189C51.1918 46.2692 51.4739 45.3661 52.0228 44.6275C52.5718 43.8889 53.3552 43.3584 54.2449 43.123C57.7959 42.174 60.8449 43.286 61.5099 42.594C62.1749 41.902 61.3099 40.873 61.3099 40.873L38.3779 12.873C38.1281 12.5656 38.0106 12.1716 38.0513 11.7776C38.092 11.3835 38.2875 11.0218 38.5949 10.772C38.9023 10.5222 39.2963 10.4047 39.6903 10.4454C40.0844 10.4861 40.4461 10.6816 40.6959 10.989C40.764 11.0778 40.823 11.1733 40.8719 11.274L64.4009 39.874L66.1489 38.519L51.5209 21.085C51.1619 20.5881 51.0056 19.9732 51.0837 19.3652C51.1618 18.7572 51.4685 18.2017 51.9414 17.8117C52.4143 17.4217 53.018 17.2264 53.6298 17.2654C54.2415 17.3045 54.8154 17.575 55.2349 18.022C55.3453 18.1606 55.4409 18.3104 55.5199 18.469L71.4579 37.5L72.6369 36.673L62.8789 23.389C62.6216 23.0003 62.5245 22.5272 62.608 22.0685C62.6915 21.6099 62.9491 21.2013 63.3269 20.9283C63.7047 20.6552 64.1735 20.5388 64.6351 20.6034C65.0968 20.6681 65.5156 20.9087 65.8039 21.275C65.8852 21.3817 65.9494 21.5005 65.9939 21.627L76.6359 36.089L78.1269 35.452L76.6629 24.3C76.6437 24.14 76.6885 23.979 76.7876 23.8519C76.8867 23.7249 77.0321 23.6422 77.1919 23.622L78.5469 23.446C78.7034 23.4245 78.862 23.4656 78.9883 23.5603C79.1147 23.6551 79.1986 23.7958 79.2219 23.952V23.975L80.6719 34.994L81.5119 34.831L80.0239 23.687C80.0044 23.5292 80.0474 23.3699 80.1436 23.2433C80.2398 23.1166 80.3816 23.0326 80.5389 23.009L81.8939 22.833C82.0504 22.8115 82.209 22.8526 82.3353 22.9473C82.4617 23.0421 82.5456 23.1828 82.5689 23.339V23.362L84.0039 34.354L84.8579 34.205L83.4039 23.077C83.382 22.9213 83.4222 22.7632 83.5157 22.6368C83.6092 22.5103 83.7486 22.4257 83.9039 22.401H83.9149L85.2699 22.225C85.4278 22.2055 85.587 22.2484 85.7136 22.3446C85.8403 22.4408 85.9243 22.5827 85.9479 22.74L87.3579 33.718L90.5299 32.756L107.404 25.978L107.604 25.87C107.84 25.7736 108.105 25.775 108.34 25.8738C108.576 25.9726 108.762 26.1608 108.859 26.397L108.864 26.412C108.957 26.6529 108.95 26.9207 108.846 27.1568C108.742 27.3929 108.548 27.5782 108.308 27.672L92.6939 33.972L93.2499 35.327L118.256 25.327L118.456 25.219C118.697 25.1262 118.965 25.1327 119.201 25.2369C119.437 25.3411 119.622 25.5346 119.716 25.775C119.811 26.0119 119.808 26.2768 119.708 26.5115C119.608 26.7463 119.419 26.9317 119.182 27.027L119.16 27.035L93.9909 37.035L94.5469 38.39L127.704 25.151L138.724 6H9.00391L35.2439 51.458L51.2229 47.189Z" fill="white"/>
</g>
<g filter="url(#filter1_d_721_3718)">
<path d="M96.6162 43.2005L97.1722 44.5555L114.29 37.7105L114.49 37.6025C114.729 37.5177 114.991 37.5289 115.221 37.6336C115.452 37.7384 115.633 37.9285 115.726 38.1639C115.819 38.3993 115.817 38.6617 115.72 38.8957C115.624 39.1297 115.44 39.3171 115.208 39.4185L96.7082 46.7105C93.0762 48.1605 92.8322 48.3235 92.8322 48.3235L93.3322 48.6085L93.9962 48.8935L100.068 51.4825C100.215 51.5482 100.331 51.6681 100.391 51.8172C100.452 51.9662 100.453 52.1329 100.393 52.2825L99.8642 53.5155C99.7985 53.6623 99.6786 53.7781 99.5295 53.8387C99.3804 53.8992 99.2137 53.8999 99.0642 53.8405L93.6472 51.5095L93.3222 52.2955L98.1332 54.3425C98.2786 54.4043 98.3938 54.5209 98.4537 54.6672C98.5137 54.8134 98.5135 54.9774 98.4532 55.1235L98.4452 55.1425L97.9162 56.3755C97.8923 56.4521 97.8535 56.5233 97.802 56.5849C97.7505 56.6465 97.6874 56.6973 97.6162 56.7345C97.5451 56.7716 97.4673 56.7944 97.3873 56.8014C97.3073 56.8085 97.2268 56.7996 97.1502 56.7755C97.1342 56.7703 97.1186 56.7643 97.1032 56.7575L92.8472 54.9415L92.4952 55.7005L96.1412 57.2595C96.2152 57.2905 96.2824 57.3358 96.3388 57.3929C96.3952 57.4499 96.4398 57.5176 96.47 57.5919C96.5002 57.6662 96.5154 57.7458 96.5148 57.8261C96.5141 57.9063 96.4976 57.9856 96.4662 58.0595L95.9372 59.2925C95.8715 59.4393 95.7516 59.5551 95.6025 59.6157C95.4534 59.6762 95.2867 59.6769 95.1372 59.6175L88.3622 56.7295C88.0102 56.5805 87.7522 55.8625 87.7522 55.8625C87.7522 55.8625 85.3522 50.6175 85.0412 50.0345C84.7302 49.4515 84.6892 49.3435 84.0522 49.4785L81.1112 50.1425C80.9117 50.1702 80.7313 50.2761 80.6098 50.4368C80.4883 50.5975 80.4356 50.7999 80.4632 50.9995C80.4727 51.0636 80.4898 51.1264 80.5142 51.1865L85.0952 62.0295C85.2819 62.3742 85.324 62.7791 85.2122 63.1549C85.1005 63.5307 84.844 63.8467 84.4992 64.0335C84.1544 64.2202 83.7496 64.2623 83.3738 64.1505C82.9979 64.0387 82.6819 63.7822 82.4952 63.4375C82.4478 63.3517 82.4096 63.2612 82.3812 63.1675C82.3414 63.0627 82.3142 62.9536 82.3002 62.8425L76.5702 49.3675C76.5702 49.3675 75.9872 48.2565 75.4322 48.5005C74.8772 48.7445 75.2322 49.8555 75.2322 49.8555L83.4732 71.6635C83.541 71.8421 83.5726 72.0324 83.5662 72.2233C83.5598 72.4143 83.5156 72.602 83.4361 72.7757C83.3566 72.9495 83.2434 73.1057 83.1031 73.2353C82.9627 73.3649 82.798 73.4654 82.6186 73.5308C82.4391 73.5963 82.2484 73.6255 82.0575 73.6167C81.8667 73.6079 81.6795 73.5613 81.5068 73.4796C81.3341 73.3979 81.1794 73.2827 81.0516 73.1407C80.9237 72.9987 80.8254 72.8327 80.7622 72.6525C80.7254 72.5614 80.7025 72.4653 80.6942 72.3675L73.2532 52.6875C73.2532 52.6875 72.6022 50.5875 71.8982 50.8445C71.1942 51.1015 71.8172 52.3445 72.0202 52.8775L72.1152 53.0945L83.9302 82.0854C84.0409 82.2537 84.1128 82.4445 84.1405 82.6439C84.1682 82.8434 84.1511 83.0465 84.0904 83.2386C84.0298 83.4306 83.927 83.6067 83.7898 83.7541C83.6525 83.9014 83.4841 84.0163 83.2968 84.0904C83.1096 84.1645 82.9081 84.1959 82.7072 84.1823C82.5063 84.1688 82.3109 84.1106 82.1353 84.0121C81.9597 83.9135 81.8082 83.7771 81.6919 83.6126C81.5757 83.4482 81.4975 83.2599 81.4632 83.0615C81.451 82.9759 81.451 82.889 81.4632 82.8035L69.7232 54.0435C69.2632 52.8813 68.5843 51.8184 67.7232 50.9125C66.6392 50.0175 56.3522 50.9125 56.3522 50.9125C55.5918 51.1209 54.7872 51.1039 54.0364 50.8633C53.2855 50.6227 52.6208 50.169 52.1232 49.5575L36.5332 53.7185L73.8732 118.355L123.465 32.4395L96.6162 43.2005Z" fill="white"/>
</g>
<defs>
<filter id="filter0_d_721_3718" x="3.00391" y="3" width="141.721" height="57.457" filterUnits="userSpaceOnUse" color-interpolation-filters="sRGB">
<feFlood flood-opacity="0" result="BackgroundImageFix"/>
<feColorMatrix in="SourceAlpha" type="matrix" values="0 0 0 0 0 0 0 0 0 0 0 0 0 0 0 0 0 0 127 0" result="hardAlpha"/>
<feOffset dy="3"/>
<feGaussianBlur stdDeviation="3"/>
<feColorMatrix type="matrix" values="0 0 0 0 1 0 0 0 0 1 0 0 0 0 1 0 0 0 0.161 0"/>
<feBlend mode="normal" in2="BackgroundImageFix" result="effect1_dropShadow_721_3718"/>
<feBlend mode="normal" in="SourceGraphic" in2="effect1_dropShadow_721_3718" result="shape"/>
</filter>
<filter id="filter1_d_721_3718" x="30.5332" y="29.4395" width="98.9316" height="97.916" filterUnits="userSpaceOnUse" color-interpolation-filters="sRGB">
<feFlood flood-opacity="0" result="BackgroundImageFix"/>
<feColorMatrix in="SourceAlpha" type="matrix" values="0 0 0 0 0 0 0 0 0 0 0 0 0 0 0 0 0 0 127 0" result="hardAlpha"/>
<feOffset dy="3"/>
<feGaussianBlur stdDeviation="3"/>
<feColorMatrix type="matrix" values="0 0 0 0 1 0 0 0 0 1 0 0 0 0 1 0 0 0 0.161 0"/>
<feBlend mode="normal" in2="BackgroundImageFix" result="effect1_dropShadow_721_3718"/>
<feBlend mode="normal" in="SourceGraphic" in2="effect1_dropShadow_721_3718" result="shape"/>
</filter>
</defs>
</svg>
