<svg id="レイヤー_1" data-name="レイヤー 1" xmlns="http://www.w3.org/2000/svg" viewBox="0 0 150 176"><defs><style>.cls-1{fill:#f0f5fa}</style></defs><path class="cls-1" d="M104.64 66.12L60.82 87.77l-21.2 43.4a4.27 4.27 0 0 0 5.74 5.69l43.38-21.23.52-1 1.49-3 19.63-39.74a4.28 4.28 0 0 0-5.74-5.72zm-52.41 58.21v-.08h-.08L67 94l15.57 15.5z"/><path class="cls-1" d="M128 48.47a75 75 0 1 0 22 53 74.79 74.79 0 0 0-22-53zm-11.3 94.75A59 59 0 1 1 134 101.5a58.75 58.75 0 0 1-17.27 41.72z"/><path class="cls-1" d="M75 59.24a4 4 0 1 0-4-4 4 4 0 0 0 4 4zm0 84.52a4 4 0 1 0 4 4 4 4 0 0 0-4-4zM28.74 97.5a4 4 0 1 0 4 4 4 4 0 0 0-4-4zm92.51 8a4 4 0 1 0-4-4 4 4 0 0 0 4 4z"/></svg>