<svg data-name="レイヤー 1" xmlns="http://www.w3.org/2000/svg" viewBox="0 0 150 176"><path d="M75 49.23A18.73 18.73 0 1 0 56.27 30.5 18.73 18.73 0 0 0 75 49.23zm0 34.85c12.87 0 26.05-4.46 24-16.8-.84-5-5-12-8.13-15.18a3.68 3.68 0 0 0-2.75-.2 24.9 24.9 0 0 1-26.22 0 3.68 3.68 0 0 0-2.75.2C56 55.25 51.85 62.27 51 67.28c-2 12.34 11.13 16.8 24 16.8zm-50.8 57.08a18.74 18.74 0 1 0-18.73-18.73 18.74 18.74 0 0 0 18.73 18.73zM40.07 144a3.66 3.66 0 0 0-2.76-.2 24.9 24.9 0 0 1-26.22 0 3.63 3.63 0 0 0-2.75.2c-3.15 3.18-7.29 10.2-8.13 15.21C-1.84 171.55 11.34 176 24.2 176s26.05-4.45 24-16.79c-.84-5.01-4.99-12.03-8.13-15.21zm85.73-2.87a18.74 18.74 0 1 0-18.74-18.73 18.74 18.74 0 0 0 18.74 18.76zm24 18.05c-.84-5-5-12-8.13-15.18a3.63 3.63 0 0 0-2.75-.2 24.9 24.9 0 0 1-26.22 0 3.66 3.66 0 0 0-2.76.2c-3.14 3.15-7.28 10.17-8.12 15.18-2.06 12.34 11.12 16.79 24 16.79s26.02-4.42 23.97-16.76zm-49.36-27.9l-22.35-12.86V92.63a3.09 3.09 0 0 0-6.18 0v25.79l-22.33 12.89a3.09 3.09 0 0 0 3.09 5.36L75 123.77l22.34 12.89a3.09 3.09 0 0 0 3.09-5.35z" fill="#f0f5fa"/></svg>