<svg width="28" height="29" viewBox="0 0 28 29" fill="none" xmlns="http://www.w3.org/2000/svg">
<g clip-path="url(#clip0_550_3806)">
<path d="M24.8789 3.71484H3.12159C1.40049 3.71484 0 5.03004 0 6.64632V19.6888C0 21.305 1.40049 22.6202 3.12159 22.6202H5.30049L3.45386 26.0798C3.36566 26.245 3.39739 26.4444 3.53273 26.5785C3.62279 26.6675 3.746 26.7148 3.87106 26.7148C3.935 26.7148 3.99847 26.7026 4.05913 26.6776L13.8579 22.6207H24.8784C26.5995 22.6207 28 21.3055 28 19.6892V6.64632C28 5.03004 26.6 3.71484 24.8789 3.71484ZM27.0671 19.6888C27.0671 20.8221 26.0852 21.7437 24.8789 21.7437H13.7599C13.695 21.7437 13.6311 21.7564 13.5718 21.781L4.87021 25.3839L6.47464 22.3788C6.54744 22.2429 6.53998 22.0816 6.45457 21.9519C6.36964 21.8226 6.21937 21.7437 6.05743 21.7437H3.12252C1.9157 21.7437 0.934282 20.8216 0.934282 19.6888V6.64632C0.934282 5.513 1.91617 4.59135 3.12252 4.59135H24.8793C26.0862 4.59135 27.0676 5.51344 27.0676 6.64632L27.0671 19.6888Z" fill="#005BAC" stroke="#005BAC" stroke-width="0.5"/>
<path d="M21.9531 8.71484H5.95312V9.71484H21.9531V8.71484Z" fill="#005BAC"/>
<path d="M21.9531 12.7148H5.95312V13.7148H21.9531V12.7148Z" fill="#005BAC"/>
<path d="M21.9531 16.7148H5.95312V17.7148H21.9531V16.7148Z" fill="#005BAC"/>
</g>
<defs>
<clipPath id="clip0_550_3806">
<rect width="28" height="28" fill="white" transform="translate(0 0.6875)"/>
</clipPath>
</defs>
</svg>
