<svg data-name="レイヤー 1" xmlns="http://www.w3.org/2000/svg" viewBox="0 0 30 30"><path d="M24.21 3H5v22a2 2 0 0 0 1.07 1.77 2.24 2.24 0 0 0 1.07.23 2.28 2.28 0 0 0 1.08-.27L14 23.52a2 2 0 0 1 1.92 0l5.82 3.21a2.28 2.28 0 0 0 1.08.27 2.24 2.24 0 0 0 1.07-.27A2 2 0 0 0 25 25V3zm-1.08 22.42a.52.52 0 0 1-.27.07.53.53 0 0 1-.28-.07l-5.78-3.18a3.63 3.63 0 0 0-3.5 0l-5.88 3.18a.53.53 0 0 1-.28.07.52.52 0 0 1-.27-.07.51.51 0 0 1-.28-.42V4.51h16.82V25a.51.51 0 0 1-.28.42zm-3.92-12.78l-2.72-.16a.25.25 0 0 1-.24-.16l-1-2.42a.28.28 0 0 0-.5 0l-1 2.42a.25.25 0 0 1-.24.16l-2.72.16a.27.27 0 0 0-.24.18.24.24 0 0 0 .08.28l2.11 1.65a.24.24 0 0 1 .09.26l-.69 2.52a.26.26 0 0 0 .11.27.29.29 0 0 0 .3 0l2.3-1.4a.27.27 0 0 1 .3 0l2.3 1.4a.29.29 0 0 0 .3 0 .26.26 0 0 0 .11-.27L17.17 15a.24.24 0 0 1 .09-.26l2.11-1.65a.25.25 0 0 0 .08-.28.27.27 0 0 0-.24-.17z" fill="#005bac"/></svg>