<svg xmlns="http://www.w3.org/2000/svg" xmlns:xlink="http://www.w3.org/1999/xlink" width="44" height="44" viewBox="0 0 44 44"><defs><clipPath id="a"><rect width="44" height="44" transform="translate(-221 769)" fill="#fff" opacity="0.55"/></clipPath></defs><g transform="translate(221 -769)" clip-path="url(#a)"><g transform="translate(-491.388 -8.732)"><path d="M49.6,179.362a3.168,3.168,0,1,0,3.169-3.169,3.169,3.169,0,0,0-3.169,3.169" transform="translate(240 603.925)" fill="#005bac"/><path d="M65.465,187.748a1.234,1.234,0,0,0-1.739.134l-2.649,2.829-1.031-2a8.446,8.446,0,0,0-7.543-4.571H52.5a8.446,8.446,0,0,0-7.543,4.571l-1.031,2-2.649-2.829a1.233,1.233,0,1,0-1.873,1.6l3.925,5.008a1.723,1.723,0,0,0,2.363-.1c.337-.374,2.237-3.06,2.237-3.06l.727,23.253a1.608,1.608,0,1,0,3.215,0l.633-13.313.632,13.313a1.608,1.608,0,1,0,3.216,0l.726-23.253s1.9,2.686,2.237,3.06a1.723,1.723,0,0,0,2.363.1l3.925-5.008a1.234,1.234,0,0,0-.134-1.739" transform="translate(240 603.925)" fill="#005bac"/><path d="M39.534,176.923a2.327,2.327,0,0,0-2.34,2.007,2.326,2.326,0,0,0-2.34-2.007c-1.35-.026-2.466,1.013-2.466,2.908,0,2.433,2.752,3.557,4.634,5.374.065.063.05.062.05.062a.154.154,0,0,0,.244,0s-.015,0,.051-.062c1.881-1.817,4.633-2.941,4.633-5.374,0-1.895-1.116-2.934-2.466-2.908" transform="translate(240 603.925)" fill="#005bac"/><path d="M71.762,179.783l-1.058-.049a.25.25,0,0,1-.218-.153l-.218-.524a.25.25,0,0,1,.046-.264l.714-.783a.25.25,0,0,0-.008-.344l-.88-.88a.25.25,0,0,0-.344-.007l-.783.713a.247.247,0,0,1-.263.046l-.525-.218a.246.246,0,0,1-.153-.218l-.049-1.058a.249.249,0,0,0-.249-.237H66.53a.249.249,0,0,0-.249.237l-.049,1.058a.246.246,0,0,1-.153.218l-.525.218a.247.247,0,0,1-.263-.046l-.783-.713a.251.251,0,0,0-.345.007l-.879.88a.25.25,0,0,0-.008.344l.714.783a.25.25,0,0,1,.045.264l-.217.524a.251.251,0,0,1-.219.153l-1.057.049a.249.249,0,0,0-.238.248v1.245a.25.25,0,0,0,.238.25l1.057.048a.248.248,0,0,1,.219.154l.217.524a.251.251,0,0,1-.045.264l-.714.782a.25.25,0,0,0,.008.345l.88.879a.248.248,0,0,0,.344.008l.783-.714a.247.247,0,0,1,.263-.045l.525.216a.25.25,0,0,1,.153.22l.049,1.056a.249.249,0,0,0,.249.238h1.244a.249.249,0,0,0,.249-.238l.049-1.056a.25.25,0,0,1,.153-.22l.525-.216a.247.247,0,0,1,.263.045l.783.714a.248.248,0,0,0,.344-.008l.88-.879a.251.251,0,0,0,.008-.345l-.714-.782a.251.251,0,0,1-.046-.264l.218-.524a.246.246,0,0,1,.218-.154l1.058-.048a.25.25,0,0,0,.238-.25v-1.245a.249.249,0,0,0-.238-.248m-4.61,2.454a1.583,1.583,0,1,1,1.583-1.582,1.583,1.583,0,0,1-1.583,1.582" transform="translate(240 603.925)" fill="#005bac"/></g></g></svg>