<svg xmlns="http://www.w3.org/2000/svg" xmlns:xlink="http://www.w3.org/1999/xlink" width="44" height="44" viewBox="0 0 44 44"><defs><clipPath id="a"><rect width="44" height="44" transform="translate(-274 1073)" fill="#fff" opacity="0.55"/></clipPath></defs><g transform="translate(274 -1073)" clip-path="url(#a)"><g transform="translate(-544.524 7.052)"><path d="M48.5,478.458a2.992,2.992,0,1,0-2.992-2.991,2.991,2.991,0,0,0,2.992,2.991" transform="translate(240 603.925)" fill="#005bac"/><path d="M69.6,496.861l-7.952-7.937a16.393,16.393,0,0,1-4.235,4.238l7.952,7.936a3,3,0,0,0,4.235-4.237" transform="translate(240 603.925)" fill="#005bac"/><path d="M59.919,487.2a13.771,13.771,0,0,0-19.007-19.019,13.862,13.862,0,0,0-4.235,4.237,13.771,13.771,0,0,0,19.007,19.019,13.863,13.863,0,0,0,4.235-4.237m-7.155,1.315A9.783,9.783,0,0,1,39.6,475.336a9.851,9.851,0,0,1,4.236-4.236A9.781,9.781,0,0,1,57,484.273a9.845,9.845,0,0,1-4.234,4.238" transform="translate(240 603.925)" fill="#005bac"/><path d="M54.168,491.447V482.9a3.364,3.364,0,0,0-3.027-3.028H45.858a3.364,3.364,0,0,0-3.027,3.028v8.545Z" transform="translate(240 603.925)" fill="#005bac"/></g></g></svg>