<svg width="93" height="111" viewBox="0 0 93 111" fill="none" xmlns="http://www.w3.org/2000/svg">
<path fill-rule="evenodd" clip-rule="evenodd" d="M45.9991 14.2662C52.3155 3.0827 64.9464 3.0827 71.2627 8.67354C77.5791 14.2662 77.5791 25.4478 71.2627 36.6331C66.8415 45.0184 55.4727 53.4056 45.9991 59C36.5273 53.4056 25.1585 45.0184 20.7373 36.6331C14.4209 25.4496 14.4209 14.2662 20.7373 8.67354C27.0536 3.08092 39.6845 3.08092 45.9991 14.2662Z" fill="#005BAC"/>
<path d="M45.9991 14.2662C52.3155 3.0827 64.9464 3.0827 71.2627 8.67354C77.5791 14.2662 77.5791 25.4478 71.2627 36.6331C66.8415 45.0184 55.4727 53.4056 45.9991 59C36.5273 53.4056 25.1585 45.0184 20.7373 36.6331C14.4209 25.4496 14.4209 14.2662 20.7373 8.67354C27.0536 3.08092 39.6845 3.08092 45.9991 14.2662Z" stroke="#005BAC" stroke-width="2.65" stroke-linecap="round" stroke-linejoin="round"/>
<path d="M22.4912 16C21.8569 17.3624 21.0336 19.6953 21.001 22.6335C20.9258 29.5802 25 34 25 34" stroke="white" stroke-width="4.17" stroke-linecap="round" stroke-linejoin="round"/>
<path d="M25 13C25 13 26.0138 12.0188 27.2994 11.5265C29.0976 10.8341 30 11.0237 30 11.0237" stroke="white" stroke-width="4.17" stroke-linecap="round" stroke-linejoin="round"/>
<path fill-rule="evenodd" clip-rule="evenodd" d="M49.9743 106C49.9743 106 50.0524 92.2238 49.7181 86.972C49.3856 81.722 46.4876 76.2507 49.0458 71.6737C51.6023 67.0986 54.5222 61.5402 56.1865 60.1869C57.8509 58.8318 61.2868 57.1937 65.0951 53.3169C68.9035 49.442 71.7961 45.8919 72.6828 46.9005C73.5731 47.9109 75.2138 51.3432 71.1547 55.561C67.0974 59.7787 62.8693 63.2999 61.503 65.7562C60.1384 68.2161 59.9204 68.9961 60.8834 69.2501C61.7228 69.4696 61.5938 67.1312 65.5821 63.2491C69.7393 59.2019 74.3653 54.8879 77.267 51.6824C80.4576 48.1613 80.4667 40.3081 81.1499 35.7438C82.0602 29.6648 86.3973 26.0675 88.3269 26.0003C90.2565 25.9368 87.4075 35.049 87.5692 38.7207C87.7291 42.387 87.7854 48.4334 87.7109 50.6248C87.6364 52.8162 88.7193 57.3061 86.9605 59.2218C85.2071 61.1357 70.1081 82.7941 68.8835 87.2894C67.6589 91.7848 69.1451 103.843 69.1451 103.843L49.9743 106Z" fill="#005BAC"/>
<path fill-rule="evenodd" clip-rule="evenodd" d="M43.0235 106C43.0235 106 42.949 92.2238 43.2833 86.972C43.6158 81.722 46.5121 76.2507 43.9538 71.6737C41.3955 67.0986 38.4792 61.5402 36.8167 60.1869C35.1523 58.8318 31.7128 57.1937 27.9044 53.3169C24.096 49.442 21.207 45.8919 20.3149 46.9005C19.4282 47.9109 17.7875 51.3432 21.8466 55.561C25.9039 59.7787 30.132 63.2999 31.4984 65.7562C32.8647 68.2161 33.0828 68.9961 32.118 69.2501C31.2803 69.4696 31.4075 67.1312 27.4193 63.2491C23.262 59.2019 18.6378 54.8879 15.7343 51.6824C12.5437 48.1613 12.5346 40.3081 11.8514 35.7438C10.9429 29.6648 6.60217 26.0675 4.67254 26.0003C2.74291 25.9368 5.59557 35.049 5.43386 38.7207C5.27215 42.387 5.214 48.4334 5.29031 50.6248C5.36481 52.8162 4.28553 57.3061 6.04073 59.2218C7.79774 61.1357 22.8968 82.7941 24.1196 87.2894C25.3425 91.7848 23.858 103.843 23.858 103.843L43.0271 106H43.0235Z" fill="#005BAC"/>
</svg>
