<svg id="レイヤー_1" data-name="レイヤー 1" xmlns="http://www.w3.org/2000/svg" viewBox="0 0 18 18"><defs><style>.cls-1{fill:none}.cls-2{fill:#005bac}</style></defs><path class="cls-1" d="M2.5 15V3h8.29l4.71 4.71V15h-13z"/><path class="cls-2" d="M10.59 3.5L15 7.91v6.59H3v-11h7.59m.41-1H2v13h14v-8l-5-5z"/><path class="cls-2" d="M5 5.5h5v1H5z"/><path class="cls-1" d="M10 5.5H5v1h5v-1z"/><path class="cls-2" d="M5 7.5h8v1H5z"/><path class="cls-1" d="M13 7.5H5v1h8v-1z"/><path class="cls-2" d="M5 9.5h8v1H5z"/><path class="cls-1" d="M13 9.5H5v1h8v-1z"/><path class="cls-2" d="M5 11.5h8v1H5z"/><path class="cls-1" d="M13 11.5H5v1h8v-1z"/></svg>