<svg data-name="レイヤー 1" xmlns="http://www.w3.org/2000/svg" viewBox="0 0 18 18"><path d="M17.46 4.26a2.2 2.2 0 0 0-.46-1l-.15-.16a2.27 2.27 0 0 0-1.58-.64H2.73a2.28 2.28 0 0 0-1.58.64L1 3.31a2.11 2.11 0 0 0-.46.95 2 2 0 0 0 0 .43v8.62a2 2 0 0 0 .19.87 2 2 0 0 0 .46.68l.16.14a2.28 2.28 0 0 0 1.42.5h12.5a2.21 2.21 0 0 0 1.42-.5l.16-.13a2.23 2.23 0 0 0 .45-.65 2.12 2.12 0 0 0 .18-.87V4.69a2.09 2.09 0 0 0-.02-.43zM1.66 3.9a.79.79 0 0 1 .12-.15 1.33 1.33 0 0 1 1-.38h12.49a1.33 1.33 0 0 1 .95.38l.12.14.1.13-6.69 5.71A1.14 1.14 0 0 1 9 10a1.16 1.16 0 0 1-.75-.28L1.57 4zm-.27 9.49a.19.19 0 0 1 0-.08V4.87L6.58 9.3l-5.14 4.39zm14.55 1.07a1.42 1.42 0 0 1-.67.17H2.73a1.42 1.42 0 0 1-.67-.17l-.21-.12 5.31-4.53.59.49a1.91 1.91 0 0 0 1.25.46 1.94 1.94 0 0 0 1.26-.46l.58-.49 5.31 4.53zm.68-1.15a.22.22 0 0 1 0 .08v.31l-5.2-4.39 5.2-4.44z" fill="#222"/></svg>