<svg data-name="レイヤー 1" xmlns="http://www.w3.org/2000/svg" viewBox="0 0 18 18"><path d="M9 1a8 8 0 1 0 8 8 8 8 0 0 0-8-8zM4.05 4.05A7 7 0 0 1 6.66 2.4a7.28 7.28 0 0 0-1.18 2.16H3.59a5.57 5.57 0 0 1 .46-.51zm-1 1.26h2.19a13.61 13.61 0 0 0-.48 3.31H2a6.94 6.94 0 0 1 1.05-3.31zm0 7.38A6.94 6.94 0 0 1 2 9.38h2.76a13.14 13.14 0 0 0 .48 3.31zm1 1.26a5.57 5.57 0 0 1-.46-.51h1.89a8.15 8.15 0 0 0 .45 1 6 6 0 0 0 .73 1.12A7 7 0 0 1 4.05 14zm4.57 2h-.34a2.16 2.16 0 0 1-.55-.34 5.45 5.45 0 0 1-1.45-2.18h2.34V16zm0-3.3H6a12.5 12.5 0 0 1-.51-3.32h3.13v3.32zm0-4.07H5.51A12.48 12.48 0 0 1 6 5.31h2.6v3.31zm0-4.06H6.28c.1-.24.2-.48.31-.69a4.82 4.82 0 0 1 1.14-1.45A2.16 2.16 0 0 1 8.28 2h.34v2.56zm6.38.79a6.94 6.94 0 0 1 1 3.31h-2.76a13.14 13.14 0 0 0-.48-3.31zm-1-1.26a5.57 5.57 0 0 1 .46.51h-1.94a8.15 8.15 0 0 0-.45-1 6 6 0 0 0-.73-1.12A7 7 0 0 1 14 4.05zM9.37 2h.35a2.16 2.16 0 0 1 .55.34 5.45 5.45 0 0 1 1.45 2.18H9.37zm0 3.3H12a12.48 12.48 0 0 1 .51 3.31H9.37zm0 4.07h3.12a12.48 12.48 0 0 1-.49 3.32H9.37zm.9 6.24a2.16 2.16 0 0 1-.55.34h-.35v-2.51h2.35c-.1.24-.2.48-.31.69a4.82 4.82 0 0 1-1.14 1.49zM14 14a7 7 0 0 1-2.61 1.65 7.28 7.28 0 0 0 1.18-2.16h1.89A5.57 5.57 0 0 1 14 14zm1-1.26h-2.24a13.62 13.62 0 0 0 .48-3.32H16a7 7 0 0 1-1 3.27z" fill="#222"/></svg>