<svg width="439" height="280" viewBox="0 0 439 280" fill="none" xmlns="http://www.w3.org/2000/svg">
<path d="M438.5 0.5V58.5H0.5V0.5H438.5Z" fill="white" stroke="#005BAC"/>
<path d="M25.054 33.594H34.079V31.618H25.054V33.594ZM34.079 27.571H25.054V29.528H34.079V27.571ZM34.079 23.524H25.054V25.481H34.079V23.524ZM29.975 21.358H36.492V36.615H34.079V35.684H25.054V36.634H22.755V21.358H27.619C27.828 20.541 28.037 19.629 28.132 18.869L30.868 19.173C30.583 19.933 30.279 20.674 29.975 21.358ZM45.536 32.72V33.689C46.619 33.613 47.74 33.518 48.842 33.423C50.324 31.371 50.78 28.654 50.913 25.253H49.184V23.771H45.536V24.512H48.899V30.383H45.536V31.124H48.975V32.72H45.536ZM42.002 28.977H43.484V28.122H42.002V28.977ZM47.018 28.122H45.536V28.977H47.018V28.122ZM45.536 26.773H47.018V25.937H45.536V26.773ZM42.002 25.937V26.773H43.484V25.937H42.002ZM53.117 23.182H56.974C56.974 23.182 56.955 23.923 56.955 24.189C56.784 31.96 56.632 34.715 56.024 35.589C55.587 36.216 55.15 36.406 54.523 36.539C53.953 36.653 53.079 36.634 52.167 36.615C52.129 35.988 51.882 35.076 51.502 34.449C52.338 34.525 53.06 34.544 53.421 34.544C53.706 34.544 53.896 34.468 54.067 34.221C54.466 33.708 54.656 31.39 54.77 25.253H53.06C52.813 30.345 51.939 34.259 48.747 36.786C48.462 36.33 47.911 35.703 47.417 35.285C44.681 35.57 41.945 35.855 39.893 36.026L39.627 34.126C40.691 34.05 42.021 33.955 43.484 33.86V32.72H40.14V31.124H43.484V30.383H40.216V24.512H43.484V23.771H39.741V22.137H43.484V21.377C42.382 21.453 41.299 21.51 40.273 21.529C40.197 21.073 39.988 20.37 39.779 19.933C42.591 19.781 45.878 19.458 47.968 19.002L48.956 20.693C47.949 20.902 46.771 21.073 45.536 21.206V22.137H49.184V23.182H50.97C50.989 21.928 50.989 20.617 50.989 19.211H53.155C53.155 20.598 53.155 21.928 53.117 23.182ZM65.942 21.092V22.099H63.966V19.496H75.898V22.099H73.808V21.092H65.942ZM66.778 28.844H68.716V28.103H66.778V28.844ZM66.778 26.051V26.792H68.716V26.051H66.778ZM72.934 26.051H70.92V26.792H72.934V26.051ZM72.934 28.844V28.103H70.92V28.844H72.934ZM68.716 33.803V32.549H63.795V30.915H68.716V30.212H64.859V24.645H68.716V23.98H64.498V22.422H68.716V21.434H70.92V22.422H75.271V23.98H70.92V24.645H74.948V30.212H70.92V30.915H76.088V32.549H70.92V33.803H68.716ZM63.567 22.403L61.705 23.828C61.173 22.897 59.919 21.586 58.855 20.674L60.584 19.382C61.648 20.237 62.959 21.491 63.567 22.403ZM63.054 26.279V32.34C63.795 33.613 65.125 34.145 67.063 34.221C69.343 34.316 73.827 34.259 76.449 34.05C76.183 34.582 75.86 35.627 75.746 36.254C73.39 36.368 69.362 36.406 67.044 36.311C64.783 36.216 63.263 35.665 62.123 34.202C61.363 34.943 60.584 35.665 59.615 36.482L58.551 34.24C59.292 33.765 60.147 33.138 60.907 32.492V28.35H58.779V26.279H63.054ZM94.632 20.218V22.365H87.07V20.218H94.632ZM80.04 27.875V28.996H81.237V27.875H80.04ZM80.04 25.272V26.412H81.237V25.272H80.04ZM84.144 26.412V25.272H82.89V26.412H84.144ZM84.144 28.996V27.875H82.89V28.996H84.144ZM86.291 33.632H83.099V36.634H81.009V33.632H77.646V31.675H81.009V30.554H78.311V23.695H81.009V22.669H77.912V20.712H81.009V18.926H83.137V20.712H86.158V22.669H83.137V23.695H85.93V30.554H83.099V31.675H86.291V33.632ZM95.563 35.779L93.473 36.615C93.416 36.273 93.359 35.912 93.264 35.513C90.737 35.779 88.191 36.007 86.234 36.178L85.816 33.974L87.412 33.879C87.868 32.131 88.305 29.718 88.571 27.666H86.31V25.538H95.278V27.666H91.041C90.642 29.756 90.11 31.998 89.635 33.727L92.675 33.518C92.333 32.473 91.915 31.409 91.459 30.497L93.378 29.737C94.385 31.637 95.24 34.088 95.563 35.779ZM100.636 33.898C103.714 32.606 105.766 30.725 107.134 28.73C108.54 26.697 109.072 24.55 109.376 22.992C109.566 22.118 109.642 21.168 109.623 20.693L112.701 21.111C112.473 21.852 112.264 22.783 112.131 23.334C111.637 25.557 110.877 27.875 109.49 30.003C108.008 32.302 105.899 34.373 102.897 35.836L100.636 33.898ZM100.237 20.788C101.187 22.118 102.821 25.025 103.524 26.355L101.016 27.78C100.066 25.747 98.679 23.258 97.805 22.042L100.237 20.788ZM130.257 20.256C130.219 20.788 130.181 21.396 130.181 22.156V25.918C130.181 30.003 129.383 31.77 127.977 33.328C126.723 34.696 124.747 35.627 123.36 36.064L121.384 33.974C123.265 33.537 124.804 32.815 125.944 31.58C127.255 30.155 127.502 28.73 127.502 25.766V22.156C127.502 21.396 127.464 20.788 127.388 20.256H130.257ZM121.441 20.408C121.403 20.845 121.384 21.263 121.384 21.871V28.293C121.384 28.768 121.403 29.509 121.441 29.946H118.686C118.705 29.585 118.781 28.844 118.781 28.274V21.871C118.781 21.51 118.762 20.845 118.705 20.408H121.441ZM148.421 25.937C148.326 26.184 148.269 26.545 148.231 26.735C148.079 27.856 147.585 31.124 147.3 32.929H148.516C149.01 32.929 149.884 32.91 150.378 32.853V35.304C149.998 35.285 149.067 35.247 148.554 35.247H138.56C137.876 35.247 137.401 35.266 136.679 35.304V32.834C137.192 32.891 137.895 32.929 138.56 32.929H144.716C144.982 31.314 145.4 28.616 145.457 27.552H140.327C139.719 27.552 138.978 27.609 138.427 27.647V25.139C138.921 25.196 139.795 25.253 140.308 25.253H145.172C145.571 25.253 146.35 25.177 146.578 25.044L148.421 25.937ZM154.748 26.203C155.432 26.26 156.819 26.317 157.807 26.317H168.01C168.903 26.317 169.739 26.241 170.233 26.203V29.186C169.777 29.167 168.808 29.091 168.01 29.091H157.807C156.724 29.091 155.451 29.129 154.748 29.186V26.203ZM177.5 19.952C178.754 20.636 180.844 21.985 181.832 22.669L180.407 24.778C179.343 24.037 177.367 22.745 176.113 22.042L177.5 19.952ZM173.966 33.442C176.094 33.081 178.374 32.454 180.445 31.314C183.675 29.509 186.316 26.906 187.836 24.189L189.299 26.773C187.532 29.395 184.853 31.808 181.737 33.594C179.799 34.696 177.082 35.646 175.391 35.95L173.966 33.442ZM174.574 24.284C175.847 24.968 177.937 26.279 178.906 26.963L177.519 29.091C176.436 28.35 174.46 27.058 173.187 26.393L174.574 24.284ZM194.676 24.265C195.17 24.322 196.329 24.36 197.032 24.36H204.214C204.67 24.36 205.373 24.341 205.677 24.322C205.658 24.569 205.658 25.196 205.658 25.595V35.133C205.658 35.437 205.677 36.083 205.677 36.425H203.283C203.302 36.254 203.302 35.95 203.302 35.665H196.101C195.569 35.665 194.79 35.703 194.467 35.722V33.385C194.79 33.423 195.436 33.461 196.12 33.461H203.302V30.934H197.241C196.519 30.934 195.607 30.953 195.17 30.972V28.73C195.664 28.768 196.519 28.787 197.241 28.787H203.302V26.488H197.032C196.329 26.488 195.132 26.526 194.676 26.564V24.265ZM214.208 20.56C215.538 21.453 218.008 23.429 219.11 24.588L217.172 26.564C216.184 25.5 213.809 23.429 212.422 22.46L214.208 20.56ZM211.833 33.214C214.797 32.796 217.267 31.827 219.11 30.725C222.359 28.806 224.829 25.899 226.026 23.334L227.508 26.013C226.064 28.578 223.537 31.2 220.478 33.043C218.559 34.202 216.108 35.266 213.429 35.722L211.833 33.214ZM237.863 19.762C237.768 20.237 237.635 20.864 237.388 21.662C239.193 21.567 241.093 21.396 242.765 21.111L242.746 23.315C240.941 23.581 238.604 23.733 236.552 23.79C236.229 24.493 235.849 25.177 235.469 25.728C235.963 25.5 236.989 25.348 237.616 25.348C238.775 25.348 239.725 25.842 240.143 26.811C241.131 26.355 241.929 26.032 242.708 25.69C243.449 25.367 244.114 25.063 244.817 24.702L245.767 26.906C245.159 27.077 244.152 27.457 243.506 27.704C242.651 28.046 241.568 28.464 240.409 28.996C240.428 30.06 240.466 31.466 240.485 32.34H238.205C238.262 31.77 238.281 30.858 238.3 30.022C236.875 30.839 236.115 31.58 236.115 32.53C236.115 33.575 237.008 33.86 238.87 33.86C240.485 33.86 242.594 33.651 244.266 33.328L244.19 35.779C242.936 35.95 240.599 36.102 238.813 36.102C235.83 36.102 233.626 35.38 233.626 32.929C233.626 30.497 235.906 28.977 238.072 27.856C237.787 27.381 237.274 27.21 236.742 27.21C235.678 27.21 234.5 27.818 233.778 28.521C233.208 29.091 232.657 29.775 232.011 30.611L229.978 29.091C231.973 27.248 233.322 25.557 234.177 23.847C234.082 23.847 234.006 23.847 233.93 23.847C233.151 23.847 231.764 23.809 230.719 23.733V21.51C231.688 21.662 233.094 21.738 234.063 21.738C234.348 21.738 234.671 21.738 234.975 21.738C235.184 20.978 235.317 20.237 235.355 19.553L237.863 19.762ZM264.767 22.27C264.653 22.555 264.482 23.277 264.425 23.543C264.083 25.538 263.646 28.293 262.164 30.592C260.587 33.081 258.003 34.981 254.963 36.045L252.835 33.879C255.4 33.252 258.326 31.675 259.827 29.3C260.777 27.761 261.366 25.652 261.556 23.6H252.436V26.773C252.436 27.058 252.455 27.742 252.512 28.331H249.719C249.776 27.742 249.814 27.286 249.814 26.773V22.764C249.814 22.251 249.776 21.662 249.719 21.168C250.327 21.206 251.163 21.244 252.056 21.244H261.138C261.784 21.244 262.43 21.206 262.943 21.111L264.767 22.27ZM271.208 20.56C272.538 21.453 275.008 23.429 276.11 24.588L274.172 26.564C273.184 25.5 270.809 23.429 269.422 22.46L271.208 20.56ZM268.833 33.214C271.797 32.796 274.267 31.827 276.11 30.725C279.359 28.806 281.829 25.899 283.026 23.334L284.508 26.013C283.064 28.578 280.537 31.2 277.478 33.043C275.559 34.202 273.108 35.266 270.429 35.722L268.833 33.214ZM301.104 22.118C300.952 22.327 300.61 22.916 300.439 23.296C299.793 24.778 298.729 26.811 297.456 28.521C299.337 30.155 301.636 32.587 302.757 33.955L300.591 35.836C299.356 34.126 297.589 32.188 295.803 30.459C293.789 32.587 291.262 34.563 288.659 35.798L286.702 33.746C289.761 32.606 292.706 30.288 294.492 28.293C295.746 26.868 296.905 24.987 297.323 23.638H290.882C290.084 23.638 289.039 23.752 288.64 23.771V21.073C289.153 21.149 290.312 21.206 290.882 21.206H297.589C298.406 21.206 299.166 21.092 299.546 20.959L301.104 22.118ZM310.224 33.176V22.251C310.224 21.586 310.167 20.636 310.034 19.971H312.998C312.922 20.636 312.827 21.472 312.827 22.251V25.063C315.373 25.804 319.021 27.153 320.769 28.008L319.686 30.63C317.729 29.604 314.879 28.502 312.827 27.799V33.176C312.827 33.727 312.922 35.057 312.998 35.836H310.034C310.148 35.076 310.224 33.936 310.224 33.176ZM332.853 23.714C333.214 24.531 334.145 27.001 334.411 27.875L332.131 28.673C331.903 27.742 331.067 25.443 330.592 24.455L332.853 23.714ZM339.864 25.101C339.636 25.709 339.522 26.108 339.408 26.488C338.914 28.407 338.116 30.383 336.824 32.055C335.057 34.335 332.682 35.931 330.459 36.767L328.464 34.734C330.554 34.183 333.195 32.739 334.772 30.763C336.064 29.148 336.976 26.621 337.204 24.246L339.864 25.101ZM328.445 24.721C328.92 25.69 329.832 27.989 330.212 29.053L327.894 29.927C327.571 28.901 326.621 26.374 326.165 25.538L328.445 24.721ZM357.534 21.073C357.534 21.662 358.028 22.156 358.636 22.156C359.225 22.156 359.719 21.662 359.719 21.073C359.719 20.465 359.225 19.971 358.636 19.971C358.028 19.971 357.534 20.465 357.534 21.073ZM356.356 21.073C356.356 19.819 357.382 18.793 358.636 18.793C359.871 18.793 360.897 19.819 360.897 21.073C360.897 22.308 359.871 23.334 358.636 23.334C358.56 23.334 358.465 23.334 358.389 23.315C358.332 23.524 358.294 23.714 358.237 23.885C357.8 25.747 356.983 28.692 355.387 30.801C353.677 33.081 351.131 34.962 347.749 36.064L345.678 33.784C349.44 32.91 351.587 31.257 353.126 29.319C354.38 27.742 355.102 25.595 355.349 23.961H346.514C345.64 23.961 344.728 23.999 344.253 24.037V21.358C344.804 21.434 345.887 21.51 346.514 21.51H355.311C355.577 21.51 355.995 21.491 356.394 21.434C356.375 21.32 356.356 21.206 356.356 21.073ZM362.569 21.966C363.329 21.947 364.07 21.909 364.431 21.871C366.027 21.738 369.162 21.453 372.639 21.168C374.596 20.997 376.667 20.883 378.016 20.826L378.035 23.258C377.009 23.277 375.375 23.277 374.368 23.524C372.069 24.132 370.34 26.583 370.34 28.844C370.34 31.979 373.266 33.1 376.496 33.271L375.603 35.874C371.613 35.608 367.851 33.48 367.851 29.357C367.851 26.621 369.39 24.455 370.682 23.486C368.896 23.676 365.02 24.094 362.816 24.569L362.569 21.966ZM375.318 25.12C375.793 25.804 376.477 26.963 376.838 27.704L375.394 28.35C374.919 27.305 374.52 26.564 373.912 25.709L375.318 25.12ZM377.446 24.246C377.921 24.911 378.643 26.032 379.042 26.773L377.617 27.457C377.104 26.431 376.667 25.728 376.059 24.892L377.446 24.246ZM395.211 22.042V21.092H390.081V22.042H395.211ZM395.211 24.455V23.486H390.081V24.455H395.211ZM397.377 19.496V26.051H388.01V19.496H397.377ZM387.06 28.977L385.046 29.585V34.012C385.046 35.057 384.875 35.608 384.305 35.95C383.735 36.33 382.899 36.406 381.683 36.387C381.626 35.836 381.379 34.905 381.094 34.316C381.797 34.335 382.443 34.335 382.671 34.316C382.899 34.316 382.994 34.24 382.994 33.993V30.193C382.367 30.364 381.797 30.535 381.246 30.687L380.733 28.502C381.379 28.369 382.139 28.16 382.994 27.951V24.588H380.942V22.498H382.994V18.907H385.046V22.498H386.946V24.588H385.046V27.4L386.756 26.944L387.06 28.977ZM393.691 32.188V34.373C394.128 34.411 394.546 34.43 395.021 34.43C395.667 34.43 398.023 34.43 398.84 34.411C398.574 34.867 398.308 35.817 398.232 36.387H394.926C392.437 36.387 390.518 35.931 389.226 33.632C388.751 34.829 388.067 35.836 387.25 36.615C386.889 36.254 386.034 35.551 385.578 35.266C387.155 34.012 387.934 31.903 388.219 29.319L390.271 29.566C390.176 30.25 390.062 30.896 389.91 31.485C390.328 32.587 390.879 33.271 391.563 33.708V28.749H387.098V26.925H398.327V28.749H393.691V30.421H397.32V32.188H393.691ZM403.913 18.945L406.022 19.61C405.528 20.921 404.901 22.27 404.217 23.562V36.634H401.994V27.001C401.595 27.514 401.196 27.97 400.797 28.407C400.588 27.837 399.98 26.602 399.581 26.051C401.291 24.341 402.963 21.662 403.913 18.945ZM408.34 31.542L410.449 32.188C409.499 33.841 407.979 35.513 406.668 36.596C406.25 36.178 405.395 35.475 404.901 35.171C406.231 34.278 407.561 32.891 408.34 31.542ZM412.482 32.511L414.287 31.523C415.522 32.72 416.833 34.335 417.517 35.437L415.617 36.634C415.009 35.494 413.679 33.746 412.482 32.511ZM410.031 24.778V28.559H412.786V24.778H410.031ZM414.99 28.559H417.612V30.763H405.281V28.559H407.827V24.778H405.756V22.612H407.827V19.059H410.031V22.612H412.786V19.04H414.99V22.612H417.46V24.778H414.99V28.559Z" fill="#005BAC"/>
<path d="M90.8276 106.968H378.448V143.098H90.8276V180.766H378.448" stroke="#005BAC" stroke-width="1.26149"/>
<path d="M90.8276 180.766H378.448V216.896H90.8276V254.563H378.448" stroke="#005BAC" stroke-width="1.26149"/>
<rect x="0.630747" y="83.6307" width="170.302" height="46.6753" rx="23.3376" fill="white"/>
<rect x="0.630747" y="83.6307" width="170.302" height="46.6753" rx="23.3376" stroke="#005BAC" stroke-width="1.26149"/>
<path d="M28.4089 114.83V112.913H31.6585V102.579H28.9942V101.105C30.3869 100.843 31.3759 100.5 32.2237 99.9549H33.9797V112.913H36.8862V114.83H28.4089ZM41.1916 115.093C40.3237 115.093 39.6375 114.427 39.6375 113.478C39.6375 112.509 40.3237 111.823 41.1916 111.823C42.0595 111.823 42.7458 112.509 42.7458 113.478C42.7458 114.427 42.0595 115.093 41.1916 115.093ZM52.31 98.5622V100.036H46.0731V98.5622H52.31ZM53.0568 101.226V102.72H45.0034V101.226H53.0568ZM50.554 110.895H47.5668V113.801H50.554V110.895ZM52.2292 109.381V115.315H47.5668V116.163H45.9117V109.381H52.2292ZM45.952 108.129V106.656H52.2898V108.129H45.952ZM45.952 105.425V103.972H52.2898V105.425H45.952ZM63.7542 104.678V106.535H59.3945V116.405H57.4972V106.535H52.9962V104.678H57.4972V97.9567H59.3945V104.678H63.7542ZM80.9509 113.418V102.619H82.7877V116.364H80.9509V115.194H68.0332V116.405H66.1965V102.619H68.0332V113.418H80.9509ZM77.6004 106.636V104.436H75.2187V106.636H77.6004ZM77.6004 110.35V108.129H75.2187V110.35H77.6004ZM71.2223 108.129V110.35H73.5838V108.129H71.2223ZM71.2223 104.436V106.636H73.5838V104.436H71.2223ZM65.5708 99.1677H83.373V100.904H75.3398V102.882H79.2353V111.904H69.6479V102.882H73.4627V100.904H65.5708V99.1677ZM94.6558 104.819C95.9476 104.819 96.9971 105.869 96.9971 107.161C96.9971 108.452 95.9476 109.502 94.6558 109.502C93.364 109.502 92.3145 108.452 92.3145 107.161C92.3145 105.869 93.364 104.819 94.6558 104.819ZM116.898 102.76V101.529H114.032V102.76H116.898ZM116.898 105.324V104.133H114.032V105.324H116.898ZM116.898 107.968V106.696H114.032V107.968H116.898ZM112.216 109.441V103.164C111.853 103.548 111.469 103.911 111.106 104.234C110.783 103.891 110.056 103.225 109.632 102.902C111.267 101.691 112.801 99.7531 113.709 97.7952L115.506 98.3604C115.243 98.9255 114.92 99.4907 114.577 100.056H116.999C117.383 99.3494 117.746 98.5218 117.968 97.9163L120.007 98.2796C119.643 98.8852 119.26 99.5109 118.897 100.056H123.055V101.529H118.695V102.76H122.409V104.133H118.695V105.324H122.449V106.696H118.695V107.968H123.559V109.441H112.216ZM107.412 110.027L106.1 108.594C107.21 107.645 108.764 106.05 110.097 104.496L111.106 105.768C109.975 107.181 108.643 108.695 107.412 110.027ZM111.186 99.4705L110.177 100.924C109.491 100.379 108.118 99.6723 107.029 99.2485L107.997 97.9567C109.087 98.3402 110.46 98.9861 111.186 99.4705ZM109.713 102.639L108.744 104.093C108.038 103.588 106.625 102.942 105.555 102.518L106.504 101.247C107.553 101.57 108.986 102.195 109.713 102.639ZM123.922 111.016V112.691H115.708V116.425H113.79V112.691H105.838V111.016H113.79V109.482H115.708V111.016H123.922ZM134.337 102.781V101.287H131.269V99.632H134.337V98.0374H136.073V99.632H139.484V98.0374H141.26V99.632H144.227V101.287H141.26V102.781H139.484V101.287H136.073V102.781H134.337ZM129.513 97.9769L131.249 98.4613C130.805 99.7934 130.28 101.146 129.675 102.438V116.405H127.899V105.707C127.374 106.535 126.849 107.282 126.284 107.928C126.123 107.463 125.638 106.414 125.356 105.95C127.031 103.992 128.585 101.004 129.513 97.9769ZM139.686 111.944H142.209V110.471H139.686V111.944ZM135.811 111.944H138.192V110.471H135.811V111.944ZM138.192 107.726H135.811V109.219H138.192V107.726ZM142.209 107.726H139.686V109.219H142.209V107.726ZM143.824 106.313V114.73C143.824 115.476 143.703 115.9 143.198 116.163C142.673 116.405 141.927 116.425 140.816 116.425C140.756 116.001 140.574 115.375 140.372 114.992C141.099 115.012 141.725 115.012 141.927 114.992C142.149 114.972 142.209 114.911 142.209 114.709V113.196H139.686V116.324H138.192V113.196H135.811V116.405H134.236V106.313H143.824ZM144.308 103.406V105.061H133.227V107.766C133.227 110.309 132.945 114.023 131.31 116.445C131.027 116.122 130.321 115.497 129.937 115.274C131.37 113.095 131.512 110.006 131.512 107.746V103.406H144.308Z" fill="#005BAC"/>
<rect x="160.84" y="231.226" width="150.118" height="46.6753" rx="23.3376" fill="white"/>
<rect x="160.84" y="231.226" width="150.118" height="46.6753" rx="23.3376" stroke="#005BAC" stroke-width="1.26149"/>
<path d="M192.918 254.836C192.07 254.836 191.041 255.3 190.153 256.572C190.395 259.519 191.465 260.911 193.059 260.911C194.351 260.911 195.38 259.741 195.38 257.803C195.38 255.906 194.512 254.836 192.918 254.836ZM193.079 262.688C190.254 262.688 187.953 260.326 187.953 255.28C187.953 249.568 190.637 247.287 193.564 247.287C195.219 247.287 196.43 247.994 197.278 248.882L196.006 250.295C195.461 249.649 194.553 249.185 193.685 249.185C191.788 249.185 190.213 250.618 190.112 254.856C190.98 253.787 192.272 253.141 193.342 253.141C195.844 253.141 197.52 254.675 197.52 257.803C197.52 260.75 195.501 262.688 193.079 262.688ZM201.401 262.688C200.533 262.688 199.847 262.022 199.847 261.073C199.847 260.104 200.533 259.418 201.401 259.418C202.269 259.418 202.956 260.104 202.956 261.073C202.956 262.022 202.269 262.688 201.401 262.688ZM207.857 251.021H213.468V249.588H215.366V251.021H221.037V249.023H207.857V251.021ZM223.338 258.913H216.334C217.747 260.831 220.19 261.981 223.58 262.425C223.177 262.789 222.713 263.556 222.45 264.06C218.514 263.394 215.951 261.82 214.397 259.034C213.307 260.972 211.087 262.728 206.646 264C206.444 263.616 205.899 262.89 205.496 262.506C209.21 261.557 211.208 260.286 212.277 258.913H205.778V257.278H213.145C213.307 256.733 213.408 256.209 213.448 255.664H208.059V254.11H213.468V252.576H207.736V251.405H206.02V247.368H213.509V245.511H215.446V247.368H222.955V251.405H221.401V252.576H215.366V254.11H221.078V255.664H215.345C215.305 256.209 215.224 256.754 215.103 257.278H223.338V258.913ZM232.038 246.157V247.63H226.467V246.157H232.038ZM230.524 258.732H227.92V261.638H230.524V258.732ZM232.159 257.218V263.132H227.92V264H226.305V257.218H232.159ZM226.346 255.886V254.432H232.038V255.886H226.346ZM232.038 251.687V253.141H226.346V251.687H232.038ZM225.397 250.375V248.882H232.744V250.375H225.397ZM239.788 261.557H244.007V263.334H232.764V261.557H234.177V251.768H235.913V261.557H237.951V248.397H233.39V246.621H243.663V248.397H239.788V253.605H243.542V255.381H239.788V261.557ZM248.225 251.021H253.836V249.588H255.733V251.021H261.405V249.023H248.225V251.021ZM263.706 258.913H256.702C258.115 260.831 260.557 261.981 263.948 262.425C263.545 262.789 263.08 263.556 262.818 264.06C258.882 263.394 256.319 261.82 254.765 259.034C253.675 260.972 251.454 262.728 247.014 264C246.812 263.616 246.267 262.89 245.864 262.506C249.577 261.557 251.576 260.286 252.645 258.913H246.146V257.278H253.513C253.675 256.733 253.776 256.209 253.816 255.664H248.427V254.11H253.836V252.576H248.104V251.405H246.388V247.368H253.877V245.511H255.814V247.368H263.323V251.405H261.768V252.576H255.733V254.11H261.445V255.664H255.713C255.673 256.209 255.592 256.754 255.471 257.278H263.706V258.913ZM266.592 262.89L265.583 262.345C266.29 261.335 266.532 259.62 266.613 257.904L267.682 258.126C267.602 259.922 267.38 261.8 266.592 262.89ZM268.025 258.288L268.914 258.187C269.136 259.357 269.236 260.871 269.196 261.84L268.247 261.981C268.308 260.972 268.207 259.478 268.025 258.288ZM271.558 255.341H274.262C274.262 255.341 274.262 255.825 274.242 256.027C274.081 259.741 273.919 261.699 273.637 262.688C276.099 261.517 277.29 260.003 277.835 258.429H274.726V253.322H278.299V251.93H276.059V250.779C275.534 251.243 274.969 251.667 274.404 252.01C274.222 251.607 273.859 250.961 273.556 250.577V250.759H271.558V252.293H273.556V253.766H271.558V255.341ZM268.328 253.766V255.341H270.024V253.766H268.328ZM270.024 250.759H268.328V252.293H270.024V250.759ZM270.024 247.832H268.328V249.286H270.024V247.832ZM276.422 250.456H281.892C280.761 249.467 279.732 248.276 279.046 247.146C278.461 248.236 277.512 249.427 276.422 250.456ZM282.053 254.735H279.974V255.139C279.974 255.765 279.954 256.39 279.873 257.016H282.053V254.735ZM276.281 257.016H278.178C278.279 256.37 278.299 255.744 278.299 255.119V254.735H276.281V257.016ZM283.668 258.429H280.539C281.327 260.266 282.719 261.759 284.536 262.506C284.152 262.829 283.607 263.535 283.345 263.979C281.508 263.091 280.156 261.477 279.308 259.458C278.622 261.174 277.27 262.789 274.666 264.04C274.484 263.677 273.98 263.091 273.616 262.789C273.536 263.051 273.435 263.233 273.334 263.354C273.031 263.737 272.688 263.899 272.224 263.939C271.8 264 271.134 264 270.448 263.979C270.407 263.535 270.266 262.89 270.024 262.506C270.649 262.567 271.194 262.567 271.457 262.567C271.679 262.567 271.84 262.526 271.981 262.324C272.163 262.102 272.304 261.497 272.426 260.185L271.739 260.447C271.598 259.721 271.174 258.651 270.75 257.823L271.558 257.561C271.901 258.187 272.264 258.994 272.466 259.64C272.526 258.893 272.587 257.985 272.627 256.834H266.754V246.278H273.98V247.832H271.558V249.286H273.556V250.517C275.453 249.386 277.29 247.267 278.158 245.491H279.813C281.004 247.408 282.881 249.286 284.657 250.214C284.334 250.638 283.951 251.304 283.708 251.829C283.224 251.526 282.719 251.163 282.235 250.759V251.93H279.974V253.322H283.668V258.429ZM271.053 261.174L270.145 261.376C270.084 260.508 269.781 259.155 269.458 258.126L270.306 257.965C270.67 258.974 270.992 260.326 271.053 261.174Z" fill="#005BAC"/>
<rect x="187.332" y="83.6307" width="251.037" height="46.6753" rx="23.3376" fill="white"/>
<rect x="187.332" y="83.6307" width="251.037" height="46.6753" rx="23.3376" stroke="#005BAC" stroke-width="1.26149"/>
<path d="M254.448 115.113V113.76C258.828 109.885 261.089 106.999 261.089 104.556C261.089 102.942 260.241 101.832 258.566 101.832C257.395 101.832 256.426 102.578 255.639 103.487L254.327 102.195C255.599 100.802 256.911 99.9746 258.848 99.9746C261.573 99.9746 263.329 101.751 263.329 104.435C263.329 107.301 261.049 110.268 257.9 113.276C258.667 113.195 259.595 113.135 260.322 113.135H264.036V115.113H254.448ZM268.079 115.375C267.211 115.375 266.525 114.709 266.525 113.76C266.525 112.791 267.211 112.105 268.079 112.105C268.947 112.105 269.633 112.791 269.633 113.76C269.633 114.709 268.947 115.375 268.079 115.375ZM281.478 114.669C281.559 114.325 281.619 113.861 281.619 113.397V101.448C281.619 100.621 281.498 99.9544 281.498 99.8333H283.839C283.819 99.9544 283.739 100.621 283.739 101.448V112.61C285.495 111.823 287.775 110.107 289.229 107.967L290.46 109.703C288.744 111.984 285.898 114.103 283.577 115.274C283.214 115.476 282.972 115.658 282.81 115.779L281.478 114.669ZM272.173 114.487C273.929 113.276 275.08 111.439 275.665 109.582C276.25 107.786 276.25 103.85 276.25 101.529C276.25 100.843 276.21 100.358 276.089 99.8939H278.43C278.41 100.055 278.329 100.802 278.329 101.509C278.329 103.81 278.249 108.109 277.704 110.127C277.098 112.347 275.826 114.325 274.111 115.779L272.173 114.487ZM293.225 106.111C293.891 106.151 295.142 106.232 296.232 106.232H307.212C308.181 106.232 308.968 106.151 309.473 106.111V108.613C309.029 108.593 308.101 108.512 307.212 108.512H296.232C295.122 108.512 293.911 108.553 293.225 108.613V106.111ZM318.051 113.256V101.589C318.051 100.943 317.991 100.015 317.87 99.3287H320.352C320.292 99.9948 320.211 100.883 320.211 101.589V104.738C322.895 105.545 326.73 106.978 328.749 107.967L327.84 110.167C325.721 109.017 322.431 107.745 320.211 107.019V113.256C320.211 113.881 320.271 115.113 320.372 115.839H317.89C317.991 115.133 318.051 114.043 318.051 113.256ZM343.019 112.489V114.325H345.4V112.489H343.019ZM339.426 105.303V106.575C341.041 105.384 342.332 103.709 343.281 101.731H341.424V103.648H339.83V101.165H336.681C336.459 102.578 336.197 103.991 335.853 105.303H339.426ZM337.831 112.63V106.938H335.652V112.63H337.831ZM345.4 107.846V106.111H343.019V107.846H345.4ZM345.4 111.076V109.259H343.019V111.076H345.4ZM350.991 114.325V115.88H343.019V116.707H341.222V107.523C340.96 107.766 340.698 107.988 340.435 108.189C340.254 107.907 339.789 107.402 339.426 107.039V114.265H335.652V115.839H334.118V110.026C333.835 110.571 333.532 111.076 333.189 111.54C332.987 111.116 332.463 110.188 332.14 109.764C333.593 107.705 334.4 104.556 334.885 101.165H332.765V99.47H339.87V100.136H343.947C344.169 99.4902 344.371 98.8443 344.532 98.1581L346.329 98.5012C346.188 99.0663 346.006 99.6113 345.824 100.136H350.89V103.648H349.195V101.731H345.219C344.795 102.74 344.29 103.668 343.725 104.536H345.824C346.167 103.81 346.47 102.942 346.652 102.296L348.388 102.679C348.105 103.305 347.802 103.951 347.5 104.536H350.426V106.111H347.136V107.846H350.063V109.259H347.136V111.076H350.063V112.489H347.136V114.325H350.991ZM355.331 102.134V105H353.494V100.358H360.881V98.1984H362.88V100.358H370.348V105H368.43V102.134H355.331ZM362.859 110.773V114.406C363.748 114.527 364.696 114.588 365.705 114.588C366.573 114.588 369.964 114.588 371.115 114.547C370.812 114.991 370.489 115.9 370.408 116.445H365.604C361.648 116.445 358.742 115.779 356.905 112.61C356.239 114.325 355.311 115.738 354.059 116.808C353.757 116.465 352.969 115.819 352.505 115.516C354.725 113.861 355.755 111.035 356.179 107.503L358.116 107.685C357.995 108.613 357.834 109.501 357.632 110.329C358.338 112.206 359.469 113.276 360.922 113.881V106.05H356.259V104.254H367.623V106.05H362.859V109.017H368.632V110.773H362.859Z" fill="#005BAC"/>
<rect x="327.358" y="229.964" width="111.011" height="49.1983" rx="24.5991" fill="white"/>
<rect x="327.358" y="229.964" width="111.011" height="49.1983" rx="24.5991" stroke="#005BAC" stroke-width="1.26149"/>
<path d="M357.318 261.164C357.581 255.734 358.529 252.263 361.395 248.266H354.412V246.288H363.979V247.721C360.487 252.061 359.942 255.351 359.7 261.164H357.318ZM367.941 261.426C367.073 261.426 366.387 260.76 366.387 259.811C366.387 258.843 367.073 258.156 367.941 258.156C368.809 258.156 369.495 258.843 369.495 259.811C369.495 260.76 368.809 261.426 367.941 261.426ZM377.97 253.696L377.283 253.514C377.566 252.828 377.929 251.819 378.131 251.092H374.639C375.003 251.879 375.346 252.868 375.427 253.514L374.76 253.696H377.97ZM377.243 247.742V249.498H380.775V251.092H378.898L379.766 251.314C379.423 252.162 379.06 253.05 378.737 253.696H380.533V255.31H377.243V257.208H380.271V258.802H377.243V262.698H375.487V258.802H372.318V257.208H375.487V255.31H372.137V253.696H373.893C373.792 253.01 373.489 252.061 373.126 251.314L373.953 251.092H371.793V249.498H375.487V247.742H372.52V246.167H375.487V244.27H377.243V246.167H380.028V247.742H377.243ZM383.016 253.474V261.345C383.944 260.7 384.731 259.872 385.418 258.923C384.388 257.329 383.601 255.472 383.016 253.474ZM387.819 253.474H384.59C385.034 254.846 385.64 256.158 386.386 257.349C387.032 256.138 387.496 254.826 387.819 253.474ZM388.667 251.859L389.818 252.283C389.414 254.685 388.647 256.945 387.537 258.863C388.405 259.872 389.414 260.7 390.544 261.265C390.141 261.608 389.575 262.294 389.293 262.758C388.263 262.153 387.335 261.345 386.507 260.377C385.801 261.305 384.973 262.112 384.045 262.779C383.803 262.435 383.399 261.991 383.016 261.689V262.758H381.32V245.118H389.353V248.932C389.353 249.8 389.172 250.285 388.465 250.547C387.799 250.809 386.77 250.809 385.256 250.809C385.175 250.325 384.933 249.639 384.691 249.195C385.841 249.235 386.911 249.235 387.214 249.215C387.517 249.195 387.597 249.134 387.597 248.912V246.773H383.016V251.94H388.364L388.667 251.859ZM405.924 256.744H396.741V260.074H405.924V256.744ZM394.843 262.879V255.008H407.882V262.839H405.924V261.81H396.741V262.879H394.843ZM402.695 251.496H410.062V253.252H392.442V251.496H400.717V248.71H396.034C395.449 249.679 394.843 250.527 394.238 251.213C393.834 250.951 392.987 250.446 392.522 250.204C393.976 248.831 395.247 246.571 395.974 244.371L397.851 244.815C397.588 245.541 397.286 246.288 396.963 246.995H400.717V244.25H402.695V246.995H408.669V248.71H402.695V251.496Z" fill="#005BAC"/>
<rect x="0.630747" y="229.964" width="143.81" height="49.1983" rx="24.5991" fill="white"/>
<rect x="0.630747" y="229.964" width="143.81" height="49.1983" rx="24.5991" stroke="#005BAC" stroke-width="1.26149"/>
<path d="M32.0824 261.891C29.741 261.891 28.2676 260.942 27.2181 259.913L28.3282 258.399C29.1759 259.247 30.2456 259.994 31.7998 259.994C33.4751 259.994 34.7467 258.803 34.7467 256.825C34.7467 254.847 33.6164 253.716 31.9209 253.716C30.9723 253.716 30.4071 253.999 29.5392 254.564L28.4089 253.817L28.853 246.753H36.3816V248.731H30.8713L30.5282 252.546C31.1741 252.223 31.7594 252.021 32.5668 252.021C35.0494 252.021 37.088 253.494 37.088 256.744C37.088 260.034 34.6861 261.891 32.0824 261.891ZM41.1916 261.891C40.3237 261.891 39.6375 261.225 39.6375 260.276C39.6375 259.307 40.3237 258.621 41.1916 258.621C42.0595 258.621 42.7458 259.307 42.7458 260.276C42.7458 261.225 42.0595 261.891 41.1916 261.891ZM49.1613 255.775H53.2586V254.06H49.1613V255.775ZM49.1613 250.951V252.627H53.2586V250.951H49.1613ZM59.3743 250.951H55.1963V252.627H59.3743V250.951ZM59.3743 255.775V254.06H55.1963V255.775H59.3743ZM63.3708 258.702V260.397H55.1963V263.263H53.2586V260.397H45.286V258.702H53.2586V257.309H47.3447V249.397H53.2586V248.146H45.8713V246.43H53.2586V244.694H55.1963V246.43H62.7047V248.146H55.1963V249.397H61.2514V257.309H55.1963V258.702H63.3708ZM83.4134 247.903H75.2591V250.225H82.5051V261.205C82.5051 262.174 82.2831 262.678 81.5968 262.94C80.8904 263.243 79.8206 263.243 78.2665 263.243C78.1656 262.779 77.9032 262.032 77.6408 261.568C78.7509 261.629 79.9014 261.629 80.2243 261.608C80.5473 261.588 80.6684 261.487 80.6684 261.184V252.001H75.2591V257.652H77.2976V253.394H78.9527V260.377H77.2976V259.307H71.4847V260.74H69.9103V253.394H71.4847V257.652H73.4223V252.001H68.2956V263.243H66.4791V250.225H73.4223V247.903H65.5708V246.087H83.4134V247.903ZM96.7146 249.559V248.327H93.8485V249.559H96.7146ZM96.7146 252.122V250.931H93.8485V252.122H96.7146ZM96.7146 254.766V253.494H93.8485V254.766H96.7146ZM92.0319 256.239V249.962C91.6686 250.346 91.2851 250.709 90.9218 251.032C90.5988 250.689 89.8722 250.023 89.4484 249.7C91.0833 248.489 92.6172 246.551 93.5255 244.593L95.3219 245.158C95.0595 245.724 94.7365 246.289 94.3934 246.854H96.8155C97.199 246.147 97.5623 245.32 97.7843 244.714L99.8229 245.078C99.4596 245.683 99.0761 246.309 98.7128 246.854H102.871V248.327H98.5109V249.559H102.225V250.931H98.5109V252.122H102.265V253.494H98.5109V254.766H103.375V256.239H92.0319ZM87.2281 256.825L85.9162 255.392C87.0263 254.443 88.5805 252.849 89.9126 251.294L90.9218 252.566C89.7915 253.979 88.4594 255.493 87.2281 256.825ZM91.0025 246.269L89.9933 247.722C89.3071 247.177 87.9346 246.47 86.8446 246.047L87.8135 244.755C88.9034 245.138 90.2759 245.784 91.0025 246.269ZM89.5291 249.437L88.5603 250.891C87.8538 250.386 86.441 249.74 85.3712 249.316L86.3199 248.045C87.3694 248.368 88.8025 248.993 89.5291 249.437ZM103.739 257.814V259.489H95.5237V263.223H93.6062V259.489H85.6538V257.814H93.6062V256.28H95.5237V257.814H103.739ZM114.153 249.579V248.085H111.086V246.43H114.153V244.836H115.889V246.43H119.3V244.836H121.077V246.43H124.044V248.085H121.077V249.579H119.3V248.085H115.889V249.579H114.153ZM109.33 244.775L111.065 245.259C110.621 246.592 110.097 247.944 109.491 249.236V263.203H107.715V252.505C107.19 253.333 106.665 254.08 106.1 254.726C105.939 254.261 105.454 253.212 105.172 252.748C106.847 250.79 108.401 247.803 109.33 244.775ZM119.502 258.742H122.025V257.269H119.502V258.742ZM115.627 258.742H118.009V257.269H115.627V258.742ZM118.009 254.524H115.627V256.017H118.009V254.524ZM122.025 254.524H119.502V256.017H122.025V254.524ZM123.64 253.111V261.528C123.64 262.274 123.519 262.698 123.014 262.961C122.489 263.203 121.743 263.223 120.633 263.223C120.572 262.799 120.39 262.174 120.188 261.79C120.915 261.81 121.541 261.81 121.743 261.79C121.965 261.77 122.025 261.709 122.025 261.507V259.994H119.502V263.122H118.009V259.994H115.627V263.203H114.053V253.111H123.64ZM124.124 250.204V251.86H113.043V254.564C113.043 257.107 112.761 260.821 111.126 263.243C110.843 262.92 110.137 262.295 109.753 262.073C111.186 259.893 111.328 256.805 111.328 254.544V250.204H124.124Z" fill="#005BAC"/>
<rect x="0.630747" y="158.059" width="251.037" height="46.6753" rx="23.3376" fill="white"/>
<rect x="0.630747" y="158.059" width="251.037" height="46.6753" rx="23.3376" stroke="#005BAC" stroke-width="1.26149"/>
<path d="M32.3851 189.521C30.0438 189.521 28.53 188.593 27.541 187.482L28.6713 185.989C29.5392 186.877 30.6493 187.624 32.1833 187.624C33.8585 187.624 35.009 186.695 35.009 185.141C35.009 183.506 33.9595 182.437 30.6089 182.437V180.721C33.5356 180.721 34.5044 179.611 34.5044 178.117C34.5044 176.805 33.6365 175.998 32.2236 175.978C31.0732 175.998 30.1043 176.543 29.2566 177.37L28.0456 175.917C29.2162 174.868 30.5887 174.121 32.3044 174.121C34.9687 174.121 36.8458 175.513 36.8458 177.956C36.8458 179.671 35.8568 180.862 34.2824 181.447V181.548C35.998 181.972 37.3504 183.264 37.3504 185.262C37.3504 187.947 35.1099 189.521 32.3851 189.521ZM41.4944 189.521C40.6265 189.521 39.9402 188.855 39.9402 187.906C39.9402 186.938 40.6265 186.251 41.4944 186.251C42.3623 186.251 43.0485 186.938 43.0485 187.906C43.0485 188.855 42.3623 189.521 41.4944 189.521ZM60.4037 173.798C60.3633 174.323 60.323 174.928 60.323 175.655V179.247C60.323 183.87 59.5963 185.585 58.1027 187.281C56.7908 188.815 54.7522 189.743 53.2788 190.227L51.6035 188.471C53.521 187.987 55.1962 187.22 56.4476 185.848C57.8605 184.233 58.1229 182.659 58.1229 179.126V175.655C58.1229 174.928 58.0624 174.323 58.0018 173.798H60.4037ZM51.0384 173.959C50.998 174.383 50.9576 174.888 50.9576 175.453V182.214C50.9576 182.739 50.998 183.446 51.0384 183.849H48.7172C48.7374 183.506 48.7979 182.8 48.7979 182.214V175.453C48.7979 175.09 48.7778 174.383 48.7172 173.959H51.0384ZM81.1326 175.675C80.9913 175.877 80.6885 176.381 80.5472 176.724C79.8408 178.38 78.6499 180.66 77.2371 182.477C79.316 184.253 81.7583 186.857 83.0097 188.391L81.2335 189.965C79.9013 188.149 77.883 185.928 75.8848 184.071C73.7251 186.372 71.0002 188.532 68.1139 189.884L66.479 188.169C69.7488 186.917 72.7764 184.495 74.7746 182.255C76.1471 180.721 77.4995 178.501 77.9839 176.926H70.5764C69.7892 176.926 68.6993 177.027 68.3763 177.047V174.767C68.78 174.827 69.9507 174.908 70.5764 174.908H78.0646C78.8114 174.908 79.4775 174.827 79.8206 174.706L81.1326 175.675ZM96.0283 173.556C95.6246 174.161 95.2008 174.948 94.9787 175.352C94.898 175.513 94.7971 175.695 94.6962 175.857H99.5403C100.105 175.857 100.671 175.796 101.054 175.655L102.709 176.664C102.507 176.987 102.285 177.491 102.144 177.895C101.599 179.833 100.408 182.537 98.5917 184.758C96.7347 187.059 94.2925 188.895 90.5181 190.349L88.641 188.673C92.5365 187.503 94.9384 185.726 96.7347 183.627C98.2283 181.912 99.4394 179.369 99.8027 177.673H93.5053C92.2135 179.409 90.4979 181.205 88.3786 182.618L86.6024 181.286C90.1144 179.187 91.9915 176.381 92.9402 174.605C93.1824 174.201 93.5255 173.374 93.687 172.789L96.0283 173.556ZM124.064 175.614C123.882 175.836 123.559 176.22 123.398 176.462C122.53 177.935 120.612 180.499 118.453 182.033L116.777 180.681C118.554 179.651 120.31 177.653 120.895 176.502H109.834C109.027 176.502 108.32 176.563 107.452 176.624V174.383C108.199 174.484 109.027 174.565 109.834 174.565H121.117C121.561 174.565 122.469 174.504 122.792 174.423L124.064 175.614ZM115.909 178.299C115.909 183.567 115.607 187.442 110.298 190.167L108.441 188.653C109.027 188.451 109.733 188.128 110.379 187.664C113.265 185.807 113.73 183.264 113.73 179.914C113.73 179.369 113.709 178.884 113.608 178.299H115.909ZM130.794 186.615V180.781C128.857 181.165 127.161 181.528 126.334 181.71L125.95 179.591C126.879 179.469 128.716 179.147 130.794 178.763V175.574C130.794 174.928 130.754 174.121 130.653 173.515H133.055C132.954 174.121 132.894 174.948 132.894 175.574V178.38C136.103 177.754 139.332 177.108 140.2 176.906C140.705 176.785 141.129 176.664 141.431 176.482L142.945 177.673C142.784 177.915 142.541 178.299 142.38 178.602C141.472 180.277 139.776 182.921 138.222 184.475L136.466 183.446C137.899 182.134 139.312 180.075 139.897 178.945C139.433 179.046 136.163 179.691 132.894 180.358V186.07C132.894 187.402 133.338 187.846 135.659 187.846C137.899 187.846 139.978 187.624 141.997 187.22L141.916 189.4C140.16 189.642 137.98 189.824 135.618 189.824C131.481 189.824 130.794 188.774 130.794 186.615ZM161.474 175.675C161.333 175.877 161.03 176.381 160.889 176.724C160.182 178.38 158.991 180.66 157.578 182.477C159.657 184.253 162.1 186.857 163.351 188.391L161.575 189.965C160.243 188.149 158.224 185.928 156.226 184.071C154.066 186.372 151.342 188.532 148.455 189.884L146.82 188.169C150.09 186.917 153.118 184.495 155.116 182.255C156.489 180.721 157.841 178.501 158.325 176.926H150.918C150.131 176.926 149.041 177.027 148.718 177.047V174.767C149.121 174.827 150.292 174.908 150.918 174.908H158.406C159.153 174.908 159.819 174.827 160.162 174.706L161.474 175.675ZM181.84 174.504C181.618 174.908 181.274 175.695 181.113 176.139C180.467 177.814 179.498 179.974 178.206 181.871C180.003 183.345 181.739 184.919 183.131 186.433L181.517 188.209C180.063 186.534 178.55 185.101 176.874 183.648C175.038 185.888 172.616 188.189 169.144 190.046L167.368 188.451C170.799 186.816 173.241 184.717 175.219 182.275C173.746 181.084 171.647 179.53 169.648 178.299L170.981 176.684C172.676 177.754 174.916 179.308 176.531 180.539C177.722 178.783 178.469 176.987 179.054 175.332C179.216 174.888 179.397 174.161 179.498 173.677L181.84 174.504ZM190.095 174.222C191.508 175.17 194.132 177.269 195.262 178.44L193.667 180.075C192.618 179.005 190.115 176.805 188.621 175.796L190.095 174.222ZM188.016 187.725C191.387 187.22 194.01 186.09 195.948 184.899C199.198 182.901 201.721 179.873 202.952 177.29L204.183 179.49C202.73 182.114 200.247 184.859 197.099 186.796C195.06 188.048 192.497 189.238 189.368 189.804L188.016 187.725ZM212.176 187.402V175.735C212.176 175.09 212.115 174.161 211.994 173.475H214.477C214.416 174.141 214.336 175.029 214.336 175.735V178.884C217.02 179.691 220.855 181.125 222.873 182.114L221.965 184.314C219.846 183.163 216.556 181.892 214.336 181.165V187.402C214.336 188.027 214.396 189.259 214.497 189.985H212.014C212.115 189.279 212.176 188.189 212.176 187.402Z" fill="#005BAC"/>
<rect x="271.852" y="156.797" width="166.517" height="49.1983" rx="24.5991" fill="white"/>
<rect x="271.852" y="156.797" width="166.517" height="49.1983" rx="24.5991" stroke="#005BAC" stroke-width="1.26149"/>
<path d="M301.278 182.204H305.375V178.309C305.375 177.501 305.436 176.25 305.476 175.422H305.396C305.032 176.189 304.629 176.956 304.205 177.723L301.278 182.204ZM305.375 187.997V184.001H298.937V182.446L304.851 173.122H307.555V182.204H309.432V184.001H307.555V187.997H305.375ZM313.052 188.259C312.184 188.259 311.497 187.593 311.497 186.645C311.497 185.676 312.184 184.99 313.052 184.99C313.92 184.99 314.606 185.676 314.606 186.645C314.606 187.593 313.92 188.259 313.052 188.259ZM321.163 177.582V182.911C321.849 182.608 322.575 182.305 323.262 182.023L323.686 183.678C321.566 184.707 319.265 185.757 317.469 186.564L316.742 184.667C317.469 184.425 318.397 184.061 319.407 183.637V177.582H316.924V175.806H319.407V171.325H321.163V175.806H323.403V177.582H321.163ZM327.965 187.492H332.385C333.495 187.492 333.697 186.988 333.858 184.788C334.282 185.07 335.009 185.373 335.513 185.474C335.251 188.259 334.686 189.168 332.486 189.168H327.864C325.381 189.168 324.675 188.542 324.675 186.12V180.287L323.282 180.872L322.575 179.217L324.675 178.329V172.98H326.451V177.582L328.711 176.634V171.083H330.467V175.887L332.667 174.958L333.031 174.676L333.354 174.413L334.666 174.918L334.585 175.241C334.585 178.995 334.544 181.74 334.423 182.527C334.322 183.375 333.979 183.819 333.354 183.98C332.809 184.182 332.001 184.202 331.416 184.202C331.355 183.718 331.194 183.012 330.992 182.608C331.416 182.628 331.961 182.628 332.163 182.628C332.425 182.628 332.607 182.547 332.688 182.144C332.768 181.74 332.809 179.863 332.809 176.795L330.467 177.804V185.05H328.711V178.551L326.451 179.52V186.14C326.451 187.27 326.673 187.492 327.965 187.492ZM347.523 178.067L345.928 178.632C345.787 177.643 345.202 176.109 344.576 174.938L346.049 174.433C346.715 175.564 347.341 177.078 347.523 178.067ZM344.051 178.41L342.537 179.096C342.275 178.147 341.548 176.694 340.842 175.604L342.235 175.019C342.981 176.068 343.789 177.461 344.051 178.41ZM349.904 175.019L351.701 175.483C350.732 177.925 349.42 180.045 347.825 181.821C349.359 182.689 350.752 183.617 351.681 184.425L350.53 185.898C349.602 185.05 348.169 184.061 346.574 183.113C345.121 184.465 343.466 185.595 341.649 186.483C341.407 186.1 340.801 185.333 340.418 184.969C342.093 184.243 343.607 183.314 344.939 182.184C343.668 181.498 342.376 180.872 341.185 180.388L342.214 179.116C343.486 179.621 344.879 180.267 346.211 180.953C347.805 179.298 349.037 177.3 349.904 175.019ZM339.873 186.826H352.771V173.747H339.873V186.826ZM337.996 171.951H354.728V189.531H352.771V188.623H339.873V189.531H337.996V171.951ZM361.954 171.144L363.751 171.709C363.206 173.122 362.519 174.575 361.752 175.927V189.551H359.855V178.894C359.33 179.621 358.765 180.287 358.2 180.872C358.018 180.408 357.473 179.358 357.15 178.934C359.068 177.037 360.864 174.09 361.954 171.144ZM375.821 176.169H369.846V178.733H375.336V180.448H369.846V183.133H375.619V184.889H369.846V189.571H367.929V176.169H366.798C365.951 177.744 365.022 179.157 364.053 180.226C363.751 179.903 363.024 179.237 362.6 178.955C364.376 177.098 365.991 174.191 366.96 171.285L368.756 171.769C368.433 172.637 368.09 173.525 367.707 174.373H375.821V176.169ZM392.735 177.481L394.632 177.945C393.784 180.549 392.593 182.83 391.12 184.768C391.806 186.483 392.593 187.533 393.441 187.533C393.966 187.533 394.208 186.503 394.329 183.9C394.773 184.344 395.439 184.768 395.944 184.949C395.641 188.502 394.955 189.45 393.3 189.45C391.826 189.45 390.656 188.32 389.747 186.423C388.597 187.634 387.325 188.663 385.933 189.511C385.65 189.107 384.984 188.32 384.56 187.977C386.235 187.048 387.729 185.878 388.96 184.445C388.234 182.164 387.769 179.278 387.527 176.129H381.068V178.571H386.135V179.298C386.034 183.678 385.933 185.414 385.509 185.979C385.146 186.403 384.762 186.564 384.217 186.625C383.712 186.705 382.804 186.705 381.835 186.665C381.795 186.12 381.613 185.393 381.331 184.909C382.158 184.99 382.945 185.01 383.268 185.01C383.551 185.01 383.753 184.949 383.894 184.768C384.116 184.485 384.237 183.335 384.298 180.287H381.068C381.048 183.153 380.705 187.19 378.929 189.793C378.606 189.41 377.778 188.744 377.355 188.502C378.969 186.08 379.111 182.608 379.111 180.004V174.292H387.406C387.346 173.243 387.305 172.153 387.305 171.083H389.283C389.263 172.173 389.283 173.243 389.344 174.292H393.239C392.452 173.626 391.14 172.758 390.07 172.173L391.201 171.022C392.392 171.648 393.905 172.577 394.693 173.263L393.724 174.292H395.782V176.129H389.445C389.647 178.531 389.969 180.711 390.434 182.507C391.403 181.013 392.149 179.338 392.735 177.481Z" fill="#005BAC"/>
</svg>
