<svg width="789" height="99" viewBox="0 0 789 99" fill="none" xmlns="http://www.w3.org/2000/svg">
<path d="M365 22H742V48.4375H365V76H742" stroke="#005BAC"/>
<path d="M268.5 0.5V98.5H0.5V0.5H268.5Z" fill="white" stroke="#005BAC"/>
<rect x="293.5" y="3.22119" width="135" height="37" rx="18.5" fill="white"/>
<rect x="293.5" y="3.22119" width="135" height="37" rx="18.5" stroke="#005BAC"/>
<path d="M315.52 27.7212V26.2012H318.096V18.0092H315.984V16.8412C317.088 16.6332 317.872 16.3612 318.544 15.9292H319.936V26.2012H322.24V27.7212H315.52ZM325.653 27.9292C324.965 27.9292 324.421 27.4012 324.421 26.6492C324.421 25.8812 324.965 25.3372 325.653 25.3372C326.341 25.3372 326.885 25.8812 326.885 26.6492C326.885 27.4012 326.341 27.9292 325.653 27.9292ZM334.467 14.8252V15.9932H329.523V14.8252H334.467ZM335.059 16.9372V18.1212H328.675V16.9372H335.059ZM333.075 24.6012H330.707V26.9052H333.075V24.6012ZM334.403 23.4012V28.1052H330.707V28.7772H329.395V23.4012H334.403ZM329.427 22.4092V21.2412H334.451V22.4092H329.427ZM329.427 20.2652V19.1132H334.451V20.2652H329.427ZM343.539 19.6732V21.1452H340.083V28.9692H338.579V21.1452H335.011V19.6732H338.579V14.3452H340.083V19.6732H343.539ZM357.171 26.6012V18.0412H358.627V28.9372H357.171V28.0092H346.931V28.9692H345.475V18.0412H346.931V26.6012H357.171ZM354.515 21.2252V19.4812H352.627V21.2252H354.515ZM354.515 24.1692V22.4092H352.627V24.1692H354.515ZM349.459 22.4092V24.1692H351.331V22.4092H349.459ZM349.459 19.4812V21.2252H351.331V19.4812H349.459ZM344.979 15.3052H359.091V16.6812H352.723V18.2492H355.811V25.4012H348.211V18.2492H351.235V16.6812H344.979V15.3052ZM368.035 19.7852C369.059 19.7852 369.891 20.6172 369.891 21.6412C369.891 22.6652 369.059 23.4972 368.035 23.4972C367.011 23.4972 366.179 22.6652 366.179 21.6412C366.179 20.6172 367.011 19.7852 368.035 19.7852ZM385.667 18.1532V17.1772H383.395V18.1532H385.667ZM385.667 20.1852V19.2412H383.395V20.1852H385.667ZM385.667 22.2812V21.2732H383.395V22.2812H385.667ZM381.955 23.4492V18.4732C381.667 18.7772 381.363 19.0652 381.075 19.3212C380.819 19.0492 380.243 18.5212 379.907 18.2652C381.203 17.3052 382.419 15.7692 383.139 14.2172L384.563 14.6652C384.355 15.1132 384.099 15.5612 383.827 16.0092H385.747C386.051 15.4492 386.339 14.7932 386.515 14.3132L388.131 14.6012C387.843 15.0812 387.539 15.5772 387.251 16.0092H390.547V17.1772H387.091V18.1532H390.035V19.2412H387.091V20.1852H390.067V21.2732H387.091V22.2812H390.947V23.4492H381.955ZM378.147 23.9132L377.107 22.7772C377.987 22.0252 379.219 20.7612 380.275 19.5292L381.075 20.5372C380.179 21.6572 379.123 22.8572 378.147 23.9132ZM381.139 15.5452L380.339 16.6972C379.795 16.2652 378.707 15.7052 377.843 15.3692L378.611 14.3452C379.475 14.6492 380.563 15.1612 381.139 15.5452ZM379.971 18.0572L379.203 19.2092C378.643 18.8092 377.523 18.2972 376.675 17.9612L377.427 16.9532C378.259 17.2092 379.395 17.7052 379.971 18.0572ZM391.235 24.6972V26.0252H384.723V28.9852H383.203V26.0252H376.899V24.6972H383.203V23.4812H384.723V24.6972H391.235ZM399.491 18.1692V16.9852H397.059V15.6732H399.491V14.4092H400.867V15.6732H403.571V14.4092H404.979V15.6732H407.331V16.9852H404.979V18.1692H403.571V16.9852H400.867V18.1692H399.491ZM395.667 14.3612L397.043 14.7452C396.691 15.8012 396.275 16.8732 395.795 17.8972V28.9692H394.387V20.4892C393.971 21.1452 393.555 21.7372 393.107 22.2492C392.979 21.8812 392.595 21.0492 392.371 20.6812C393.699 19.1292 394.931 16.7612 395.667 14.3612ZM403.731 25.4332H405.731V24.2652H403.731V25.4332ZM400.659 25.4332H402.547V24.2652H400.659V25.4332ZM402.547 22.0892H400.659V23.2732H402.547V22.0892ZM405.731 22.0892H403.731V23.2732H405.731V22.0892ZM407.011 20.9692V27.6412C407.011 28.2332 406.915 28.5692 406.515 28.7772C406.099 28.9692 405.507 28.9852 404.627 28.9852C404.579 28.6492 404.435 28.1532 404.275 27.8492C404.851 27.8652 405.347 27.8652 405.507 27.8492C405.683 27.8332 405.731 27.7852 405.731 27.6252V26.4252H403.731V28.9052H402.547V26.4252H400.659V28.9692H399.411V20.9692H407.011ZM407.395 18.6652V19.9772H398.611V22.1212C398.611 24.1372 398.387 27.0812 397.091 29.0012C396.867 28.7452 396.307 28.2492 396.003 28.0732C397.139 26.3452 397.251 23.8972 397.251 22.1052V18.6652H407.395Z" fill="#005BAC"/>
<rect x="568.5" y="58.5" width="119" height="37" rx="18.5" fill="white"/>
<rect x="568.5" y="58.5" width="119" height="37" rx="18.5" stroke="#005BAC"/>
<path d="M593.928 76.984C593.256 76.984 592.44 77.352 591.736 78.36C591.928 80.696 592.776 81.8 594.04 81.8C595.064 81.8 595.88 80.872 595.88 79.336C595.88 77.832 595.192 76.984 593.928 76.984ZM594.056 83.208C591.816 83.208 589.992 81.336 589.992 77.336C589.992 72.808 592.12 71 594.44 71C595.752 71 596.712 71.56 597.384 72.264L596.376 73.384C595.944 72.872 595.224 72.504 594.536 72.504C593.032 72.504 591.784 73.64 591.704 77C592.392 76.152 593.416 75.64 594.264 75.64C596.248 75.64 597.576 76.856 597.576 79.336C597.576 81.672 595.976 83.208 594.056 83.208ZM600.653 83.208C599.965 83.208 599.421 82.68 599.421 81.928C599.421 81.16 599.965 80.616 600.653 80.616C601.341 80.616 601.885 81.16 601.885 81.928C601.885 82.68 601.341 83.208 600.653 83.208ZM605.771 73.96H610.219V72.824H611.723V73.96H616.219V72.376H605.771V73.96ZM618.043 80.216H612.491C613.611 81.736 615.547 82.648 618.235 83C617.915 83.288 617.547 83.896 617.339 84.296C614.219 83.768 612.187 82.52 610.955 80.312C610.091 81.848 608.331 83.24 604.811 84.248C604.651 83.944 604.219 83.368 603.899 83.064C606.843 82.312 608.427 81.304 609.275 80.216H604.123V78.92H609.963C610.091 78.488 610.171 78.072 610.203 77.64H605.931V76.408H610.219V75.192H605.675V74.264H604.315V71.064H610.251V69.592H611.787V71.064H617.739V74.264H616.507V75.192H611.723V76.408H616.251V77.64H611.707C611.675 78.072 611.611 78.504 611.515 78.92H618.043V80.216ZM624.939 70.104V71.272H620.523V70.104H624.939ZM623.739 80.072H621.675V82.376H623.739V80.072ZM625.035 78.872V83.56H621.675V84.248H620.395V78.872H625.035ZM620.427 77.816V76.664H624.939V77.816H620.427ZM624.939 74.488V75.64H620.427V74.488H624.939ZM619.675 73.448V72.264H625.499V73.448H619.675ZM631.083 82.312H634.427V83.72H625.515V82.312H626.635V74.552H628.011V82.312H629.627V71.88H626.011V70.472H634.155V71.88H631.083V76.008H634.059V77.416H631.083V82.312ZM637.771 73.96H642.219V72.824H643.723V73.96H648.219V72.376H637.771V73.96ZM650.043 80.216H644.491C645.611 81.736 647.547 82.648 650.235 83C649.915 83.288 649.547 83.896 649.339 84.296C646.219 83.768 644.187 82.52 642.955 80.312C642.091 81.848 640.331 83.24 636.811 84.248C636.651 83.944 636.219 83.368 635.899 83.064C638.843 82.312 640.427 81.304 641.275 80.216H636.123V78.92H641.963C642.091 78.488 642.171 78.072 642.203 77.64H637.931V76.408H642.219V75.192H637.675V74.264H636.315V71.064H642.251V69.592H643.787V71.064H649.739V74.264H648.507V75.192H643.723V76.408H648.251V77.64H643.707C643.675 78.072 643.611 78.504 643.515 78.92H650.043V80.216ZM652.331 83.368L651.531 82.936C652.091 82.136 652.283 80.776 652.347 79.416L653.195 79.592C653.131 81.016 652.955 82.504 652.331 83.368ZM653.467 79.72L654.171 79.64C654.347 80.568 654.427 81.768 654.395 82.536L653.643 82.648C653.691 81.848 653.611 80.664 653.467 79.72ZM656.267 77.384H658.411C658.411 77.384 658.411 77.768 658.395 77.928C658.267 80.872 658.139 82.424 657.915 83.208C659.867 82.28 660.811 81.08 661.243 79.832H658.779V75.784H661.611V74.68H659.835V73.768C659.419 74.136 658.971 74.472 658.523 74.744C658.379 74.424 658.091 73.912 657.851 73.608V73.752H656.267V74.968H657.851V76.136H656.267V77.384ZM653.707 76.136V77.384H655.051V76.136H653.707ZM655.051 73.752H653.707V74.968H655.051V73.752ZM655.051 71.432H653.707V72.584H655.051V71.432ZM660.123 73.512H664.459C663.563 72.728 662.747 71.784 662.203 70.888C661.739 71.752 660.987 72.696 660.123 73.512ZM664.587 76.904H662.939V77.224C662.939 77.72 662.923 78.216 662.859 78.712H664.587V76.904ZM660.011 78.712H661.515C661.595 78.2 661.611 77.704 661.611 77.208V76.904H660.011V78.712ZM665.867 79.832H663.387C664.011 81.288 665.115 82.472 666.555 83.064C666.251 83.32 665.819 83.88 665.611 84.232C664.155 83.528 663.083 82.248 662.411 80.648C661.867 82.008 660.795 83.288 658.731 84.28C658.587 83.992 658.187 83.528 657.899 83.288C657.835 83.496 657.755 83.64 657.675 83.736C657.435 84.04 657.163 84.168 656.795 84.2C656.459 84.248 655.931 84.248 655.387 84.232C655.355 83.88 655.243 83.368 655.051 83.064C655.547 83.112 655.979 83.112 656.187 83.112C656.363 83.112 656.491 83.08 656.603 82.92C656.747 82.744 656.859 82.264 656.955 81.224L656.411 81.432C656.299 80.856 655.963 80.008 655.627 79.352L656.267 79.144C656.539 79.64 656.827 80.28 656.987 80.792C657.035 80.2 657.083 79.48 657.115 78.568H652.459V70.2H658.187V71.432H656.267V72.584H657.851V73.56C659.355 72.664 660.811 70.984 661.499 69.576H662.811C663.755 71.096 665.243 72.584 666.651 73.32C666.395 73.656 666.091 74.184 665.899 74.6C665.515 74.36 665.115 74.072 664.731 73.752V74.68H662.939V75.784H665.867V79.832ZM655.867 82.008L655.147 82.168C655.099 81.48 654.859 80.408 654.603 79.592L655.275 79.464C655.563 80.264 655.819 81.336 655.867 82.008Z" fill="#005BAC"/>
<rect x="441.5" y="3.44482" width="135" height="37" rx="18.5" fill="white"/>
<rect x="441.5" y="3.44482" width="135" height="37" rx="18.5" stroke="#005BAC"/>
<path d="M462.848 27.9448V26.8728C466.32 23.8008 468.112 21.5128 468.112 19.5768C468.112 18.2968 467.44 17.4168 466.112 17.4168C465.184 17.4168 464.416 18.0088 463.792 18.7288L462.752 17.7048C463.76 16.6008 464.8 15.9448 466.336 15.9448C468.496 15.9448 469.888 17.3528 469.888 19.4808C469.888 21.7528 468.08 24.1048 465.584 26.4888C466.192 26.4248 466.928 26.3768 467.504 26.3768H470.448V27.9448H462.848ZM473.653 28.1528C472.965 28.1528 472.421 27.6248 472.421 26.8728C472.421 26.1048 472.965 25.5608 473.653 25.5608C474.341 25.5608 474.885 26.1048 474.885 26.8728C474.885 27.6248 474.341 28.1528 473.653 28.1528ZM484.275 27.5928C484.339 27.3208 484.387 26.9528 484.387 26.5848V17.1128C484.387 16.4568 484.291 15.9288 484.291 15.8328H486.147C486.131 15.9288 486.067 16.4568 486.067 17.1128V25.9608C487.459 25.3368 489.267 23.9768 490.419 22.2808L491.395 23.6568C490.035 25.4648 487.779 27.1448 485.939 28.0728C485.651 28.2328 485.459 28.3768 485.331 28.4728L484.275 27.5928ZM476.899 27.4488C478.291 26.4888 479.203 25.0328 479.667 23.5608C480.131 22.1368 480.131 19.0168 480.131 17.1768C480.131 16.6328 480.099 16.2488 480.003 15.8808H481.859C481.843 16.0088 481.779 16.6008 481.779 17.1608C481.779 18.9848 481.715 22.3928 481.283 23.9928C480.803 25.7528 479.795 27.3208 478.435 28.4728L476.899 27.4488ZM493.587 20.8088C494.115 20.8408 495.107 20.9048 495.971 20.9048H504.675C505.443 20.9048 506.067 20.8408 506.467 20.8088V22.7928C506.115 22.7768 505.379 22.7128 504.675 22.7128H495.971C495.091 22.7128 494.131 22.7448 493.587 22.7928V20.8088ZM513.267 26.4728V17.2248C513.267 16.7128 513.219 15.9768 513.123 15.4328H515.091C515.043 15.9608 514.979 16.6648 514.979 17.2248V19.7208C517.107 20.3608 520.147 21.4968 521.747 22.2808L521.027 24.0248C519.347 23.1128 516.739 22.1048 514.979 21.5288V26.4728C514.979 26.9688 515.027 27.9448 515.107 28.5208H513.139C513.219 27.9608 513.267 27.0968 513.267 26.4728ZM533.059 25.8648V27.3208H534.947V25.8648H533.059ZM530.211 20.1688V21.1768C531.491 20.2328 532.515 18.9048 533.267 17.3368H531.795V18.8568H530.531V16.8888H528.035C527.859 18.0088 527.651 19.1288 527.379 20.1688H530.211ZM528.947 25.9768V21.4648H527.219V25.9768H528.947ZM534.947 22.1848V20.8088H533.059V22.1848H534.947ZM534.947 24.7448V23.3048H533.059V24.7448H534.947ZM539.379 27.3208V28.5528H533.059V29.2088H531.635V21.9288C531.427 22.1208 531.219 22.2968 531.011 22.4568C530.867 22.2328 530.499 21.8328 530.211 21.5448V27.2728H527.219V28.5208H526.003V23.9128C525.779 24.3448 525.539 24.7448 525.267 25.1128C525.107 24.7768 524.691 24.0408 524.435 23.7048C525.587 22.0728 526.227 19.5768 526.611 16.8888H524.931V15.5448H530.563V16.0728H533.795C533.971 15.5608 534.131 15.0488 534.259 14.5048L535.683 14.7768C535.571 15.2248 535.427 15.6568 535.283 16.0728H539.299V18.8568H537.955V17.3368H534.803C534.467 18.1368 534.067 18.8728 533.619 19.5608H535.283C535.555 18.9848 535.795 18.2968 535.939 17.7848L537.315 18.0888C537.091 18.5848 536.851 19.0968 536.611 19.5608H538.931V20.8088H536.323V22.1848H538.643V23.3048H536.323V24.7448H538.643V25.8648H536.323V27.3208H539.379ZM542.819 17.6568V19.9288H541.363V16.2488H547.219V14.5368H548.803V16.2488H554.723V19.9288H553.203V17.6568H542.819ZM548.787 24.5048V27.3848C549.491 27.4808 550.243 27.5288 551.043 27.5288C551.731 27.5288 554.419 27.5288 555.331 27.4968C555.091 27.8488 554.835 28.5688 554.771 29.0008H550.963C547.827 29.0008 545.523 28.4728 544.067 25.9608C543.539 27.3208 542.803 28.4408 541.811 29.2888C541.571 29.0168 540.947 28.5048 540.579 28.2648C542.339 26.9528 543.155 24.7128 543.491 21.9128L545.027 22.0568C544.931 22.7928 544.803 23.4968 544.643 24.1528C545.203 25.6408 546.099 26.4888 547.251 26.9688V20.7608H543.555V19.3368H552.563V20.7608H548.787V23.1128H553.363V24.5048H548.787Z" fill="#005BAC"/>
<rect x="700.5" y="56.5" width="88" height="39" rx="19.5" fill="white"/>
<rect x="700.5" y="56.5" width="88" height="39" rx="19.5" stroke="#005BAC"/>
<path d="M724.25 81C724.458 76.696 725.21 73.944 727.482 70.776H721.946V69.208H729.53V70.344C726.762 73.784 726.33 76.392 726.138 81H724.25ZM732.671 81.208C731.983 81.208 731.439 80.68 731.439 79.928C731.439 79.16 731.983 78.616 732.671 78.616C733.359 78.616 733.903 79.16 733.903 79.928C733.903 80.68 733.359 81.208 732.671 81.208ZM740.621 75.08L740.077 74.936C740.301 74.392 740.589 73.592 740.749 73.016H737.981C738.269 73.64 738.541 74.424 738.605 74.936L738.077 75.08H740.621ZM740.045 70.36V71.752H742.845V73.016H741.357L742.045 73.192C741.773 73.864 741.485 74.568 741.229 75.08H742.653V76.36H740.045V77.864H742.445V79.128H740.045V82.216H738.653V79.128H736.141V77.864H738.653V76.36H735.997V75.08H737.389C737.309 74.536 737.069 73.784 736.781 73.192L737.437 73.016H735.725V71.752H738.653V70.36H736.301V69.112H738.653V67.608H740.045V69.112H742.253V70.36H740.045ZM744.621 74.904V81.144C745.357 80.632 745.981 79.976 746.525 79.224C745.709 77.96 745.085 76.488 744.621 74.904ZM748.429 74.904H745.869C746.221 75.992 746.701 77.032 747.293 77.976C747.805 77.016 748.173 75.976 748.429 74.904ZM749.101 73.624L750.013 73.96C749.693 75.864 749.085 77.656 748.205 79.176C748.893 79.976 749.693 80.632 750.589 81.08C750.269 81.352 749.821 81.896 749.597 82.264C748.781 81.784 748.045 81.144 747.389 80.376C746.829 81.112 746.173 81.752 745.437 82.28C745.245 82.008 744.925 81.656 744.621 81.416V82.264H743.277V68.28H749.645V71.304C749.645 71.992 749.501 72.376 748.941 72.584C748.413 72.792 747.597 72.792 746.397 72.792C746.333 72.408 746.141 71.864 745.949 71.512C746.861 71.544 747.709 71.544 747.949 71.528C748.189 71.512 748.253 71.464 748.253 71.288V69.592H744.621V73.688H748.861L749.101 73.624ZM762.781 77.496H755.501V80.136H762.781V77.496ZM753.997 82.36V76.12H764.333V82.328H762.781V81.512H755.501V82.36H753.997ZM760.221 73.336H766.061V74.728H752.093V73.336H758.653V71.128H754.941C754.477 71.896 753.997 72.568 753.517 73.112C753.197 72.904 752.525 72.504 752.157 72.312C753.309 71.224 754.317 69.432 754.893 67.688L756.381 68.04C756.173 68.616 755.933 69.208 755.677 69.768H758.653V67.592H760.221V69.768H764.957V71.128H760.221V73.336Z" fill="#005BAC"/>
<rect x="441.5" y="59.5" width="114" height="39" rx="19.5" fill="white"/>
<rect x="441.5" y="59.5" width="114" height="39" rx="19.5" stroke="#005BAC"/>
<path d="M466.432 84.5764C464.576 84.5764 463.408 83.8244 462.576 83.0084L463.456 81.8084C464.128 82.4804 464.976 83.0724 466.208 83.0724C467.536 83.0724 468.544 82.1284 468.544 80.5604C468.544 78.9924 467.648 78.0964 466.304 78.0964C465.552 78.0964 465.104 78.3204 464.416 78.7684L463.52 78.1764L463.872 72.5764H469.84V74.1444H465.472L465.2 77.1684C465.712 76.9124 466.176 76.7524 466.816 76.7524C468.784 76.7524 470.4 77.9204 470.4 80.4964C470.4 83.1044 468.496 84.5764 466.432 84.5764ZM473.653 84.5764C472.965 84.5764 472.421 84.0484 472.421 83.2964C472.421 82.5284 472.965 81.9844 473.653 81.9844C474.341 81.9844 474.885 82.5284 474.885 83.2964C474.885 84.0484 474.341 84.5764 473.653 84.5764ZM479.971 79.7284H483.219V78.3684H479.971V79.7284ZM479.971 75.9044V77.2324H483.219V75.9044H479.971ZM488.067 75.9044H484.755V77.2324H488.067V75.9044ZM488.067 79.7284V78.3684H484.755V79.7284H488.067ZM491.235 82.0484V83.3924H484.755V85.6644H483.219V83.3924H476.899V82.0484H483.219V80.9444H478.531V74.6724H483.219V73.6804H477.363V72.3204H483.219V70.9444H484.755V72.3204H490.707V73.6804H484.755V74.6724H489.555V80.9444H484.755V82.0484H491.235ZM507.123 73.4884H500.659V75.3284H506.403V84.0324C506.403 84.8004 506.227 85.2004 505.683 85.4084C505.123 85.6484 504.275 85.6484 503.043 85.6484C502.963 85.2804 502.755 84.6884 502.547 84.3204C503.427 84.3684 504.339 84.3684 504.595 84.3524C504.851 84.3364 504.947 84.2564 504.947 84.0164V76.7364H500.659V81.2164H502.275V77.8404H503.587V83.3764H502.275V82.5284H497.667V83.6644H496.419V77.8404H497.667V81.2164H499.203V76.7364H495.139V85.6484H493.699V75.3284H499.203V73.4884H492.979V72.0484H507.123V73.4884ZM517.667 74.8004V73.8244H515.395V74.8004H517.667ZM517.667 76.8324V75.8884H515.395V76.8324H517.667ZM517.667 78.9284V77.9204H515.395V78.9284H517.667ZM513.955 80.0964V75.1204C513.667 75.4244 513.363 75.7124 513.075 75.9684C512.819 75.6964 512.243 75.1684 511.907 74.9124C513.203 73.9524 514.419 72.4164 515.139 70.8644L516.563 71.3124C516.355 71.7604 516.099 72.2084 515.827 72.6564H517.747C518.051 72.0964 518.339 71.4404 518.515 70.9604L520.131 71.2484C519.843 71.7284 519.539 72.2244 519.251 72.6564H522.547V73.8244H519.091V74.8004H522.035V75.8884H519.091V76.8324H522.067V77.9204H519.091V78.9284H522.947V80.0964H513.955ZM510.147 80.5604L509.107 79.4244C509.987 78.6724 511.219 77.4084 512.275 76.1764L513.075 77.1844C512.179 78.3044 511.123 79.5044 510.147 80.5604ZM513.139 72.1924L512.339 73.3444C511.795 72.9124 510.707 72.3524 509.843 72.0164L510.611 70.9924C511.475 71.2964 512.563 71.8084 513.139 72.1924ZM511.971 74.7044L511.203 75.8564C510.643 75.4564 509.523 74.9444 508.675 74.6084L509.427 73.6004C510.259 73.8564 511.395 74.3524 511.971 74.7044ZM523.235 81.3444V82.6724H516.723V85.6324H515.203V82.6724H508.899V81.3444H515.203V80.1284H516.723V81.3444H523.235ZM531.491 74.8164V73.6324H529.059V72.3204H531.491V71.0564H532.867V72.3204H535.571V71.0564H536.979V72.3204H539.331V73.6324H536.979V74.8164H535.571V73.6324H532.867V74.8164H531.491ZM527.667 71.0084L529.043 71.3924C528.691 72.4484 528.275 73.5204 527.795 74.5444V85.6164H526.387V77.1364C525.971 77.7924 525.555 78.3844 525.107 78.8964C524.979 78.5284 524.595 77.6964 524.371 77.3284C525.699 75.7764 526.931 73.4084 527.667 71.0084ZM535.731 82.0804H537.731V80.9124H535.731V82.0804ZM532.659 82.0804H534.547V80.9124H532.659V82.0804ZM534.547 78.7364H532.659V79.9204H534.547V78.7364ZM537.731 78.7364H535.731V79.9204H537.731V78.7364ZM539.011 77.6164V84.2884C539.011 84.8804 538.915 85.2164 538.515 85.4244C538.099 85.6164 537.507 85.6324 536.627 85.6324C536.579 85.2964 536.435 84.8004 536.275 84.4964C536.851 84.5124 537.347 84.5124 537.507 84.4964C537.683 84.4804 537.731 84.4324 537.731 84.2724V83.0724H535.731V85.5524H534.547V83.0724H532.659V85.6164H531.411V77.6164H539.011ZM539.395 75.3124V76.6244H530.611V78.7684C530.611 80.7844 530.387 83.7284 529.091 85.6484C528.867 85.3924 528.307 84.8964 528.003 84.7204C529.139 82.9924 529.251 80.5444 529.251 78.7524V75.3124H539.395Z" fill="#005BAC"/>
<rect x="589.5" y="3.22119" width="199" height="37" rx="18.5" fill="white"/>
<rect x="589.5" y="3.22119" width="199" height="37" rx="18.5" stroke="#005BAC"/>
<path d="M614.672 27.9292C612.816 27.9292 611.616 27.1932 610.832 26.3132L611.728 25.1292C612.416 25.8332 613.296 26.4252 614.512 26.4252C615.84 26.4252 616.752 25.6892 616.752 24.4572C616.752 23.1612 615.92 22.3132 613.264 22.3132V20.9532C615.584 20.9532 616.352 20.0732 616.352 18.8892C616.352 17.8492 615.664 17.2092 614.544 17.1932C613.632 17.2092 612.864 17.6412 612.192 18.2972L611.232 17.1452C612.16 16.3132 613.248 15.7212 614.608 15.7212C616.72 15.7212 618.208 16.8252 618.208 18.7612C618.208 20.1212 617.424 21.0652 616.176 21.5292V21.6092C617.536 21.9452 618.608 22.9692 618.608 24.5532C618.608 26.6812 616.832 27.9292 614.672 27.9292ZM621.893 27.9292C621.205 27.9292 620.661 27.4012 620.661 26.6492C620.661 25.8812 621.205 25.3372 621.893 25.3372C622.581 25.3372 623.125 25.8812 623.125 26.6492C623.125 27.4012 622.581 27.9292 621.893 27.9292ZM636.883 15.4652C636.851 15.8812 636.819 16.3612 636.819 16.9372V19.7852C636.819 23.4492 636.243 24.8092 635.059 26.1532C634.019 27.3692 632.403 28.1052 631.235 28.4892L629.907 27.0972C631.427 26.7132 632.755 26.1052 633.747 25.0172C634.867 23.7372 635.075 22.4892 635.075 19.6892V16.9372C635.075 16.3612 635.027 15.8812 634.979 15.4652H636.883ZM629.459 15.5932C629.427 15.9292 629.395 16.3292 629.395 16.7772V22.1372C629.395 22.5532 629.427 23.1132 629.459 23.4332H627.619C627.635 23.1612 627.683 22.6012 627.683 22.1372V16.7772C627.683 16.4892 627.667 15.9292 627.619 15.5932H629.459ZM653.315 16.9532C653.203 17.1132 652.963 17.5132 652.851 17.7852C652.291 19.0972 651.347 20.9052 650.227 22.3452C651.875 23.7532 653.811 25.8172 654.803 27.0332L653.395 28.2812C652.339 26.8412 650.739 25.0812 649.155 23.6092C647.443 25.4332 645.283 27.1452 642.995 28.2172L641.699 26.8572C644.291 25.8652 646.691 23.9452 648.275 22.1692C649.363 20.9532 650.435 19.1932 650.819 17.9452H644.947C644.323 17.9452 643.459 18.0252 643.203 18.0412V16.2332C643.523 16.2812 644.451 16.3452 644.947 16.3452H650.883C651.475 16.3452 652.003 16.2812 652.275 16.1852L653.315 16.9532ZM665.123 15.2732C664.803 15.7532 664.467 16.3772 664.291 16.6972C664.227 16.8252 664.147 16.9692 664.067 17.0972H667.907C668.355 17.0972 668.803 17.0492 669.107 16.9372L670.419 17.7372C670.259 17.9932 670.083 18.3932 669.971 18.7132C669.539 20.2492 668.595 22.3932 667.155 24.1532C665.683 25.9772 663.747 27.4332 660.755 28.5852L659.267 27.2572C662.355 26.3292 664.259 24.9212 665.683 23.2572C666.867 21.8972 667.827 19.8812 668.115 18.5372H663.123C662.099 19.9132 660.739 21.3372 659.059 22.4572L657.651 21.4012C660.435 19.7372 661.923 17.5132 662.675 16.1052C662.867 15.7852 663.139 15.1292 663.267 14.6652L665.123 15.2732ZM687.347 16.9052C687.203 17.0812 686.947 17.3852 686.819 17.5772C686.131 18.7452 684.611 20.7772 682.899 21.9932L681.571 20.9212C682.979 20.1052 684.371 18.5212 684.835 17.6092H676.067C675.427 17.6092 674.867 17.6572 674.179 17.7052V15.9292C674.771 16.0092 675.427 16.0732 676.067 16.0732H685.011C685.363 16.0732 686.083 16.0252 686.339 15.9612L687.347 16.9052ZM680.883 19.0332C680.883 23.2092 680.643 26.2812 676.435 28.4412L674.963 27.2412C675.427 27.0812 675.987 26.8252 676.499 26.4572C678.787 24.9852 679.155 22.9692 679.155 20.3132C679.155 19.8812 679.139 19.4972 679.059 19.0332H680.883ZM692.682 25.6252V21.0012C691.146 21.3052 689.802 21.5932 689.146 21.7372L688.842 20.0572C689.578 19.9612 691.034 19.7052 692.682 19.4012V16.8732C692.682 16.3612 692.65 15.7212 692.57 15.2412H694.474C694.394 15.7212 694.346 16.3772 694.346 16.8732V19.0972C696.89 18.6012 699.45 18.0892 700.138 17.9292C700.538 17.8332 700.874 17.7372 701.114 17.5932L702.314 18.5372C702.186 18.7292 701.994 19.0332 701.866 19.2732C701.146 20.6012 699.802 22.6972 698.57 23.9292L697.178 23.1132C698.314 22.0732 699.434 20.4412 699.898 19.5452C699.53 19.6252 696.938 20.1372 694.346 20.6652V25.1932C694.346 26.2492 694.698 26.6012 696.538 26.6012C698.314 26.6012 699.962 26.4252 701.562 26.1052L701.498 27.8332C700.106 28.0252 698.378 28.1692 696.506 28.1692C693.226 28.1692 692.682 27.3372 692.682 25.6252ZM717.002 16.9532C716.89 17.1132 716.65 17.5132 716.538 17.7852C715.978 19.0972 715.034 20.9052 713.914 22.3452C715.562 23.7532 717.498 25.8172 718.49 27.0332L717.082 28.2812C716.026 26.8412 714.426 25.0812 712.842 23.6092C711.13 25.4332 708.97 27.1452 706.682 28.2172L705.386 26.8572C707.978 25.8652 710.378 23.9452 711.962 22.1692C713.05 20.9532 714.122 19.1932 714.506 17.9452H708.634C708.01 17.9452 707.146 18.0252 706.89 18.0412V16.2332C707.21 16.2812 708.138 16.3452 708.634 16.3452H714.57C715.162 16.3452 715.69 16.2812 715.962 16.1852L717.002 16.9532ZM733.146 16.0252C732.97 16.3452 732.698 16.9692 732.57 17.3212C732.058 18.6492 731.29 20.3612 730.266 21.8652C731.69 23.0332 733.066 24.2812 734.17 25.4812L732.89 26.8892C731.738 25.5612 730.538 24.4252 729.21 23.2732C727.754 25.0492 725.834 26.8732 723.082 28.3452L721.674 27.0812C724.394 25.7852 726.33 24.1212 727.898 22.1852C726.73 21.2412 725.066 20.0092 723.482 19.0332L724.538 17.7532C725.882 18.6012 727.658 19.8332 728.938 20.8092C729.882 19.4172 730.474 17.9932 730.938 16.6812C731.066 16.3292 731.21 15.7532 731.29 15.3692L733.146 16.0252ZM739.69 15.8012C740.81 16.5532 742.89 18.2172 743.786 19.1452L742.522 20.4412C741.69 19.5932 739.706 17.8492 738.522 17.0492L739.69 15.8012ZM738.042 26.5052C740.714 26.1052 742.794 25.2092 744.33 24.2652C746.906 22.6812 748.906 20.2812 749.882 18.2332L750.858 19.9772C749.706 22.0572 747.738 24.2332 745.242 25.7692C743.626 26.7612 741.594 27.7052 739.114 28.1532L738.042 26.5052ZM757.194 26.2492V17.0012C757.194 16.4892 757.146 15.7532 757.05 15.2092H759.018C758.97 15.7372 758.906 16.4412 758.906 17.0012V19.4972C761.034 20.1372 764.074 21.2732 765.674 22.0572L764.954 23.8012C763.274 22.8892 760.666 21.8812 758.906 21.3052V26.2492C758.906 26.7452 758.954 27.7212 759.034 28.2972H757.066C757.146 27.7372 757.194 26.8732 757.194 26.2492Z" fill="#005BAC"/>
<path d="M26.788 42.86H36.402V40.409H26.788V42.86ZM36.402 36.343H26.788V38.775H36.402V36.343ZM36.402 32.277H26.788V34.709H36.402V32.277ZM31.614 30.586H38.264V45.444H36.402V44.494H26.788V45.52H25.021V30.586H29.809C30.075 29.769 30.303 28.781 30.436 28.04L32.545 28.287C32.241 29.085 31.937 29.902 31.614 30.586ZM47.384 41.568V42.86C48.562 42.746 49.778 42.632 50.975 42.499C52.533 40.352 53.008 37.483 53.16 34.025H51.146V32.6H47.384V33.588H50.918V39.307H47.384V40.276H50.956V41.568H47.384ZM43.812 38.148H45.769V36.989H43.812V38.148ZM49.417 36.989H47.384V38.148H49.417V36.989ZM47.384 35.906H49.417V34.747H47.384V35.906ZM43.812 34.747V35.906H45.769V34.747H43.812ZM54.889 32.391H58.822C58.822 32.391 58.803 32.999 58.803 33.208C58.594 41.055 58.423 43.753 57.815 44.57C57.454 45.14 57.055 45.292 56.466 45.387C55.896 45.463 55.022 45.463 54.129 45.406C54.091 44.931 53.901 44.209 53.635 43.734C54.509 43.81 55.288 43.81 55.63 43.81C55.953 43.81 56.124 43.753 56.314 43.506C56.732 42.974 56.922 40.561 57.074 34.025H54.832C54.585 39.079 53.73 43.107 50.462 45.615C50.196 45.216 49.607 44.589 49.189 44.304C49.303 44.228 49.417 44.133 49.531 44.038C46.795 44.361 44.059 44.646 42.026 44.836L41.798 43.335C42.9 43.259 44.268 43.145 45.769 43.012V41.568H42.311V40.276H45.769V39.307H42.368V33.588H45.769V32.6H41.855V31.289H45.769V30.225C44.61 30.32 43.451 30.377 42.387 30.415C42.33 30.054 42.14 29.484 41.969 29.142C44.781 28.99 48.144 28.648 50.12 28.211L50.956 29.541C49.949 29.75 48.695 29.94 47.384 30.073V31.289H51.222V32.391H53.217C53.236 31.099 53.236 29.75 53.236 28.325H54.927C54.927 29.731 54.908 31.099 54.889 32.391ZM67.524 29.997V31.194H65.966V28.686H77.689V31.194H76.055V29.997H67.524ZM68.436 38.072H70.887V37.008H68.436V38.072ZM68.436 34.918V35.944H70.887V34.918H68.436ZM75.143 34.918H72.616V35.944H75.143V34.918ZM75.143 38.072V37.008H72.616V38.072H75.143ZM70.887 43.031V41.473H65.7V40.143H70.887V39.212H66.916V33.778H70.887V32.828H66.403V31.555H70.887V30.377H72.616V31.555H77.176V32.828H72.616V33.778H76.72V39.212H72.616V40.143H77.974V41.473H72.616V43.031H70.887ZM65.396 31.574L63.971 32.695C63.439 31.745 62.166 30.434 61.045 29.522L62.394 28.534C63.496 29.389 64.826 30.643 65.396 31.574ZM64.883 35.431V41.511C65.7 42.822 67.201 43.411 69.31 43.506C71.457 43.601 75.865 43.544 78.278 43.373C78.069 43.772 77.803 44.589 77.708 45.102C75.523 45.197 71.495 45.235 69.291 45.159C66.935 45.064 65.301 44.437 64.142 42.974C63.344 43.753 62.508 44.513 61.577 45.33L60.703 43.582C61.463 43.069 62.394 42.347 63.192 41.644V37.065H60.912V35.431H64.883ZM96.48 29.465V31.156H89.07V29.465H96.48ZM81.869 36.723V38.167H83.465V36.723H81.869ZM81.869 34.063V35.507H83.465V34.063H81.869ZM86.467 35.507V34.063H84.795V35.507H86.467ZM86.467 38.167V36.723H84.795V38.167H86.467ZM88.348 42.347H84.966V45.482H83.313V42.347H79.779V40.77H83.313V39.459H80.501V32.79H83.313V31.517H80.064V29.978H83.313V28.059H84.985V29.978H88.158V31.517H84.985V32.79H87.911V39.459H84.966V40.77H88.348V42.347ZM97.354 44.817L95.72 45.463C95.663 45.121 95.568 44.722 95.473 44.323C92.832 44.551 90.115 44.798 88.12 44.969L87.816 43.24L89.374 43.145C89.906 41.302 90.438 38.642 90.742 36.495H88.291V34.823H97.164V36.495H92.661C92.243 38.68 91.654 41.169 91.103 43.012L94.979 42.746C94.58 41.625 94.086 40.466 93.592 39.478L95.074 38.851C96.119 40.732 97.031 43.183 97.354 44.817ZM102.845 43.126C105.98 41.853 108.07 39.858 109.476 37.806C110.901 35.697 111.471 33.493 111.794 31.802C111.927 31.156 111.984 30.339 111.984 29.94L114.378 30.263C114.207 30.871 114.017 31.65 113.922 32.068C113.466 34.31 112.706 36.666 111.319 38.813C109.818 41.093 107.69 43.202 104.631 44.665L102.845 43.126ZM102.028 30.092C102.902 31.384 104.574 34.291 105.258 35.564L103.301 36.666C102.427 34.823 100.945 32.22 100.109 31.08L102.028 30.092ZM131.972 29.446C131.934 29.94 131.896 30.51 131.896 31.194V34.576C131.896 38.927 131.212 40.542 129.806 42.138C128.571 43.582 126.652 44.456 125.265 44.912L123.688 43.259C125.493 42.803 127.07 42.081 128.248 40.789C129.578 39.269 129.825 37.787 129.825 34.462V31.194C129.825 30.51 129.768 29.94 129.711 29.446H131.972ZM123.156 29.598C123.118 29.997 123.08 30.472 123.08 31.004V37.369C123.08 37.863 123.118 38.528 123.156 38.908H120.971C120.99 38.585 121.047 37.92 121.047 37.369V31.004C121.047 30.662 121.028 29.997 120.971 29.598H123.156ZM150.174 34.956C150.117 35.165 150.06 35.45 150.022 35.64C149.87 36.856 149.338 40.409 149.072 42.176H150.668C151.105 42.176 151.884 42.138 152.321 42.1V44.038C151.96 44.019 151.162 44 150.706 44H140.465C139.838 44 139.401 44.019 138.755 44.038V42.081C139.249 42.138 139.857 42.176 140.465 42.176H147.039C147.305 40.561 147.799 37.293 147.856 36.229H142.213C141.643 36.229 141.035 36.267 140.522 36.286V34.31C140.997 34.367 141.719 34.405 142.194 34.405H147.59C147.932 34.405 148.54 34.348 148.73 34.253L150.174 34.956ZM156.843 35.526C157.47 35.564 158.648 35.64 159.674 35.64H170.01C170.922 35.64 171.663 35.564 172.138 35.526V37.882C171.72 37.863 170.846 37.787 170.01 37.787H159.674C158.629 37.787 157.489 37.825 156.843 37.882V35.526ZM179.405 29.199C180.583 29.864 182.73 31.27 183.623 31.916L182.502 33.55C181.533 32.847 179.5 31.498 178.322 30.833L179.405 29.199ZM176.27 42.746C178.379 42.385 180.697 41.682 182.692 40.58C185.865 38.775 188.43 36.229 189.969 33.531L191.128 35.545C189.418 38.129 186.777 40.561 183.699 42.347C181.78 43.468 179.12 44.38 177.391 44.703L176.27 42.746ZM176.517 33.512C177.714 34.139 179.88 35.488 180.773 36.115L179.671 37.806C178.664 37.084 176.65 35.792 175.434 35.146L176.517 33.512ZM196.771 33.436C197.208 33.493 198.31 33.512 198.899 33.512H206.176C206.613 33.512 207.202 33.493 207.468 33.493C207.449 33.721 207.449 34.215 207.449 34.595V44.076C207.449 44.38 207.468 44.912 207.487 45.216H205.587C205.606 45.045 205.606 44.76 205.606 44.456H198.158C197.588 44.456 196.885 44.494 196.562 44.513V42.632C196.885 42.67 197.493 42.708 198.158 42.708H205.606V39.706H199.108C198.424 39.706 197.645 39.706 197.227 39.744V37.939C197.664 37.958 198.424 37.996 199.089 37.996H205.606V35.222H198.899C198.31 35.222 197.17 35.26 196.771 35.279V33.436ZM216.056 29.845C217.386 30.738 219.856 32.714 220.92 33.816L219.419 35.355C218.431 34.348 216.075 32.277 214.669 31.327L216.056 29.845ZM214.099 42.556C217.272 42.081 219.742 41.017 221.566 39.896C224.625 38.015 227 35.165 228.159 32.733L229.318 34.804C227.95 37.274 225.613 39.858 222.649 41.682C220.73 42.86 218.317 43.981 215.372 44.513L214.099 42.556ZM239.597 28.876C239.483 29.408 239.331 30.111 239.084 30.928C240.946 30.852 242.941 30.681 244.67 30.377V32.144C242.808 32.41 240.471 32.581 238.419 32.638C238.001 33.531 237.488 34.424 236.956 35.146C237.583 34.785 238.647 34.576 239.388 34.576C240.585 34.576 241.573 35.127 241.934 36.191C243.112 35.64 244.081 35.241 244.974 34.823C245.62 34.538 246.171 34.291 246.779 33.987L247.558 35.735C247.007 35.906 246.19 36.21 245.62 36.438C244.651 36.818 243.416 37.312 242.086 37.92C242.105 39.003 242.124 40.523 242.143 41.435H240.338C240.376 40.77 240.395 39.687 240.414 38.756C238.78 39.649 237.754 40.523 237.754 41.644C237.754 42.936 238.989 43.202 240.908 43.202C242.447 43.202 244.518 43.012 246.19 42.708L246.133 44.627C244.765 44.798 242.561 44.969 240.851 44.969C238.02 44.969 235.816 44.304 235.816 41.948C235.816 39.611 238.096 38.129 240.3 37.008C240.053 36.343 239.445 36.058 238.742 36.058C237.583 36.058 236.386 36.666 235.588 37.426C235.037 37.958 234.486 38.661 233.859 39.459L232.225 38.243C234.448 36.153 235.74 34.31 236.519 32.695C236.329 32.695 236.139 32.695 235.968 32.695C235.17 32.695 233.859 32.657 232.795 32.581V30.795C233.802 30.947 235.151 31.004 236.063 31.004C236.424 31.004 236.804 31.004 237.184 30.985C237.431 30.206 237.583 29.408 237.621 28.724L239.597 28.876Z" fill="#005BAC"/>
<path d="M38.872 58.308C38.758 58.536 38.606 59.144 38.568 59.353C38.226 61.5 37.808 64.217 36.402 66.44C34.844 68.891 32.241 70.81 29.201 71.836L27.548 70.145C30.227 69.461 33.039 67.827 34.578 65.433C35.604 63.799 36.155 61.519 36.345 59.353H26.465V62.887C26.465 63.153 26.465 63.723 26.522 64.255H24.337C24.375 63.742 24.413 63.305 24.413 62.887V58.84C24.413 58.384 24.375 57.89 24.337 57.434C24.869 57.472 25.648 57.491 26.484 57.491H35.946C36.459 57.491 37.01 57.472 37.409 57.377L38.872 58.308ZM45.427 56.845C46.757 57.738 49.227 59.714 50.291 60.816L48.79 62.355C47.802 61.348 45.446 59.277 44.04 58.327L45.427 56.845ZM43.47 69.556C46.643 69.081 49.113 68.017 50.937 66.896C53.996 65.015 56.371 62.165 57.53 59.733L58.689 61.804C57.321 64.274 54.984 66.858 52.02 68.682C50.101 69.86 47.688 70.981 44.743 71.513L43.47 69.556ZM75.1139 58.213C74.9809 58.403 74.6959 58.878 74.5629 59.201C73.8979 60.759 72.7769 62.906 71.4469 64.616C73.4039 66.288 75.7029 68.739 76.8809 70.183L75.2089 71.665C73.9549 69.955 72.0549 67.865 70.1739 66.117C68.1409 68.283 65.5759 70.316 62.8589 71.589L61.3199 69.974C64.3979 68.796 67.2479 66.516 69.1289 64.407C70.4209 62.963 71.6939 60.873 72.1499 59.391H65.1769C64.4359 59.391 63.4099 59.486 63.1059 59.505V57.358C63.4859 57.415 64.5879 57.491 65.1769 57.491H72.2259C72.9289 57.491 73.5559 57.415 73.8789 57.301L75.1139 58.213ZM84.8419 69.252V58.27C84.8419 57.662 84.7849 56.788 84.6709 56.142H87.0079C86.9509 56.769 86.8749 57.605 86.8749 58.27V61.234C89.4019 61.994 93.0119 63.343 94.9119 64.274L94.0569 66.345C92.0619 65.262 88.9649 64.065 86.8749 63.381V69.252C86.8749 69.841 86.9319 71 87.0269 71.684H84.6899C84.7849 71.019 84.8419 69.993 84.8419 69.252ZM106.996 59.904C107.338 60.702 108.269 63.191 108.516 64.027L106.73 64.673C106.502 63.78 105.647 61.405 105.21 60.493L106.996 59.904ZM113.931 61.12C113.76 61.595 113.646 61.937 113.57 62.241C113.057 64.274 112.24 66.288 110.91 67.979C109.162 70.221 106.806 71.76 104.659 72.577L103.082 70.962C105.229 70.354 107.737 68.91 109.314 66.953C110.625 65.319 111.575 62.849 111.841 60.455L113.931 61.12ZM102.569 60.892C103.006 61.766 103.956 64.16 104.317 65.205L102.512 65.87C102.189 64.863 101.201 62.279 100.783 61.538L102.569 60.892ZM131.924 57.225C131.924 57.871 132.456 58.403 133.102 58.403C133.748 58.403 134.299 57.871 134.299 57.225C134.299 56.579 133.748 56.028 133.102 56.028C132.456 56.028 131.924 56.579 131.924 57.225ZM130.917 57.225C130.917 56.028 131.886 55.04 133.102 55.04C134.318 55.04 135.306 56.028 135.306 57.225C135.306 58.441 134.318 59.41 133.102 59.41C132.931 59.41 132.76 59.391 132.589 59.353C132.57 59.467 132.532 59.6 132.513 59.714C132.076 61.652 131.202 64.654 129.663 66.687C127.934 68.929 125.559 70.753 122.12 71.836L120.486 70.05C124.191 69.138 126.338 67.504 127.915 65.528C129.207 63.856 130.024 61.424 130.29 59.695H120.942C120.144 59.695 119.384 59.733 118.89 59.771V57.643C119.422 57.7 120.315 57.776 120.942 57.776H130.157C130.385 57.776 130.67 57.776 130.974 57.738C130.936 57.567 130.917 57.396 130.917 57.225ZM137.054 58.27C137.776 58.251 138.441 58.213 138.821 58.175C140.208 58.042 143.59 57.719 147.086 57.415C149.119 57.244 151.019 57.13 152.33 57.092V59.011C151.266 59.011 149.613 59.03 148.625 59.277C146.098 60.037 144.426 62.754 144.426 64.996C144.426 68.454 147.656 69.613 150.791 69.746L150.107 71.779C146.383 71.589 142.488 69.594 142.488 65.414C142.488 62.545 144.179 60.246 145.718 59.239C143.799 59.429 139.372 59.885 137.244 60.341L137.054 58.27ZM149.594 61.12C150.05 61.785 150.753 62.944 151.152 63.742L149.974 64.274C149.518 63.305 149.024 62.431 148.454 61.614L149.594 61.12ZM151.703 60.303C152.159 60.949 152.9 62.089 153.318 62.887L152.159 63.438C151.665 62.469 151.171 61.633 150.563 60.816L151.703 60.303ZM169.81 58.213V56.978H164.034V58.213H169.81ZM169.81 60.664V59.41H164.034V60.664H169.81ZM171.501 55.667V61.975H162.419V55.667H171.501ZM161.317 64.806L159.246 65.452V70.373C159.246 71.247 159.075 71.722 158.581 71.988C158.068 72.273 157.308 72.33 156.111 72.33C156.073 71.912 155.864 71.152 155.636 70.696C156.396 70.715 157.099 70.715 157.308 70.715C157.536 70.715 157.631 70.639 157.631 70.373V65.965L155.636 66.573L155.237 64.863C155.902 64.692 156.738 64.464 157.631 64.217V60.398H155.427V58.764H157.631V55.097H159.246V58.764H161.26V60.398H159.246V63.742L161.07 63.21L161.317 64.806ZM167.739 67.96V70.601C168.252 70.677 168.784 70.696 169.335 70.696C169.867 70.696 172.318 70.696 173.04 70.677C172.831 71.057 172.603 71.798 172.546 72.235H169.278C166.637 72.235 164.661 71.76 163.426 69.252C162.913 70.582 162.21 71.665 161.279 72.501C161.013 72.216 160.348 71.665 159.968 71.437C161.602 70.126 162.419 67.998 162.723 65.319L164.319 65.509C164.224 66.212 164.11 66.877 163.958 67.504C164.452 68.872 165.174 69.689 166.086 70.126V64.578H161.526V63.134H172.508V64.578H167.739V66.554H171.539V67.96H167.739ZM178.588 55.097L180.241 55.629C179.728 56.959 179.082 58.327 178.36 59.581V72.482H176.631V62.298C176.118 63.001 175.586 63.647 175.054 64.217C174.883 63.78 174.37 62.83 174.085 62.412C175.871 60.645 177.562 57.89 178.588 55.097ZM182.787 67.542L184.459 68.074C183.528 69.727 182.065 71.38 180.773 72.444C180.45 72.121 179.766 71.589 179.367 71.323C180.697 70.392 181.989 68.948 182.787 67.542ZM186.986 68.359L188.411 67.58C189.646 68.796 191.014 70.43 191.679 71.551L190.197 72.501C189.57 71.342 188.221 69.613 186.986 68.359ZM184.079 60.626V64.901H187.347V60.626H184.079ZM189.076 64.901H191.85V66.63H179.614V64.901H182.35V60.626H180.07V58.935H182.35V55.249H184.079V58.935H187.347V55.211H189.076V58.935H191.66V60.626H189.076V64.901Z" fill="#005BAC"/>
<rect x="296.5" y="59.4448" width="132" height="39" rx="19.5" fill="white"/>
<rect x="296.5" y="59.4448" width="132" height="39" rx="19.5" stroke="#005BAC"/>
<path d="M319.826 79.3528H323.074V76.2648C323.074 75.6248 323.122 74.6328 323.154 73.9768H323.09C322.802 74.5848 322.482 75.1928 322.146 75.8008L319.826 79.3528ZM323.074 83.9448V80.7768H317.97V79.5448L322.658 72.1528H324.802V79.3528H326.29V80.7768H324.802V83.9448H323.074ZM329.159 84.1528C328.471 84.1528 327.927 83.6248 327.927 82.8728C327.927 82.1048 328.471 81.5608 329.159 81.5608C329.847 81.5608 330.391 82.1048 330.391 82.8728C330.391 83.6248 329.847 84.1528 329.159 84.1528ZM335.589 75.6888V79.9128C336.133 79.6728 336.709 79.4328 337.253 79.2088L337.589 80.5208C335.909 81.3368 334.085 82.1688 332.661 82.8088L332.085 81.3048C332.661 81.1128 333.397 80.8248 334.197 80.4888V75.6888H332.229V74.2808H334.197V70.7288H335.589V74.2808H337.365V75.6888H335.589ZM340.981 83.5448H344.485C345.365 83.5448 345.525 83.1448 345.653 81.4008C345.989 81.6248 346.565 81.8648 346.965 81.9448C346.757 84.1528 346.309 84.8728 344.565 84.8728H340.901C338.933 84.8728 338.373 84.3768 338.373 82.4568V77.8328L337.269 78.2968L336.709 76.9848L338.373 76.2808V72.0408H339.781V75.6888L341.573 74.9368V70.5368H342.965V74.3448L344.709 73.6088L344.997 73.3848L345.253 73.1768L346.293 73.5768L346.229 73.8328C346.229 76.8088 346.197 78.9848 346.101 79.6088C346.021 80.2808 345.749 80.6328 345.253 80.7608C344.821 80.9208 344.181 80.9368 343.717 80.9368C343.669 80.5528 343.541 79.9928 343.381 79.6728C343.717 79.6888 344.149 79.6888 344.309 79.6888C344.517 79.6888 344.661 79.6248 344.725 79.3048C344.789 78.9848 344.821 77.4968 344.821 75.0648L342.965 75.8648V81.6088H341.573V76.4568L339.781 77.2248V82.4728C339.781 83.3688 339.957 83.5448 340.981 83.5448ZM356.485 76.0728L355.221 76.5208C355.109 75.7368 354.645 74.5208 354.149 73.5928L355.317 73.1928C355.845 74.0888 356.341 75.2888 356.485 76.0728ZM353.733 76.3448L352.533 76.8888C352.325 76.1368 351.749 74.9848 351.189 74.1208L352.293 73.6568C352.885 74.4888 353.525 75.5928 353.733 76.3448ZM358.373 73.6568L359.797 74.0248C359.029 75.9608 357.989 77.6408 356.725 79.0488C357.941 79.7368 359.045 80.4728 359.781 81.1128L358.869 82.2808C358.133 81.6088 356.997 80.8248 355.733 80.0728C354.581 81.1448 353.269 82.0408 351.829 82.7448C351.637 82.4408 351.157 81.8328 350.853 81.5448C352.181 80.9688 353.381 80.2328 354.437 79.3368C353.429 78.7928 352.405 78.2968 351.461 77.9128L352.277 76.9048C353.285 77.3048 354.389 77.8168 355.445 78.3608C356.709 77.0488 357.685 75.4648 358.373 73.6568ZM350.421 83.0168H360.645V72.6488H350.421V83.0168ZM348.933 71.2248H362.197V85.1608H360.645V84.4408H350.421V85.1608H348.933V71.2248ZM367.925 70.5848L369.349 71.0328C368.917 72.1528 368.373 73.3048 367.765 74.3768V85.1768H366.261V76.7288C365.845 77.3048 365.397 77.8328 364.949 78.2968C364.805 77.9288 364.373 77.0968 364.117 76.7608C365.637 75.2568 367.061 72.9208 367.925 70.5848ZM378.917 74.5688H374.181V76.6008H378.533V77.9608H374.181V80.0888H378.757V81.4808H374.181V85.1928H372.661V74.5688H371.765C371.093 75.8168 370.357 76.9368 369.589 77.7848C369.349 77.5288 368.773 77.0008 368.437 76.7768C369.845 75.3048 371.125 73.0008 371.893 70.6968L373.317 71.0808C373.061 71.7688 372.789 72.4728 372.485 73.1448H378.917V74.5688ZM392.325 75.6088L393.829 75.9768C393.157 78.0408 392.213 79.8488 391.045 81.3848C391.589 82.7448 392.213 83.5768 392.885 83.5768C393.301 83.5768 393.493 82.7608 393.589 80.6968C393.941 81.0488 394.469 81.3848 394.869 81.5288C394.629 84.3448 394.085 85.0968 392.773 85.0968C391.605 85.0968 390.677 84.2008 389.957 82.6968C389.045 83.6568 388.037 84.4728 386.933 85.1448C386.709 84.8248 386.181 84.2008 385.845 83.9288C387.173 83.1928 388.357 82.2648 389.333 81.1288C388.757 79.3208 388.389 77.0328 388.197 74.5368H383.077V76.4728H387.093V77.0488C387.013 80.5208 386.933 81.8968 386.597 82.3448C386.309 82.6808 386.005 82.8088 385.573 82.8568C385.173 82.9208 384.453 82.9208 383.685 82.8888C383.653 82.4568 383.509 81.8808 383.285 81.4968C383.941 81.5608 384.565 81.5768 384.821 81.5768C385.045 81.5768 385.205 81.5288 385.317 81.3848C385.493 81.1608 385.589 80.2488 385.637 77.8328H383.077C383.061 80.1048 382.789 83.3048 381.381 85.3688C381.125 85.0648 380.469 84.5368 380.133 84.3448C381.413 82.4248 381.525 79.6728 381.525 77.6088V73.0808H388.101C388.053 72.2488 388.021 71.3848 388.021 70.5368H389.589C389.573 71.4008 389.589 72.2488 389.637 73.0808H392.725C392.101 72.5528 391.061 71.8648 390.213 71.4008L391.109 70.4888C392.053 70.9848 393.253 71.7208 393.877 72.2648L393.109 73.0808H394.741V74.5368H389.717C389.877 76.4408 390.133 78.1688 390.501 79.5928C391.269 78.4088 391.861 77.0808 392.325 75.6088Z" fill="#005BAC"/>
</svg>
